<svg width="142" height="106" viewBox="0 0 142 106" fill="none" xmlns="http://www.w3.org/2000/svg">
<path opacity="0.12" d="M0 99.3288C0 102.416 33.3452 106 71.7658 106C110.186 106 141.333 103.498 141.333 100.411C141.333 97.3239 110.189 94.8181 71.7658 94.8181C33.3431 94.8181 0 96.2418 0 99.3288Z" fill="#32323F"/>
<path d="M101.996 88.9451C101.771 91.4415 108.01 94.9751 101.039 97.5474C95.6636 99.5314 48.6421 93.6512 34.9962 98.2662C34.6171 98.3943 31.8563 97.9767 31.8338 97.9694C31.8338 97.9694 29.6944 97.1732 28.7807 96.0579C23.3689 89.438 22.6534 26.9611 18.9295 16.9567C16.6404 10.8044 9.20212 8.04529 6.75381 7.88026C0.125855 7.43368 13.122 0.265167 22.3184 0.394727C31.5148 0.524287 78.5674 -3.86701 85.2916 13.7734C89.1022 23.7691 89.5421 68.5419 93.5633 81.199C94.1421 83.0172 94.7933 84.1709 95.5544 84.4604C99.7687 86.0738 97.6337 89.1651 100.955 87.8847C102.389 87.331 102.064 88.1931 101.996 88.9451Z" fill="#BAF2D4"/>
<path d="M101.819 83.8884C113.153 88.3289 105.107 100.018 100.083 99.8728C94.3556 99.7078 46.4536 101.526 31.8361 97.9678C32.5248 98.1357 36.0859 98.0004 40.518 94.2764C45.1028 90.4258 42.4273 84.1657 38.4575 82.7224C36.6878 82.0826 101.088 83.8884 101.819 83.8884Z" fill="#818187"/>
<g opacity="0.6">
<path opacity="0.75" d="M80.8399 22.2759L27.8859 21.3882L27.8494 23.5665L80.8034 24.4542L80.8399 22.2759Z" fill="#10684A"/>
<path opacity="0.75" d="M81.4841 29.3865L28.5301 28.4988L28.4936 30.6771L81.4476 31.5648L81.4841 29.3865Z" fill="#10684A"/>
<path opacity="0.75" d="M82.0804 35.7664L29.1264 34.8787L29.0899 37.057L82.0439 37.9447L82.0804 35.7664Z" fill="#10684A"/>
<path opacity="0.75" d="M82.468 43.2932L29.514 42.4055L29.4776 44.5838L82.4315 45.4716L82.468 43.2932Z" fill="#10684A"/>
<path opacity="0.75" d="M83.2938 50.8269L30.3398 49.9392L30.3034 52.1175L83.2574 53.0052L83.2938 50.8269Z" fill="#10684A"/>
<path opacity="0.75" d="M83.9858 59.0969L31.0318 58.2092L30.9953 60.3876L83.9493 61.2753L83.9858 59.0969Z" fill="#10684A"/>
<path opacity="0.75" d="M59.7207 66.6355L31.5719 66.1636L31.5354 68.3419L59.6842 68.8138L59.7207 66.6355Z" fill="#10684A"/>
</g>
<path d="M71.3965 21.2626L65.7539 21.1497L65.6707 25.3093L71.3133 25.4222L71.3965 21.2626Z" fill="#BAF2D4"/>
<path d="M50.6784 20.177L44.3436 20.0708L44.249 25.7222L50.5837 25.8284L50.6784 20.177Z" fill="#BAF2D4"/>
<path d="M62.9124 28.6105L56.2311 28.4985L56.173 31.9679L62.8542 32.0799L62.9124 28.6105Z" fill="#BAF2D4"/>
<path d="M77.5589 34.8981L73.9954 34.8384L73.9207 39.2971L77.4842 39.3568L77.5589 34.8981Z" fill="#BAF2D4"/>
<path d="M47.9725 33.907L40.7472 33.7859L40.6672 38.5623L47.8925 38.6834L47.9725 33.907Z" fill="#BAF2D4"/>
<path d="M56.9589 41.8821L54.0277 41.833L53.9607 45.8358L56.8919 45.8849L56.9589 41.8821Z" fill="#BAF2D4"/>
<path d="M73.1505 42.1539L69.9133 42.0996L69.8462 46.1024L73.0834 46.1566L73.1505 42.1539Z" fill="#BAF2D4"/>
<path d="M84.1673 48.182L71.4341 47.9685L71.3313 54.1076L84.0645 54.3211L84.1673 48.182Z" fill="#BAF2D4"/>
<path d="M85.0292 35.3065L77.457 35.155L77.3679 39.6144L84.94 39.7659L85.0292 35.3065Z" fill="#BAF2D4"/>
<path d="M83.9924 58.6788L75.3811 58.5344L75.3181 62.2969L83.9294 62.4413L83.9924 58.6788Z" fill="#BAF2D4"/>
<path d="M45.8146 56.3547L40.371 56.2634L40.2798 61.7093L45.7234 61.8005L45.8146 56.3547Z" fill="#BAF2D4"/>
<path d="M70.2552 96.2241C70.2769 99.4493 70.3485 99.8213 69.85 100.048C66.1761 101.713 56.8668 103.471 44.7743 103.723C32.4698 103.98 18.3479 101.415 15.8185 99.1931C13.2892 96.971 16.9761 94.9277 16.9761 94.9277L70.2552 96.2241Z" fill="#66383D"/>
<path d="M43.0365 100.706C58.0686 100.706 70.2545 98.6992 70.2545 96.224C70.2545 93.7487 58.0686 91.7422 43.0365 91.7422C28.0044 91.7422 15.8185 93.7487 15.8185 96.224C15.8185 98.6992 28.0044 100.706 43.0365 100.706Z" fill="#7E4F54"/>
<path d="M19.0006 92.8638C18.981 95.6605 18.9195 95.9834 19.3515 96.1795C22.5348 97.6271 30.6091 99.1471 41.0947 99.3642C51.7641 99.5864 64.0093 97.3629 66.2 95.4362C68.3908 93.5094 65.1973 91.7375 65.1973 91.7375L19.0006 92.8638Z" fill="#66383D"/>
<path d="M42.6017 96.7529C55.6363 96.7529 66.2029 95.013 66.2029 92.8668C66.2029 90.7206 55.6363 88.9807 42.6017 88.9807C29.5671 88.9807 19.0005 90.7206 19.0005 92.8668C19.0005 95.013 29.5671 96.7529 42.6017 96.7529Z" fill="#7E4F54"/>
<path opacity="0.23" d="M59.3267 92.6463C59.3267 94.031 52.3189 95.6385 44.244 95.6385C36.169 95.6385 29.6235 94.5166 29.6235 93.132C29.6235 91.7474 36.1697 90.6248 44.244 90.6248C52.3182 90.6248 59.3267 91.2639 59.3267 92.6463Z" fill="#323240"/>
<path d="M111.178 102.962C119.353 105.593 120.444 100.509 113.573 97.5606C113.305 97.4303 83.6985 84.1247 83.4294 83.9944C81.5707 83.0867 82.0786 83.3611 80.1375 82.4223C66.2695 75.704 50.2571 69.5915 43.4272 66.3793C41.4145 65.4326 41.3421 64.2166 40.3669 65.8553L39.9523 66.5552C39.2505 67.7342 40.4971 68.2597 41.9318 68.9676L77.6884 87.9362L78.4698 88.3213L78.5038 88.3379L80.2699 89.1985L81.3493 89.7305C81.4195 89.6987 102.076 100.034 111.178 102.962Z" fill="#66383D"/>
<path d="M64.8087 60.4108L63.332 63.8054V63.8069L62.5651 65.4463L61.4111 68.1005L60.8403 69.412L55.8619 80.8596L55.2795 82.1979L54.1262 84.8521V84.8528L53.8983 85.2552L53.3311 86.5581L52.6011 88.238L51.3589 91.0949L50.2259 90.6012L39.9124 86.1129L35.2039 84.0631L32.5559 82.9108L34.5296 78.3741L35.324 76.6681L36.4773 74.0139L37.0199 72.7668L42.0684 61.1592L42.6089 59.9157L43.7629 57.263V57.2623L44.5305 55.6222L46.0072 52.2275L48.0648 53.1229L52.7733 55.1727L63.7415 59.9469L64.8087 60.4108Z" fill="#7E4F54"/>
<path d="M55.812 83.9324L55.757 84.0605C55.6248 84.366 55.3878 84.6141 55.0888 84.7601C54.7897 84.9061 54.4483 84.9404 54.1263 84.8567C54.057 84.8376 53.9893 84.8134 53.9237 84.7843L53.1836 84.4622L41.7885 79.5027L39.1058 78.3345L35.5129 76.7711C35.4475 76.7423 35.3844 76.7087 35.324 76.6705C35.0423 76.4925 34.8337 76.2193 34.736 75.9006C34.6384 75.5819 34.658 75.2388 34.7915 74.9334L34.8465 74.8053C34.9794 74.5005 35.2167 74.2532 35.5157 74.108C35.8147 73.9628 36.1557 73.9293 36.4773 74.0134C36.5465 74.0324 36.6143 74.0566 36.6799 74.0858L40.1925 75.6145L42.9555 76.8174L54.3867 81.795L55.0864 82.099C55.4253 82.2463 55.6919 82.5223 55.8276 82.8662C55.9633 83.2101 55.9569 83.5939 55.8099 83.9331L55.812 83.9324Z" fill="#66383D"/>
<path d="M63.0976 67.1804L63.0419 67.3078C62.9693 67.4759 62.8643 67.6281 62.7329 67.7555C62.6014 67.883 62.4461 67.9832 62.2758 68.0504C62.1055 68.1177 61.9237 68.1506 61.7407 68.1474C61.5576 68.1442 61.3771 68.1048 61.2093 68.0316L60.4901 67.7189L49.0531 62.7363L45.942 61.3835L42.7992 60.0163C42.7336 59.9874 42.6703 59.9537 42.6096 59.9156C42.3286 59.7378 42.1206 59.4653 42.023 59.1473C41.9255 58.8294 41.9449 58.487 42.0778 58.1822L42.1328 58.0548C42.2649 57.7492 42.5019 57.5009 42.801 57.3549C43.1001 57.2089 43.4415 57.1747 43.7636 57.2586C43.8329 57.2773 43.9007 57.3015 43.9662 57.331L47.07 58.6816L49.9589 59.9388L61.6274 65.0177L62.377 65.3441C62.4424 65.3725 62.5056 65.4059 62.5658 65.444C62.8471 65.6223 63.0554 65.8953 63.1529 66.2138C63.2504 66.5323 63.2308 66.8752 63.0976 67.1804Z" fill="#66383D"/>
<path d="M67.7352 60.2455L66.6826 62.6673C66.4301 63.246 65.9583 63.7007 65.3708 63.9314C64.7834 64.1622 64.1284 64.1501 63.5498 63.8978L63.3328 63.803L62.3199 63.3629L52.0701 58.9036L51.3517 58.5916L47.0563 56.7213L46.5643 56.5078L44.5305 55.6226L43.7137 55.2672C43.1347 55.0152 42.6795 54.5434 42.4482 53.9557C42.2169 53.368 42.2284 52.7124 42.4801 52.1332L43.5328 49.7113C43.7854 49.1328 44.2572 48.6782 44.8447 48.4475C45.4321 48.2168 46.087 48.2288 46.6656 48.4809L49.4062 49.673L49.4858 49.7077L49.9546 49.9118L54.9134 52.0673L65.1502 56.523L66.5046 57.1122C66.7911 57.237 67.0502 57.4171 67.2671 57.6421C67.4841 57.8672 67.6545 58.1328 67.7688 58.4237C67.8831 58.7147 67.939 59.0254 67.9332 59.338C67.9274 59.6505 67.8602 59.9589 67.7352 60.2455Z" fill="#66383D"/>
<path d="M63.7109 81.6546L64.1216 81.8333C64.5444 82.0173 65.0363 81.8236 65.2203 81.4006L67.3493 76.5043C67.5333 76.0813 67.3396 75.5892 66.9168 75.4052L66.5061 75.2265C66.0833 75.0425 65.5914 75.2362 65.4074 75.6592L63.2784 80.5555C63.0944 80.9785 63.2881 81.4706 63.7109 81.6546Z" fill="#3A1C20"/>
<path d="M54.1553 87.0345L52.5983 88.2382L50.8735 89.5722L50.7744 89.5244L40.5354 84.6069L35.9 82.3812L33.4821 81.2195L34.5832 78.7434C35.068 78.8361 35.6894 78.9909 36.4137 79.1936C40.7662 80.4118 48.8173 83.3591 52.9767 84.9116L53.8991 85.2569L53.3319 86.5597L53.549 86.6553C53.6603 86.7035 53.7677 86.7604 53.8702 86.8253C53.9457 86.8725 54.0181 86.9242 54.0873 86.9802C54.1104 86.9962 54.1336 87.015 54.1553 87.0345Z" fill="#3A1C20"/>
<path d="M54.781 89.7862L53.7283 92.208C53.4756 92.7864 53.0037 93.2409 52.4164 93.4716C51.829 93.7023 51.1741 93.6904 50.5956 93.4385L48.9858 92.7378L39.6867 88.6896L38.969 88.3777L34.6728 86.5074L34.1809 86.2902L30.7594 84.7999C30.1811 84.5475 29.7266 84.0756 29.4959 83.488C29.2653 82.9005 29.2773 82.2453 29.5295 81.6666L30.5829 79.2455C30.8353 78.6668 31.3072 78.2121 31.8946 77.9814C32.4821 77.7506 33.1371 77.7627 33.7156 78.015L34.5325 78.3711L36.4136 79.1905L37.0235 79.4568L37.1038 79.4916L37.5668 79.6928L42.53 81.8526L52.4007 86.1491L53.3318 86.5544L53.5489 86.65C53.6602 86.6982 53.7676 86.7551 53.8701 86.82C53.9458 86.8668 54.0183 86.9186 54.0872 86.9749C54.1103 86.993 54.1335 87.0119 54.1552 87.0314C54.5398 87.3636 54.8081 87.8102 54.9207 88.3059C55.0333 88.8016 54.9843 89.3203 54.781 89.7862Z" fill="#66383D"/>
<path d="M55.9046 80.8645C55.8903 80.8639 55.876 80.8622 55.8619 80.8594C55.5497 80.7772 55.2429 80.6759 54.9431 80.5561C52.8218 79.773 47.6791 77.6342 43.4235 75.7733C42.4244 75.339 41.4752 74.917 40.6251 74.5312C38.7982 73.7047 37.4294 73.0475 37.0199 72.7666C36.9734 72.7388 36.9323 72.7031 36.8983 72.6609C36.5431 72.0435 41.0497 61.3487 41.9245 61.1525C41.9728 61.1475 42.0217 61.1504 42.0692 61.1612C42.5192 61.2401 43.8121 61.7185 45.5217 62.4076C46.4687 62.789 47.5424 63.2349 48.6711 63.7104C52.9802 65.5344 58.0975 67.8303 60.0235 68.8219C60.4829 69.0579 60.7614 69.2214 60.8027 69.2851C60.8245 69.3238 60.8375 69.3668 60.841 69.4111C61.0219 70.8761 56.6599 80.8811 55.9046 80.8645Z" fill="#F4AB0B"/>
<g opacity="0.27">
<path d="M54.1892 51.7657L51.3473 58.6027L46.6439 56.5406L49.4865 49.7029L54.1892 51.7657Z" fill="#BAF2D4"/>
<path d="M37.1031 79.4924L41.8065 81.5545L38.9639 88.3923L34.2612 86.3294L37.1031 79.4924Z" fill="#BAF2D4"/>
</g>
<g opacity="0.24">
<path d="M42.9562 76.817C42.415 78.0257 41.9975 78.9739 41.7884 79.5001L39.1057 78.3326C39.3423 77.7405 39.7214 76.7902 40.191 75.614L42.9562 76.817Z" fill="#BAF2D4"/>
<path d="M49.053 62.7371L45.942 61.3843C46.3905 60.2936 46.779 59.3642 47.0699 58.6838L49.9595 59.9411C49.8228 60.5824 49.4972 61.5552 49.053 62.7371Z" fill="#BAF2D4"/>
<path d="M43.4235 75.7739C42.4243 75.3396 41.4751 74.9176 40.625 74.5325C42.0416 70.9946 44.0254 66.0597 45.5216 62.406C46.468 62.7874 47.5416 63.2333 48.6703 63.7088C47.2443 67.3141 44.9935 72.2815 43.4235 75.7739Z" fill="#BAF2D4"/>
</g>
<path opacity="0.25" d="M67.7353 60.245L66.6826 62.6668C66.4301 63.2455 65.9583 63.7002 65.3708 63.9309C64.7834 64.1617 64.1284 64.1495 63.5498 63.8973L63.3328 63.8024L62.5659 65.4418C62.8475 65.62 63.056 65.8931 63.1537 66.2118C63.2513 66.5304 63.2317 66.8735 63.0984 67.179L63.0427 67.3064C62.9107 67.612 62.6737 67.8604 62.3746 68.0064C62.0755 68.1524 61.734 68.1865 61.4119 68.1025L60.8403 69.4126C61.0219 70.8769 56.66 80.8819 55.9046 80.8653C55.8903 80.8647 55.876 80.863 55.8619 80.8602L55.2795 82.1993C55.5605 82.3771 55.7686 82.6495 55.8663 82.9675C55.9639 83.2854 55.9447 83.6278 55.812 83.9328L55.757 84.0609C55.6248 84.3664 55.3878 84.6145 55.0888 84.7605C54.7897 84.9065 54.4483 84.9407 54.1263 84.857L53.8984 85.2595L53.3312 86.5623L53.5482 86.6579C53.6595 86.7061 53.7669 86.763 53.8694 86.8279C53.9451 86.8748 54.0176 86.9265 54.0865 86.9828C54.1096 87.0009 54.1328 87.0198 54.1545 87.0393C54.5382 87.3712 54.8059 87.817 54.9185 88.3118C55.031 88.8066 54.9826 89.3244 54.7803 89.7897L53.7276 92.2116C53.4749 92.79 53.003 93.2444 52.4157 93.4751C51.8283 93.7058 51.1735 93.6939 50.5949 93.442L48.9851 92.7414C49.3042 92.2897 49.7252 91.5565 50.2252 90.6011C50.3998 90.2682 50.5836 89.9092 50.7765 89.5241C51.267 88.5441 51.814 87.4063 52.3993 86.1519C52.5874 85.7505 52.7803 85.3364 52.9781 84.9099L53.1857 84.4597C53.5764 83.6063 53.9816 82.7139 54.3925 81.7939C54.5753 81.3867 54.7596 80.9741 54.9453 80.5562C56.6231 76.7809 58.4072 72.6357 60.025 68.8227C60.1827 68.4507 60.3385 68.0823 60.4923 67.7175C60.8845 66.7903 61.2643 65.887 61.6289 65.0199C61.867 64.4524 62.0985 63.8994 62.3221 63.3653C62.8451 62.1131 63.3241 60.9608 63.7437 59.9468C64.3522 58.4767 64.8362 57.2962 65.1509 56.5225L66.5053 57.1116C66.7918 57.2365 67.0508 57.4167 67.2677 57.6417C67.4845 57.8668 67.6549 58.1324 67.7691 58.4234C67.8833 58.7144 67.9391 59.025 67.9333 59.3375C67.9275 59.6501 67.8602 59.9584 67.7353 60.245Z" fill="#1F1F39"/>
</svg>