<svg
  width="18"
  height="20"
  viewBox="0 0 18 20"
  fill="none"
  xmlns="http://www.w3.org/2000/svg"
>
<path
    d="M4.99998 11.9424C4.75511 11.9424 4.54646 11.8562 4.37403 11.6838C4.20159 11.5113 4.11538 11.3027 4.11538 11.0578C4.11538 10.813 4.20159 10.6043 4.37403 10.4319C4.54646 10.2594 4.75511 10.1732 4.99998 10.1732C5.24484 10.1732 5.45349 10.2594 5.62593 10.4319C5.79836 10.6043 5.88458 10.813 5.88458 11.0578C5.88458 11.3027 5.79836 11.5113 5.62593 11.6838C5.45349 11.8562 5.24484 11.9424 4.99998 11.9424ZM8.99998 11.9424C8.75511 11.9424 8.54646 11.8562 8.37403 11.6838C8.20159 11.5113 8.11538 11.3027 8.11538 11.0578C8.11538 10.813 8.20159 10.6043 8.37403 10.4319C8.54646 10.2594 8.75511 10.1732 8.99998 10.1732C9.24484 10.1732 9.45349 10.2594 9.62593 10.4319C9.79836 10.6043 9.88457 10.813 9.88457 11.0578C9.88457 11.3027 9.79836 11.5113 9.62593 11.6838C9.45349 11.8562 9.24484 11.9424 8.99998 11.9424ZM13 11.9424C12.7551 11.9424 12.5465 11.8562 12.374 11.6838C12.2016 11.5113 12.1154 11.3027 12.1154 11.0578C12.1154 10.813 12.2016 10.6043 12.374 10.4319C12.5465 10.2594 12.7551 10.1732 13 10.1732C13.2448 10.1732 13.4535 10.2594 13.6259 10.4319C13.7984 10.6043 13.8846 10.813 13.8846 11.0578C13.8846 11.3027 13.7984 11.5113 13.6259 11.6838C13.4535 11.8562 13.2448 11.9424 13 11.9424ZM2.3077 19.5001C1.80257 19.5001 1.375 19.3251 1.025 18.9751C0.675 18.6251 0.5 18.1975 0.5 17.6924V4.30784C0.5 3.80271 0.675 3.37514 1.025 3.02514C1.375 2.67514 1.80257 2.50014 2.3077 2.50014H3.69233V0.384766H5.23075V2.50014H12.8077V0.384766H14.3076V2.50014H15.6923C16.1974 2.50014 16.625 2.67514 16.975 3.02514C17.325 3.37514 17.5 3.80271 17.5 4.30784V17.6924C17.5 18.1975 17.325 18.6251 16.975 18.9751C16.625 19.3251 16.1974 19.5001 15.6923 19.5001H2.3077ZM2.3077 18.0001H15.6923C15.7692 18.0001 15.8397 17.9681 15.9038 17.904C15.9679 17.8398 16 17.7693 16 17.6924V8.30784H1.99997V17.6924C1.99997 17.7693 2.03202 17.8398 2.09612 17.904C2.16024 17.9681 2.23077 18.0001 2.3077 18.0001ZM1.99997 6.80787H16V4.30784C16 4.23091 15.9679 4.16038 15.9038 4.09627C15.8397 4.03217 15.7692 4.00012 15.6923 4.00012H2.3077C2.23077 4.00012 2.16024 4.03217 2.09612 4.09627C2.03202 4.16038 1.99997 4.23091 1.99997 4.30784V6.80787Z"
    fill="#C2CDC7"
  />
</svg>
