<svg xmlns="http://www.w3.org/2000/svg" width="254" height="246" viewBox="0 0 254 246" fill="none">
<g opacity="0.2">
<mask id="mask0_95_41" style="mask-type:alpha" maskUnits="userSpaceOnUse" x="0" y="0" width="254" height="246">
<rect width="253.857" height="245.103" fill="#D9D9D9"/>
</mask>
<g mask="url(#mask0_95_41)">
<path fill-rule="evenodd" clip-rule="evenodd" d="M171.134 103.247C167.247 107.643 162.545 111.198 157.321 113.734C154.498 115.105 151.524 116.178 148.443 116.926C139.658 119.059 130.431 118.448 122.004 115.177C113.578 111.905 106.356 106.129 101.312 98.6275C96.2686 91.1257 93.6453 82.2583 93.7957 73.2199C93.9462 64.1815 96.8632 55.4064 102.154 48.0766C107.444 40.7468 114.854 35.2146 123.385 32.2252C131.916 29.2358 141.159 28.9329 149.867 31.3572C152.922 32.2075 155.859 33.379 158.634 34.8424C163.771 37.5513 168.352 41.2604 172.091 45.7841L158.526 56.9964C158.525 56.9951 158.524 56.9937 158.523 56.9924C155.056 52.8 150.388 49.7703 145.147 48.3113C139.905 46.8519 134.341 47.0343 129.205 48.8339C124.069 50.6335 119.609 53.964 116.424 58.3765C113.239 62.789 111.483 68.0717 111.392 73.5129C111.302 78.954 112.881 84.2922 115.917 88.8083C118.953 93.3244 123.301 96.8015 128.374 98.771C133.447 100.741 139.002 101.108 144.29 99.8239C149.578 98.5398 154.346 95.6657 157.95 91.589L171.134 103.247Z" fill="#B8ECD3" stroke="#BAF2D4" strokeLinejoin="round"/>
<path d="M272.365 170.897L155.015 53.5476L170.322 43.3433L287.671 158.992L272.365 170.897Z" fill="#B8ECD3" stroke="#BAF2D4" strokeLinejoin="round"/>
<path fill-rule="evenodd" clip-rule="evenodd" d="M229.677 162.559C225.787 166.739 221.636 170.637 217.257 174.233C202.314 186.503 184.715 195.266 165.758 199.764C141.245 205.581 115.559 204.009 91.9384 195.245C68.318 186.482 47.8218 170.92 33.0349 150.522C18.248 130.124 9.83283 105.804 8.85068 80.6295C7.86855 55.4549 14.3635 30.5533 27.5162 9.06551C40.669 -12.4223 59.8905 -29.5339 82.7564 -40.111C105.622 -50.6881 131.108 -54.257 156 -50.3675C175.25 -47.3595 193.478 -39.995 209.331 -28.9259C213.963 -25.6918 218.392 -22.1414 222.585 -18.291C222.597 -18.2792 222.61 -18.2674 222.623 -18.2557L209.85 -4.35893C209.839 -4.36923 209.828 -4.37951 209.817 -4.3898C194.018 -18.8982 174.279 -28.4073 153.086 -31.719C131.878 -35.033 110.163 -31.9922 90.6806 -22.9802C71.1983 -13.9683 54.8211 0.611221 43.6146 18.9194C32.4081 37.2276 26.8743 58.4443 27.7111 79.8937C28.5479 101.343 35.7179 122.064 48.3167 139.444C60.9154 156.823 78.3787 170.082 98.5039 177.549C118.629 185.016 140.515 186.356 161.4 181.399C182.286 176.443 201.236 165.413 215.861 149.7L229.677 162.559Z" fill="#B8ECD3" stroke="#BAF2D4" strokeLinejoin="round"/>
<path d="M221.343 -19.5832L338.693 97.7662L323.386 107.97L206.037 -7.67823L221.343 -19.5832Z" fill="#B8ECD3" stroke="#BAF2D4" strokeLinejoin="round"/>
<path fill-rule="evenodd" clip-rule="evenodd" d="M202.706 135.278C202.704 135.279 202.703 135.281 202.701 135.283C198.757 139.449 194.43 143.193 189.792 146.473C180.366 153.139 169.655 157.891 158.265 160.385C141.268 164.108 123.545 162.632 107.398 156.15C91.2504 149.669 77.4259 138.48 67.7203 124.039C58.0147 109.598 52.8767 92.5721 52.9738 75.1729C53.0709 57.7737 58.3986 40.8059 68.2648 26.474C78.131 12.1422 92.0795 1.10898 108.298 -5.19212C124.516 -11.4932 142.255 -12.7709 159.209 -8.85912C170.571 -6.23765 181.228 -1.36681 190.58 5.40457C195.182 8.73747 199.469 12.5308 203.367 16.743L189.756 29.3399C180.464 19.3005 168.369 12.2874 155.04 9.21208C141.711 6.13672 127.765 7.1412 115.014 12.095C102.264 17.0488 91.2976 25.7229 83.541 36.9903C75.7844 48.2577 71.5958 61.5975 71.5194 75.2764C71.4431 88.9553 75.4825 102.341 83.1129 113.694C90.7432 125.048 101.612 133.844 114.306 138.939C127.001 144.035 140.935 145.195 154.297 142.269C167.648 139.345 179.812 132.477 189.211 122.555C189.22 122.547 189.228 122.538 189.236 122.53L202.706 135.278Z" fill="#B8ECD3" stroke="#BAF2D4" strokeLinejoin="round"/>
<path d="M202.635 16.1318L187.329 26.3361L292.773 133.481L306.379 121.576L202.635 16.1318Z" fill="#B8ECD3" stroke="#BAF2D4" strokeLinejoin="round"/>
</g>
</g>
</svg>