<svg width="463" height="395" viewBox="0 0 463 395" fill="none" xmlns="http://www.w3.org/2000/svg">
<mask id="mask0_98_1208" style="mask-type:alpha" maskUnits="userSpaceOnUse" x="0" y="0" width="463" height="395">
<rect x="0.5" y="0.5" width="462" height="394" fill="#D9D9D9" stroke="white"/>
</mask>
<g mask="url(#mask0_98_1208)">
<g opacity="0.3">
<path fill-rule="evenodd" clip-rule="evenodd" d="M447.452 409.254C438.751 419.095 428.227 427.051 416.533 432.728C410.216 435.795 403.558 438.197 396.662 439.872C377 444.646 356.347 443.28 337.486 435.957C318.624 428.634 302.46 415.706 291.171 398.915C279.882 382.124 274.01 362.277 274.347 342.046C274.684 321.816 281.213 302.175 293.055 285.769C304.896 269.363 321.482 256.98 340.576 250.289C359.671 243.598 380.358 242.92 399.85 248.346C406.687 250.249 413.261 252.871 419.473 256.147C430.971 262.21 441.224 270.512 449.593 280.637L419.232 305.734C419.229 305.731 419.227 305.727 419.224 305.724C411.465 296.341 401.016 289.56 389.286 286.294C377.552 283.027 365.098 283.436 353.603 287.464C342.108 291.492 332.123 298.946 324.995 308.823C317.866 318.699 313.936 330.523 313.733 342.702C313.53 354.881 317.065 366.829 323.861 376.937C330.657 387.045 340.388 394.828 351.742 399.236C363.097 403.645 375.53 404.467 387.367 401.593C399.203 398.719 409.874 392.286 417.943 383.161L447.452 409.254Z" fill="white" stroke="white" strokeLinejoin="round"/>
<path d="M674.033 560.674L411.373 298.014L445.633 275.174L708.293 534.027L674.033 560.674Z" fill="white" stroke="white" strokeLinejoin="round"/>
<path fill-rule="evenodd" clip-rule="evenodd" d="M578.487 542.012C569.779 551.367 560.488 560.091 550.686 568.14C517.241 595.605 477.85 615.217 435.419 625.286C380.552 638.306 323.059 634.786 270.19 615.171C217.321 595.556 171.445 560.724 138.348 515.068C105.251 469.412 86.4155 414.978 84.2172 358.63C82.0189 302.283 96.5563 246.546 125.996 198.45C155.435 150.355 198.458 112.054 249.638 88.3799C300.818 64.7055 357.863 56.7174 413.577 65.4232C456.664 72.1558 497.462 88.6395 532.946 113.415C543.313 120.654 553.227 128.601 562.612 137.219C562.64 137.245 562.669 137.272 562.698 137.298L534.109 168.403C534.084 168.38 534.059 168.357 534.034 168.334C498.672 135.86 454.491 114.576 407.055 107.164C359.585 99.746 310.981 106.552 267.375 126.723C223.768 146.894 187.112 179.527 162.028 220.506C136.945 261.485 124.559 308.974 126.432 356.983C128.305 404.993 144.353 451.372 172.553 490.272C200.752 529.172 239.84 558.85 284.885 575.563C329.931 592.275 378.917 595.274 425.665 584.181C472.413 573.087 514.828 548.399 547.562 513.229L578.487 542.012Z" fill="white" stroke="white" strokeLinejoin="round"/>
<path fill-rule="evenodd" clip-rule="evenodd" d="M518.117 480.948C518.114 480.952 518.11 480.955 518.107 480.959C509.28 490.284 499.595 498.664 489.214 506.005C468.115 520.927 444.141 531.562 418.646 537.146C380.603 545.477 340.933 542.175 304.792 527.667C268.65 513.159 237.707 488.117 215.983 455.794C194.26 423.471 182.759 385.361 182.977 346.417C183.194 307.473 195.119 269.494 217.202 237.416C239.285 205.337 270.506 180.642 306.807 166.538C343.108 152.435 382.812 149.575 420.76 158.33C446.191 164.198 470.045 175.1 490.976 190.256C501.278 197.716 510.873 206.207 519.598 215.635L489.132 243.83C468.335 221.359 441.262 205.662 411.428 198.779C381.594 191.895 350.379 194.143 321.84 205.231C293.301 216.319 268.756 235.734 251.394 260.954C234.033 286.173 224.658 316.031 224.487 346.649C224.316 377.266 233.357 407.227 250.436 432.638C267.515 458.05 291.842 477.738 320.256 489.144C348.669 500.549 379.857 503.146 409.766 496.596C439.649 490.051 466.875 474.678 487.913 452.472C487.932 452.453 487.95 452.433 487.968 452.414L518.117 480.948Z" fill="white" stroke="white" strokeLinejoin="round"/>
</g>
</g>
</svg>