<svg width="177" height="185" viewBox="0 0 177 185" fill="none" xmlns="http://www.w3.org/2000/svg">
<path d="M16.4551 119.409C15.7996 115.031 16.6649 109.355 23.1592 101.04C36.3832 84.0837 66.0769 69.5284 74.8919 76.7651C84.7411 84.8382 87.8364 129.85 79.9563 151.345C78.7738 154.574 74.1744 161.817 72.1091 162.749C57.4704 169.388 19.809 141.748 16.4551 119.409Z" fill="#3EA961"/>
<path d="M19.2234 113.763C16.3759 94.7412 66.2043 61.7227 77.6726 71.1196C89.1408 80.5164 89.5507 150.467 74.8949 157.105C60.2391 163.744 22.5767 136.097 19.2234 113.763Z" fill="#6EC070"/>
<path d="M82.8439 81.6564C83.7822 88.8082 88.5788 136.086 75.3076 150.599C69.5068 156.935 60.4406 153.782 53.2903 151.611C51.2364 150.983 49.2165 150.255 47.2514 149.451C57.6703 156.355 68.4799 160.009 74.9045 157.104C86.8595 151.685 88.7815 104.071 82.8439 81.6564Z" fill="#4EBA51"/>
<path d="M70.7311 149.796C59.7495 151.44 30.0402 130.002 27.4251 112.533C27.0236 109.851 30.5104 102.475 41.7655 93.1495C51.3178 85.2311 63.0522 78.9442 70.3006 77.8592C71.0638 77.7269 71.8408 77.6925 72.6126 77.7566C75.594 81.7334 79.032 101.639 77.4058 124.046C76.14 141.497 72.5909 148.424 71.2906 149.688C71.1073 149.739 70.9202 149.775 70.7311 149.796Z" fill="#EAEDD3"/>
<path d="M45.6489 100.779C45.6489 100.779 51.5238 96.1485 56.1789 93.6468C56.1789 93.6468 59.016 100.931 61.4046 108.491C61.4046 108.491 68.0455 104.789 70.8901 103.252C70.8901 103.252 72.8043 109.493 72.7206 115.48L65.0698 120.374C65.0698 120.374 66.9595 125.6 68.7394 133.759L61.1563 138.335C61.1563 138.335 58.1556 128.355 56.2609 125.027L48.2414 130.256C48.2414 130.256 42.9452 123.827 41.8629 120.377L52.1488 113.94C52.1488 113.94 47.9485 104.047 45.6489 100.779Z" fill="#3EA961"/>
<g style="mix-blend-mode:overlay">
<path d="M66.2498 121.727C72.5952 112.45 78.2452 95.2708 71.5431 86.0616C68.5754 81.9805 58.1534 85.8569 54.4578 87.6816C43.3672 93.1633 33.701 100.697 33.102 113.961C32.7283 122.249 37.6468 133.094 47.4836 133.638C55.6797 134.089 62.1012 127.792 66.2498 121.727Z" fill="#ABA59C"/>
</g>
<path d="M21.2833 104.94C21.4012 104.467 21.5448 104.019 21.6771 103.561C19.7283 107.17 18.7703 110.655 19.2354 113.761C19.5616 115.8 20.1119 117.796 20.8762 119.714C20.0167 114.66 20.1411 109.485 21.2833 104.94Z" fill="#9AC847"/>
<path d="M95.3645 106.773C97.7783 106.412 99.4439 104.174 99.0846 101.774C98.7254 99.3742 96.4774 97.7217 94.0636 98.083C91.6498 98.4444 89.9842 100.683 90.3435 103.082C90.7027 105.482 92.9507 107.135 95.3645 106.773Z" fill="#3EA961"/>
<path d="M29.3595 154.961C29.4166 155.343 29.3586 155.733 29.1929 156.082C29.0271 156.432 28.761 156.724 28.4282 156.923C28.0954 157.123 27.7109 157.219 27.3232 157.201C26.9356 157.183 26.5623 157.051 26.2504 156.822C25.9386 156.592 25.7023 156.276 25.5713 155.913C25.4404 155.55 25.4208 155.156 25.5149 154.782C25.609 154.407 25.8127 154.069 26.1001 153.809C26.3875 153.549 26.7459 153.38 27.1297 153.322C27.6445 153.245 28.1686 153.375 28.5867 153.682C29.0049 153.989 29.2829 154.45 29.3595 154.961Z" fill="#3EA961"/>
<path d="M20.174 139.666C20.2987 136.832 18.0896 134.438 15.2398 134.319C12.3901 134.2 9.97881 136.401 9.85415 139.235C9.72948 142.069 11.9386 144.463 14.7884 144.582C17.6381 144.701 20.0493 142.5 20.174 139.666Z" fill="#6EC070"/>
<g style="mix-blend-mode:multiply" opacity="0.2">
<path opacity="0.04" d="M124.554 184.823C104.518 184.823 88.23 182.471 88.011 179.563C88.23 176.655 104.518 174.302 124.554 174.302C144.591 174.302 160.88 176.655 161.099 179.563C160.882 182.474 144.595 184.823 124.554 184.823Z" fill="#423811"/>
<path opacity="0.08" d="M124.554 184.644C105.049 184.644 89.1485 182.375 88.7105 179.569C89.1496 176.756 105.05 174.493 124.554 174.493C144.059 174.493 159.961 176.762 160.398 179.569C159.964 182.375 144.063 184.644 124.554 184.644Z" fill="#423811"/>
<path opacity="0.12" d="M124.554 184.463C105.58 184.463 90.0659 182.272 89.4089 179.563C90.0659 176.846 105.58 174.66 124.554 174.66C143.529 174.66 159.043 176.852 159.707 179.563C159.045 182.278 143.532 184.463 124.554 184.463Z" fill="#423811"/>
<path opacity="0.15" d="M124.554 184.285C106.114 184.285 90.9844 182.182 90.1073 179.563C90.9867 176.937 106.114 174.84 124.554 174.84C142.995 174.84 158.128 176.937 159.005 179.563C158.128 182.182 143.001 184.285 124.554 184.285Z" fill="#423811"/>
<path opacity="0.19" d="M124.554 184.105C106.643 184.105 91.9031 182.086 90.807 179.562C91.9031 177.039 106.643 175.019 124.554 175.019C142.466 175.019 157.207 177.039 158.303 179.562C157.209 182.086 142.469 184.105 124.554 184.105Z" fill="#423811"/>
<path opacity="0.23" d="M124.554 183.926C107.174 183.926 92.8216 181.99 91.5054 179.563C92.8216 177.141 107.18 175.198 124.554 175.198C141.929 175.198 156.288 177.135 157.603 179.563C156.291 181.99 141.938 183.926 124.554 183.926Z" fill="#423811"/>
<path opacity="0.27" d="M124.554 183.743C107.704 183.743 93.7401 181.89 92.2049 179.558C93.7401 177.226 107.704 175.374 124.554 175.374C141.404 175.374 155.37 177.226 156.905 179.558C155.372 181.898 141.407 183.743 124.554 183.743Z" fill="#423811"/>
<path opacity="0.31" d="M124.554 183.567C108.236 183.567 94.6588 181.798 92.9046 179.562C94.6588 177.327 108.233 175.556 124.554 175.556C140.875 175.556 154.451 177.327 156.205 179.562C154.454 181.798 140.875 183.567 124.554 183.567Z" fill="#423811"/>
<path opacity="0.35" d="M124.554 183.389C108.765 183.389 95.5761 181.701 93.603 179.563C95.5761 177.423 108.767 175.737 124.554 175.737C140.342 175.737 153.533 177.423 155.507 179.563C153.535 181.701 140.344 183.389 124.554 183.389Z" fill="#423811"/>
<path opacity="0.38" d="M124.554 183.209C109.298 183.209 96.4947 181.606 94.3026 179.563C96.4924 177.519 109.298 175.916 124.554 175.916C139.81 175.916 152.615 177.519 154.807 179.563C152.617 181.606 139.813 183.209 124.554 183.209Z" fill="#423811"/>
<path opacity="0.42" d="M124.554 183.03C109.83 183.03 97.4133 181.509 95.001 179.562C97.4133 177.615 109.83 176.094 124.554 176.094C139.279 176.094 151.697 177.615 154.108 179.562C151.699 181.509 139.281 183.03 124.554 183.03Z" fill="#423811"/>
<path opacity="0.46" d="M124.554 182.851C110.361 182.851 98.3318 181.414 95.7006 179.562C98.3318 177.717 110.361 176.274 124.554 176.274C138.748 176.274 150.778 177.711 153.409 179.562C150.78 181.414 138.75 182.851 124.554 182.851Z" fill="#423811"/>
<path opacity="0.5" d="M124.554 182.671C110.892 182.671 99.2505 181.317 96.3992 179.557C99.2505 177.801 110.892 176.443 124.554 176.443C138.217 176.443 149.86 177.797 152.71 179.557C149.862 181.321 138.219 182.671 124.554 182.671Z" fill="#423811"/>
<path opacity="0.54" d="M124.554 182.492C111.423 182.492 100.169 181.224 97.0986 179.563C100.169 177.903 111.423 176.633 124.554 176.633C137.685 176.633 148.941 177.902 152.011 179.563C148.943 181.221 137.693 182.492 124.554 182.492Z" fill="#423811"/>
<path opacity="0.58" d="M124.554 182.313C111.955 182.313 101.086 181.126 97.7983 179.563C101.086 178 111.955 176.812 124.554 176.812C137.154 176.812 148.022 178 151.312 179.563C148.025 181.126 137.156 182.313 124.554 182.313Z" fill="#423811"/>
<path opacity="0.62" d="M124.554 182.134C112.486 182.134 102.005 181.029 98.4966 179.563C102.005 178.095 112.486 176.99 124.554 176.99C136.623 176.99 147.105 178.095 150.613 179.563C147.107 181.029 136.625 182.134 124.554 182.134Z" fill="#423811"/>
<path opacity="0.65" d="M124.554 181.955C113.017 181.955 102.924 180.933 99.1985 179.562C102.926 178.191 113.02 177.17 124.554 177.17C136.089 177.17 146.186 178.191 149.91 179.562C146.189 180.933 136.094 181.955 124.554 181.955Z" fill="#423811"/>
<path opacity="0.69" d="M124.554 181.775C113.549 181.775 103.842 180.837 99.8901 179.563C103.838 178.294 113.544 177.349 124.554 177.349C135.565 177.349 145.268 178.288 149.219 179.563C145.27 180.837 135.562 181.775 124.554 181.775Z" fill="#423811"/>
<path opacity="0.73" d="M124.554 181.596C114.08 181.596 104.761 180.742 100.594 179.563C104.761 178.384 114.079 177.529 124.554 177.529C135.03 177.529 144.349 178.384 148.516 179.563C144.351 180.744 135.032 181.596 124.554 181.596Z" fill="#423811"/>
<path opacity="0.77" d="M124.554 181.416C114.612 181.416 105.679 180.644 101.294 179.562C105.679 178.479 114.612 177.708 124.554 177.708C134.497 177.708 143.431 178.479 147.816 179.562C143.433 180.644 134.501 181.416 124.554 181.416Z" fill="#423811"/>
<path opacity="0.81" d="M124.554 181.238C115.143 181.238 106.597 180.546 101.992 179.563C106.597 178.576 115.143 177.887 124.554 177.887C133.966 177.887 142.512 178.579 147.118 179.563C142.514 180.549 133.969 181.238 124.554 181.238Z" fill="#423811"/>
<path opacity="0.85" d="M124.554 181.059C115.68 181.059 107.515 180.453 102.692 179.56C107.515 178.669 115.674 178.06 124.554 178.06C133.435 178.06 141.594 178.666 146.418 179.56C141.597 180.453 133.438 181.059 124.554 181.059Z" fill="#423811"/>
<path opacity="0.88" d="M124.554 180.879C116.205 180.879 108.434 180.357 103.39 179.563C108.434 178.768 116.205 178.246 124.554 178.246C132.903 178.246 140.676 178.768 145.72 179.563C140.678 180.357 132.907 180.879 124.554 180.879Z" fill="#423811"/>
<path opacity="0.92" d="M124.554 180.7C116.737 180.7 109.352 180.26 104.09 179.562C109.352 178.863 116.737 178.424 124.554 178.424C132.372 178.424 139.757 178.863 145.02 179.562C139.76 180.26 132.375 180.7 124.554 180.7Z" fill="#423811"/>
<path opacity="0.96" d="M124.554 180.521C117.268 180.521 110.271 180.164 104.788 179.562C110.271 178.96 117.268 178.604 124.554 178.604C131.841 178.604 138.839 178.96 144.32 179.562C138.846 180.167 131.844 180.521 124.554 180.521Z" fill="#423811"/>
<path d="M124.554 180.342C117.799 180.342 111.185 180.068 105.488 179.563C111.19 179.057 117.799 178.783 124.554 178.783C131.309 178.783 137.924 179.057 143.622 179.563C137.924 180.068 131.313 180.342 124.554 180.342Z" fill="#423811"/>
</g>
<path d="M156.999 139.912C156.999 139.912 158.091 136.873 149.991 133.043C149.991 133.047 149.727 137.897 156.999 139.912Z" fill="#4F3226"/>
<path d="M147.05 176.806C146.905 177.139 146.603 177.402 146.179 177.613C144.153 178.596 139.359 178.263 135.845 178.101C131.595 177.906 132.37 175.716 132.755 173.556C133.071 171.736 133.243 169.894 133.27 168.046L140.547 167.435L142.479 167.274L142.351 172.751C142.351 172.751 147.887 174.873 147.05 176.806Z" fill="#4E3A1F"/>
<path opacity="0.3" d="M147.05 176.806C146.906 177.14 146.604 177.402 146.179 177.614C146.241 175.999 143.249 175.396 143.249 175.396L141.882 174.357C140.94 173.652 140.64 169.786 140.545 167.431L142.476 167.27L142.348 172.747C142.348 172.747 147.887 174.873 147.05 176.806Z" fill="white"/>
<path d="M118.469 173.552C120.017 175.512 118.913 178.06 114.721 178.434C114.377 178.466 114.012 178.483 113.626 178.483C108.537 178.483 108.472 174.743 109.204 173.133C109.936 171.523 109.375 168.622 109.375 168.622H119.503C119.503 168.622 116.793 171.424 118.469 173.552Z" fill="#4E3A1F"/>
<path d="M114.721 178.437C114.377 178.469 114.012 178.485 113.626 178.485C108.537 178.485 108.472 174.746 109.204 173.135C109.936 171.525 109.375 168.624 109.375 168.624H111.736C111.782 169.849 111.653 172.166 110.353 174.359C108.838 176.918 111.975 178.328 114.721 178.437Z" fill="#422419"/>
<path d="M135.496 101.74C135.496 101.74 144.547 102.102 151.91 115.539L144.533 117.196L135.496 101.74Z" fill="#333F4A"/>
<path d="M155.994 120.435L148.634 122.561L144.013 117.346L151.619 115.148C151.854 115.08 152.103 115.09 152.332 115.175C152.56 115.261 152.755 115.418 152.887 115.623L155.994 120.435Z" fill="#3E6170"/>
<path d="M143.637 167.14C141.934 170.12 135.01 169.604 132.548 169.319C132.266 169.286 131.995 169.185 131.761 169.024C131.526 168.863 131.334 168.648 131.201 168.396C130.723 167.485 130.387 165.478 129.825 161.765C129.269 158.074 126.812 153.345 126.812 153.345C125.441 161.855 121.354 169.329 121.354 169.329C118.03 170.756 112.457 170.077 109.764 169.622C109.621 169.598 109.482 169.56 109.348 169.507C109.151 169.432 108.967 169.328 108.802 169.197C108.583 169.022 108.399 168.805 108.264 168.559C108.128 168.313 108.043 168.042 108.013 167.763C107.743 165.272 107.38 160.316 108.208 156.69C108.913 153.608 108.363 147.799 107.832 143.772C107.493 141.225 107.166 139.388 107.166 139.388L108.159 139.439L144.28 141.259C144.673 141.795 144.971 142.852 145.18 144.25C145.228 144.562 145.271 144.887 145.309 145.227C146.071 151.934 145.246 164.321 143.637 167.14Z" fill="#49596B"/>
<path d="M117.664 154.12H115.007C113.991 154.12 113.167 154.945 113.167 155.961V158.621C113.167 159.638 113.991 160.462 115.007 160.462H117.664C118.68 160.462 119.504 159.638 119.504 158.621V155.961C119.504 154.945 118.68 154.12 117.664 154.12Z" fill="#383940"/>
<path d="M138.658 154.12H136C134.984 154.12 134.161 154.945 134.161 155.961V158.621C134.161 159.638 134.984 160.462 136 160.462H138.658C139.674 160.462 140.497 159.638 140.497 158.621V155.961C140.497 154.945 139.674 154.12 138.658 154.12Z" fill="#383940"/>
<path d="M145.185 144.246C135.996 148.016 128.894 144.076 128.894 144.076C121.172 148.695 110.603 143.808 110.603 143.808L109.38 142.901L128.894 141.255H144.28C144.673 141.791 144.971 142.848 145.185 144.246Z" fill="#383940"/>
<path d="M132.205 118.573C132.205 125.911 131.408 134.528 128.889 143.421C123.62 146.336 115.464 145.067 111.279 144.113C109.632 143.739 104.501 144.017 104.501 144.017C105.587 139.561 105.411 133.343 105.587 129.156C105.718 126.109 105.996 123.896 105.996 123.896C106.66 122.735 103.682 121.313 104.164 120.227C106.564 114.841 107.758 111.631 107.232 108.19C106.381 102.626 102.843 102.608 102.843 102.608L103.229 101.83C107.232 98.7928 109.983 98.0592 113.167 98.3695C113.188 98.3695 116.315 98.0719 116.336 98.0742L130.39 99.5068C131.083 102.946 132.205 109.861 132.205 118.573Z" fill="#F6EB3C"/>
<path d="M145.698 142.326C143.085 143.771 140.201 144.238 137.573 144.238C135.289 144.22 133.016 143.91 130.81 143.315C130.362 143.2 129.978 143.084 129.675 142.984C129.204 142.833 128.924 142.727 128.891 142.716C129.223 141.54 129.527 140.369 129.802 139.205C129.902 138.781 129.998 138.356 130.091 137.936C130.177 137.545 130.26 137.157 130.339 136.767C130.498 136.008 130.641 135.25 130.774 134.498C130.774 134.497 130.774 134.495 130.774 134.494C130.774 134.493 130.774 134.491 130.774 134.49C130.915 133.685 131.045 132.885 131.165 132.09C131.206 131.824 131.244 131.56 131.28 131.295C131.303 131.138 131.327 130.979 131.346 130.822C131.374 130.616 131.403 130.409 131.427 130.201C132.254 123.629 132.423 116.99 131.93 110.384C131.657 106.494 131.142 102.624 130.39 98.7979L131.62 98.949L135.265 99.4011C140.02 103.117 142.608 112.098 144.015 120.891C144.502 123.911 144.845 126.906 145.092 129.657C145.727 136.815 145.698 142.326 145.698 142.326Z" fill="#F6EB3C"/>
<path d="M135.976 101.21C135.976 108.246 132.344 108.938 132.344 108.938C128.541 109.307 125.377 107.323 123.039 105.01C120.146 102.15 118.518 98.7979 118.518 98.7979L135.908 99.4818C135.954 100.096 135.977 100.672 135.976 101.21Z" fill="#FCC586"/>
<path d="M135.976 101.21C134.715 102.594 131.453 104.398 123.039 105.016C120.146 102.155 118.518 98.8035 118.518 98.8035L135.908 99.4875C135.954 100.098 135.977 100.672 135.976 101.21Z" fill="#D4905A"/>
<path d="M145.092 129.662C139.516 130.35 133.903 130.699 128.285 130.707C118.93 130.707 111.733 129.695 107.232 128.811C107.363 125.764 107.635 123.57 107.635 123.57C108.262 122.477 108.834 121.354 109.348 120.203C115.659 121.387 127.867 122.856 144.015 120.895C144.502 123.912 144.845 126.907 145.092 129.662Z" fill="#868690"/>
<path d="M120.15 99.4653C120.15 99.4653 123.285 107.458 132.344 107.587V110.25C132.344 110.25 118.86 114.287 118.52 99.4653H120.15Z" fill="#335859"/>
<path d="M130.81 143.314C130.362 143.198 129.978 143.083 129.675 142.983C129.204 142.832 128.924 142.725 128.891 142.715C129.223 141.539 129.527 140.368 129.802 139.204C129.902 138.779 129.998 138.355 130.091 137.935C130.177 137.544 130.26 137.155 130.339 136.766C130.498 136.007 130.641 135.249 130.774 134.497C130.774 134.495 130.774 134.494 130.774 134.493C130.774 134.491 130.774 134.49 130.774 134.489C130.915 133.684 131.045 132.883 131.165 132.088C131.206 131.823 131.244 131.559 131.28 131.294C131.303 131.137 131.324 130.978 131.346 130.821C131.374 130.614 131.403 130.408 131.427 130.2C132.254 123.628 132.423 116.99 131.93 110.384C132.473 110.324 133.008 110.205 133.524 110.029C134.441 118.59 134.869 132.093 130.81 143.314Z" fill="#9DA739"/>
<path d="M132.344 107.587C132.344 107.587 136.263 106.731 135.265 99.3972C135.265 99.3972 140.105 109.629 131.674 110.41L132.344 107.587Z" fill="#335859"/>
<path d="M110.876 150.724C111.393 154.416 111.292 157.086 110.354 161.382C109.836 163.756 109.237 166.878 108.802 169.198C108.583 169.023 108.399 168.807 108.264 168.56C108.128 168.314 108.043 168.044 108.013 167.764C107.743 165.273 107.38 160.318 108.208 156.691C108.913 153.609 108.363 147.801 107.832 143.773L117.661 144.518C117.661 144.518 110.362 147.031 110.876 150.724Z" fill="#383940"/>
<path d="M167.8 75.204C167.8 75.204 163.164 106.746 132.288 103.312C127.217 102.937 114.02 100.9 101.99 94.8229C101.99 94.8229 89.0526 96.9094 86.6957 87.4351L84.8793 76.5016L96.7919 66.4563L167.8 75.204Z" fill="#FCC586"/>
<path d="M74.4189 49.4273C74.4189 49.4273 76.2803 54.9973 84.7353 56.1911L83.917 44.2207L74.4189 49.4273Z" fill="#CEA22B"/>
<path d="M107.886 41.7393L107.612 44.2261C102.31 43.9631 90.7423 63.9557 86.4468 71.7437C85.4072 73.6169 84.7918 74.783 84.7918 74.783C79.7794 62.5347 82.4567 45.4303 82.655 44.2169C82.655 44.1719 82.6653 44.1488 82.6653 44.1488C92.999 40.9815 107.886 41.7393 107.886 41.7393Z" fill="#60372E"/>
<path d="M86.698 71.7437C85.6607 73.6215 85.0464 74.7876 85.0464 74.7876C80.0341 62.5392 82.7102 45.4349 82.9096 44.2214H86.3258C86.3258 44.2214 83.1978 58.6394 86.698 71.7437Z" fill="#4F3226"/>
<path d="M105.612 44.0032L102.91 57.9356L99.9718 73.0803C94.9975 72.1575 91.5421 74.0457 89.2682 76.3318C86.6542 78.9616 85.7507 81.753 85.7507 81.753C83.8582 76.927 83.6565 72.8899 83.6565 72.8899C84.99 48.7427 105.612 44.0032 105.612 44.0032Z" fill="#868690"/>
<path d="M134.762 72.1094C134.762 72.1094 130.588 73.7611 130.383 77.782L100.927 74.5051L100.435 72.114L134.762 72.1094Z" fill="#D4905A"/>
<path d="M172.78 53.1803L169.794 80.0728L153.271 78.5594L145.876 77.8824L142.9 77.6079L139.024 77.2537C139.119 76.0111 138.728 74.7803 137.933 73.8207C137.139 72.861 136.003 72.2475 134.766 72.1094C133.498 71.9678 132.227 72.3359 131.231 73.1325C130.235 73.9292 129.595 75.0892 129.454 76.3575L99.9718 73.0783C97.7532 60.2486 105.458 41.3091 105.458 41.3091L130.468 45.7198L144.839 48.2528L148.921 48.9748L160.062 50.9357L163.101 51.4709L168.67 52.4548L171.428 52.9392L172.78 53.1803Z" fill="#ED6B33"/>
<path d="M95.4814 88.7373C94.8983 88.8608 94.1076 88.9173 93.4472 88.5735C92.8709 88.276 92.5056 87.7488 92.3488 87.006C91.9708 85.2101 93.5175 84.1916 94.7104 83.6853C93.6443 83.3796 92.7972 83.3842 92.2267 83.7072C92.0441 83.8115 91.8855 83.9532 91.7612 84.1229C91.6369 84.2926 91.5496 84.4866 91.5052 84.6922C91.5011 84.7532 91.4846 84.8127 91.4566 84.8671C91.4287 84.9214 91.3899 84.9695 91.3427 85.0082C91.2955 85.047 91.2408 85.0757 91.1821 85.0925C91.1234 85.1094 91.0618 85.114 91.0013 85.1061C90.9407 85.0982 90.8824 85.078 90.8299 85.0466C90.7775 85.0153 90.732 84.9736 90.6963 84.924C90.6605 84.8744 90.6353 84.818 90.6222 84.7583C90.6091 84.6986 90.6084 84.6369 90.62 84.5769C90.6833 84.2342 90.8205 83.9094 91.0222 83.6253C91.2238 83.3412 91.485 83.1046 91.7876 82.9321C92.8248 82.3461 94.3231 82.4707 96.2513 83.2977C96.3381 83.3353 96.4107 83.3995 96.4588 83.481C96.5068 83.5625 96.5278 83.6572 96.5187 83.7514C96.5096 83.8456 96.4709 83.9345 96.4082 84.0053C96.3454 84.0761 96.2619 84.1252 96.1695 84.1455C96.1361 84.1536 92.8202 84.9056 93.2236 86.8249C93.3227 87.299 93.5302 87.6116 93.8575 87.7834C94.5306 88.1295 95.6071 87.818 95.9643 87.6681C96.0711 87.6328 96.1873 87.6391 96.2896 87.6857C96.392 87.7323 96.473 87.8158 96.5166 87.9195C96.5602 88.0233 96.5632 88.1396 96.5249 88.2454C96.4867 88.3513 96.41 88.4387 96.3101 88.4905C96.0419 88.5977 95.7646 88.6803 95.4814 88.7373Z" fill="#60372E"/>
<g opacity="0.1">
<path d="M144.833 48.2526L117.413 75.0205L102.187 73.3261L130.468 45.7219L144.833 48.2526Z" fill="white"/>
<path d="M160.052 50.9371L137.278 73.1719C136.61 72.6225 135.805 72.264 134.95 72.1342C134.094 72.0043 133.22 72.108 132.418 72.4343C131.617 72.7606 130.919 73.2973 130.397 73.9879C129.875 74.6785 129.549 75.4972 129.454 76.3577L121.739 75.4996L148.915 48.9705L160.052 50.9371Z" fill="white"/>
<path d="M168.664 52.4558L142.897 77.6077L139.021 77.2536C139.073 76.5716 138.978 75.8862 138.742 75.2443L163.095 51.4719L168.664 52.4558Z" fill="white"/>
<path d="M172.78 53.1799L171.99 60.2874L153.271 78.559L145.873 77.8819L171.422 52.9399L172.78 53.1799Z" fill="white"/>
</g>
<path d="M97.1423 51.2606L95.2867 70.3028C96.0316 70.1892 96.7842 70.1344 97.5376 70.139C97.7831 62.1952 99.8923 51.6251 100.419 49.0898C99.2784 49.7375 98.1836 50.4628 97.1423 51.2606Z" fill="#55565C"/>
<path d="M92.1068 71.1864C92.646 70.9638 93.1988 70.7757 93.7619 70.6235L95.7903 52.3657C95.1664 52.904 94.5729 53.4676 94.0096 54.0567L92.1068 71.1864Z" fill="#55565C"/>
<path d="M176.445 50.4871C176.116 53.441 170.364 54.0478 162.06 53.313C150.005 52.2438 132.568 48.3394 118.539 44.6622C104.371 40.947 91.3705 43.3773 83.207 45.9345C77.9065 47.5943 74.6495 49.306 74.4293 49.4202C74.4254 49.4211 74.4218 49.4231 74.4189 49.4259C74.4189 49.4259 78.069 21.5496 97.7255 7.67138C105.524 2.15793 115.842 -1.14667 129.451 0.367793C132.602 0.707329 135.726 1.25253 138.805 1.99991C176.61 11.2609 171.834 46.5988 171.834 46.5988C172.179 46.6356 172.52 46.6985 172.856 46.7868C176.15 47.6427 176.445 50.4871 176.445 50.4871Z" fill="#FFCC05"/>
<g style="mix-blend-mode:multiply" opacity="0.5">
<path d="M100.522 58.5095C95.4873 60.077 89.4353 64.4359 89.2682 76.3325C91.5421 74.0464 94.9974 72.1536 99.9718 73.0809C99.1984 68.6125 99.6306 63.4024 100.522 58.5095Z" fill="#868690"/>
</g>
<path d="M176.445 50.4872C176.116 53.4411 170.364 54.0478 162.06 53.3131C165.313 26.4749 149.564 9.97258 138.805 2C176.61 11.261 171.834 46.5989 171.834 46.5989C172.179 46.6357 172.52 46.6986 172.856 46.7869C176.15 47.6428 176.445 50.4872 176.445 50.4872Z" fill="#FDD935"/>
<path d="M176.445 50.487C175.638 57.7283 142.233 50.8722 118.539 44.6598C95.1727 38.5339 74.9814 49.127 74.4293 49.42C96.5258 31.8531 129.382 44.2226 148.915 48.9748C168.449 53.727 171.834 46.5987 171.834 46.5987L172.856 46.7867C176.15 47.6426 176.445 50.487 176.445 50.487Z" fill="#EEB81C"/>
<path d="M160.958 43.7024C160.881 42.0876 160.728 40.4728 160.497 38.8984L163.417 38.4785C163.656 40.1441 163.819 41.8535 163.901 43.5606L160.958 43.7024Z" fill="white"/>
<path d="M149.495 13.9727L149.394 14.0557C154.619 20.4642 158.129 27.5775 159.824 35.1948L162.706 34.5535C161.102 27.3526 157.973 20.5888 153.399 14.4064L149.495 13.9727Z" fill="white"/>
<path d="M83.207 45.9342C77.9065 47.594 74.6495 49.3057 74.4293 49.4199C74.4254 49.4209 74.4218 49.4229 74.4189 49.4257C74.4189 49.4257 78.069 21.5493 97.7255 7.67114C92.1576 14.939 84.0772 28.3742 83.207 45.9342Z" fill="#EEB81C"/>
<path d="M126.339 62.67C126.854 58.0335 125.57 54.0858 123.471 53.8525C121.373 53.6192 119.254 57.1886 118.74 61.825C118.225 66.4614 119.509 70.4091 121.607 70.6425C123.706 70.8758 125.824 67.3064 126.339 62.67Z" fill="#4E3A1F"/>
<path d="M156.67 66.044C157.184 61.4076 155.9 57.4599 153.802 57.2265C151.704 56.9932 149.585 60.5626 149.07 65.199C148.556 69.8354 149.839 73.7832 151.938 74.0165C154.036 74.2498 156.155 70.6804 156.67 66.044Z" fill="#4E3A1F"/>
<path d="M150.596 111.998H92.9196V148.935H150.596V111.998Z" fill="#152A16"/>
<path d="M148.073 146.41V114.521H95.4412V146.41H148.073Z" fill="#1C411D"/>
<path d="M114.857 127.493C115.462 127.801 116.13 127.967 116.809 127.979C117.616 127.979 118.045 127.644 118.045 127.136C118.045 126.65 117.675 126.373 116.739 126.037C115.446 125.586 114.603 124.87 114.603 123.738C114.603 122.409 115.712 121.391 117.548 121.391C118.23 121.379 118.908 121.513 119.534 121.785L119.137 123.206C118.63 122.96 118.073 122.834 117.51 122.837C116.748 122.837 116.378 123.183 116.378 123.588C116.378 124.085 116.817 124.304 117.821 124.686C119.196 125.194 119.843 125.911 119.843 127.009C119.843 128.314 118.838 129.431 116.701 129.431C115.812 129.431 114.935 129.188 114.496 128.945L114.857 127.493Z" fill="#F7B43A"/>
<path d="M125.782 127.933C125.773 128.392 125.8 128.852 125.862 129.308H124.28L124.176 128.742H124.142C123.772 129.192 123.194 129.434 122.528 129.434C121.385 129.434 120.704 128.602 120.704 127.704C120.704 126.236 122.02 125.531 124.018 125.543V125.462C124.018 125.162 123.856 124.734 122.99 124.734C122.442 124.74 121.905 124.887 121.431 125.162L121.108 124.029C121.501 123.809 122.275 123.532 123.298 123.532C125.181 123.532 125.782 124.642 125.782 125.971V127.933ZM124.073 126.638C123.151 126.627 122.432 126.846 122.432 127.528C122.432 127.979 122.733 128.199 123.124 128.199C123.325 128.2 123.521 128.138 123.684 128.022C123.848 127.906 123.971 127.742 124.037 127.552C124.06 127.453 124.072 127.352 124.071 127.251L124.073 126.638Z" fill="#F7B43A"/>
<path d="M127.364 129.307V124.951H126.629V123.657H127.369V123.438C127.369 122.756 127.576 122.004 128.084 121.542C128.522 121.126 129.134 120.976 129.643 120.976C129.958 120.971 130.273 121.009 130.579 121.091L130.509 122.443C130.326 122.388 130.135 122.361 129.943 122.363C129.367 122.363 129.123 122.814 129.123 123.368V123.657H130.255V124.951H129.13V129.307H127.364Z" fill="#F7B43A"/>
<path d="M132.341 127.043C132.398 127.771 133.114 128.117 133.934 128.117C134.462 128.124 134.989 128.046 135.493 127.887L135.723 129.077C135.071 129.323 134.378 129.445 133.68 129.436C131.763 129.436 130.666 128.315 130.666 126.546C130.666 125.114 131.556 123.53 133.519 123.53C135.343 123.53 136.036 124.951 136.036 126.35C136.036 126.582 136.016 126.814 135.978 127.042L132.341 127.043ZM134.407 125.84C134.407 125.412 134.223 124.696 133.415 124.696C132.675 124.696 132.378 125.366 132.329 125.84H134.407Z" fill="#F7B43A"/>
<path d="M139.05 122.12V123.656H140.308V124.95H139.05V126.993C139.05 127.675 139.211 127.986 139.741 127.986C139.916 127.991 140.09 127.976 140.261 127.94L140.273 129.269C139.904 129.388 139.517 129.443 139.129 129.432C138.888 129.44 138.647 129.4 138.422 129.314C138.196 129.229 137.989 129.1 137.813 128.934C137.489 128.599 137.328 128.055 137.328 127.258V124.952H136.578V123.657H137.328V122.594L139.05 122.12Z" fill="#F7B43A"/>
<path d="M142.699 123.657L143.541 126.425C143.635 126.76 143.75 127.176 143.819 127.476H143.854C143.934 127.176 144.026 126.748 144.107 126.425L144.799 123.657H146.683L145.366 127.378C144.559 129.62 144.015 130.521 143.38 131.087C142.902 131.507 142.312 131.776 141.682 131.863L141.313 130.371C141.584 130.319 141.842 130.218 142.075 130.071C142.373 129.902 142.624 129.659 142.802 129.365C142.858 129.292 142.89 129.204 142.895 129.112C142.891 129.01 142.863 128.912 142.814 128.823L140.747 123.657H142.699Z" fill="#F7B43A"/>
<path d="M119.8 132.605H124.554V134.049H121.567V135.829H124.361V137.259H121.567V140.392H119.8V132.605Z" fill="#F7B43A"/>
<path d="M127.41 133.171C127.41 133.657 127.04 134.049 126.463 134.049C125.908 134.049 125.541 133.657 125.551 133.171C125.538 132.663 125.908 132.281 126.473 132.281C127.038 132.281 127.399 132.663 127.41 133.171ZM125.597 140.394V134.742H127.353V140.394H125.597Z" fill="#F7B43A"/>
<path d="M128.761 136.603C128.761 135.771 128.738 135.228 128.715 134.742H130.227L130.285 135.78H130.331C130.62 134.96 131.313 134.613 131.856 134.613C131.979 134.608 132.103 134.616 132.226 134.636V136.3C132.071 136.26 131.912 136.241 131.752 136.243C131.105 136.243 130.666 136.589 130.551 137.132C130.527 137.262 130.515 137.394 130.516 137.525V140.392H128.761V136.603Z" fill="#F7B43A"/>
<path d="M133.137 138.856C133.602 139.114 134.12 139.261 134.651 139.284C135.181 139.284 135.401 139.1 135.401 138.81C135.401 138.521 135.227 138.382 134.569 138.163C133.402 137.77 132.955 137.134 132.964 136.476C132.964 135.412 133.864 134.615 135.263 134.615C135.811 134.606 136.354 134.717 136.855 134.939L136.544 136.153C136.167 135.952 135.748 135.841 135.32 135.829C134.893 135.829 134.651 136.002 134.651 136.29C134.651 136.555 134.869 136.695 135.562 136.937C136.636 137.307 137.087 137.85 137.099 138.682C137.099 139.734 136.266 140.52 134.651 140.52C134.019 140.532 133.393 140.393 132.826 140.115L133.137 138.856Z" fill="#F7B43A"/>
<path d="M140.124 133.206V134.742H141.381V136.037H140.124V138.083C140.124 138.764 140.285 139.076 140.815 139.076C140.99 139.081 141.164 139.065 141.335 139.03L141.347 140.36C140.978 140.478 140.591 140.533 140.203 140.521C139.962 140.529 139.722 140.489 139.496 140.404C139.27 140.319 139.063 140.19 138.887 140.024C138.563 139.69 138.402 139.146 138.402 138.348V136.041H137.652V134.747H138.402V133.684L140.124 133.206Z" fill="#F7B43A"/>
<path d="M113.061 135.207C113.061 135.207 103.787 136.988 103.732 143.691L105.498 144.152L113.422 137.538L113.061 135.207Z" fill="#4F3226"/>
<path d="M112.643 138.925L108.096 142.581L107.424 143.121C95.7697 135.137 98.6049 123.09 98.6049 123.09L100.025 123.446L109.441 125.804C107.53 127.732 112.643 138.925 112.643 138.925Z" fill="#FCC586"/>
<path d="M119.205 149.39C118.889 149.665 118.556 149.92 118.208 150.155H118.201C114.872 152.418 109.403 153.66 107.219 149.409C104.799 144.695 103.732 143.687 103.732 143.687C103.732 143.687 105.028 142.821 106.678 141.552C108.959 139.795 111.914 137.273 113.061 135.208C113.061 135.208 115.05 135.946 115.296 138.386C115.541 140.826 116.669 140.521 118.428 140.116C120.188 139.711 122.31 146.694 119.205 149.39Z" fill="#60372E"/>
<path d="M104.818 101.132C100.628 100.518 96.7585 113.184 96.4957 119.093C96.4957 119.093 105.024 124.187 110.924 123.538C110.924 123.533 114.969 102.619 104.818 101.132Z" fill="#333F4A"/>
<path d="M96.4889 116.187C96.4889 116.187 103.901 121.75 111.178 122.976L109.897 127.87C109.897 127.87 103.511 128.24 95.568 123.205C95.568 123.205 93.6663 122.363 96.4889 116.187Z" fill="#3E6170"/>
<path d="M118.201 150.158C114.872 152.421 109.403 153.663 107.219 149.413C104.799 144.699 103.732 143.691 103.732 143.691C103.732 143.691 105.028 142.824 106.678 141.556C106.333 142.619 106.145 144.588 107.623 147.414C109.965 151.886 113.588 152.52 118.201 150.158Z" fill="#4F3226"/>
<path d="M106.678 141.556C106.776 141.48 106.878 141.401 106.978 141.325C101.991 135.47 100.347 129.945 100.063 125.605C99.5119 125.364 98.9472 125.099 98.3674 124.798C98.0851 128.203 98.4089 136.024 106.003 142.066C106.219 141.904 106.444 141.734 106.678 141.556Z" fill="#D4905A"/>
<path d="M154.405 120.894L150.602 121.994V136.383L155.385 139.681C158.523 131.684 155.654 123.718 154.405 120.894Z" fill="#FCC586"/>
<path d="M150.777 146.31C149.864 146.34 148.953 146.191 148.097 145.871C146.878 145.439 145.757 144.767 144.801 143.896C142.465 141.704 144.314 136.344 145.674 136.709C147.034 137.073 147.898 137.342 148.162 135.452C148.426 133.563 149.991 133.046 149.991 133.046C150.211 133.466 150.47 133.863 150.765 134.233C151.907 135.712 153.717 137.31 155.092 138.431C155.317 138.615 155.529 138.786 155.726 138.939C156.484 139.543 156.994 139.915 156.994 139.915C156.994 139.915 156.133 140.669 154.112 144.262C153.339 145.653 152.116 146.239 150.777 146.31Z" fill="#60372E"/>
<path opacity="0.3" d="M150.777 146.31C153.705 143.697 155.726 138.94 155.726 138.94C156.484 139.543 156.994 139.916 156.994 139.916C156.994 139.916 156.133 140.67 154.112 144.263C153.339 145.654 152.116 146.24 150.777 146.31Z" fill="white"/>
<path d="M127.146 82.7566C127.146 82.7566 126.859 86.6921 127.492 90.6807C128.164 94.9485 129.88 99.2785 134.115 98.929C137.293 98.6683 139.161 95.6175 140.252 92.4028C141.529 88.638 141.739 84.6425 141.739 84.6425L127.146 82.7566Z" fill="white"/>
<path d="M127.487 90.6811C128.159 94.9489 129.875 99.2789 134.11 98.9294C137.289 98.6687 139.157 95.6179 140.247 92.4032C138.508 90.9235 136.382 89.9745 134.12 89.6693C131.858 89.364 129.556 89.7152 127.487 90.6811Z" fill="url(#paint0_radial_96_1184)"/>
<defs>
<radialGradient id="paint0_radial_96_1184" cx="0" cy="0" r="1" gradientUnits="userSpaceOnUse" gradientTransform="translate(138.602 88.8234) rotate(-149.311) scale(40.8492 40.8646)">
<stop stop-color="#F05E5E"/>
<stop offset="0.15" stop-color="#F16564"/>
<stop offset="0.36" stop-color="#F27774"/>
<stop offset="0.61" stop-color="#F5958E"/>
<stop offset="0.89" stop-color="#F9BEB2"/>
<stop offset="1" stop-color="#FBD2C3"/>
</radialGradient>
</defs>
</svg>