<svg width="279" height="149" viewBox="0 0 279 149" fill="none" xmlns="http://www.w3.org/2000/svg">
<g clip-path="url(#clip0_95_390)">
<path d="M39.9526 141.229C46.042 141.229 50.9784 136.409 50.9784 130.464C50.9784 124.518 46.042 119.698 39.9526 119.698C33.8633 119.698 28.9269 124.518 28.9269 130.464C28.9269 136.409 33.8633 141.229 39.9526 141.229Z" fill="white"/>
<path d="M21.7218 143.63C26.4604 143.63 30.3018 139.879 30.3018 135.253C30.3018 130.626 26.4604 126.875 21.7218 126.875C16.9832 126.875 13.1418 130.626 13.1418 135.253C13.1418 139.879 16.9832 143.63 21.7218 143.63Z" fill="white"/>
<path d="M122.17 147.967C122.17 147.761 122.17 147.567 122.17 147.361C122.163 145.499 121.529 143.692 120.365 142.218C119.201 140.744 117.572 139.685 115.729 139.206C113.887 138.727 111.935 138.854 110.174 139.568C108.413 140.281 106.942 141.541 105.988 143.153C105.056 142.603 103.996 142.294 102.907 142.255C101.819 142.216 100.738 142.448 99.7673 142.93C98.7963 143.411 97.9671 144.127 97.3577 145.008C96.7483 145.89 96.379 146.908 96.2844 147.967H122.17Z" fill="white"/>
<path d="M205.788 143.527L195.212 123.377C195.141 123.248 195.035 123.139 194.906 123.064C194.777 122.989 194.629 122.949 194.478 122.949C194.328 122.949 194.18 122.989 194.051 123.064C193.922 123.139 193.816 123.248 193.745 123.377L183.168 143.527C183.102 143.649 183.07 143.786 183.074 143.924C183.078 144.062 183.118 144.197 183.191 144.315C183.265 144.434 183.368 144.531 183.491 144.599C183.615 144.667 183.754 144.702 183.896 144.702H205.048C205.189 144.701 205.328 144.665 205.451 144.597C205.574 144.529 205.678 144.432 205.752 144.315C205.826 144.197 205.868 144.063 205.874 143.925C205.881 143.788 205.851 143.65 205.788 143.527Z" fill="white"/>
<path d="M98.9417 143.049L88.3655 122.9C88.2942 122.77 88.1884 122.662 88.0592 122.586C87.93 122.511 87.7823 122.471 87.6317 122.471C87.4812 122.471 87.3335 122.511 87.2043 122.586C87.0751 122.662 86.9692 122.77 86.898 122.9L76.3218 143.049C76.2555 143.172 76.2229 143.308 76.2269 143.446C76.2309 143.585 76.2715 143.719 76.3447 143.838C76.418 143.956 76.5213 144.054 76.6447 144.121C76.7681 144.189 76.9073 144.224 77.0489 144.224H98.2014C98.3427 144.223 98.4814 144.187 98.6044 144.119C98.7275 144.052 98.8309 143.955 98.905 143.837C98.979 143.72 99.0212 143.586 99.0277 143.448C99.0341 143.31 99.0045 143.173 98.9417 143.049Z" fill="white"/>
<path d="M259.846 144.211C264.629 144.211 268.506 140.426 268.506 135.756C268.506 131.087 264.629 127.301 259.846 127.301C255.064 127.301 251.187 131.087 251.187 135.756C251.187 140.426 255.064 144.211 259.846 144.211Z" fill="white"/>
<path d="M207.058 47.2571H212.068C212.266 47.2571 212.455 47.1814 212.596 47.0462C212.737 46.9109 212.818 46.7271 212.822 46.5342V36.3109C212.818 36.118 212.737 35.9341 212.596 35.7989C212.455 35.6637 212.266 35.588 212.068 35.588H207.058C206.959 35.5863 206.861 35.6037 206.77 35.6393C206.679 35.6748 206.596 35.7278 206.525 35.7951C206.455 35.8624 206.4 35.9427 206.362 36.0312C206.324 36.1198 206.304 36.2148 206.304 36.3109V46.5342C206.304 46.6302 206.324 46.7253 206.362 46.8139C206.4 46.9024 206.455 46.9827 206.525 47.05C206.596 47.1173 206.679 47.1702 206.77 47.2058C206.861 47.2414 206.959 47.2588 207.058 47.2571ZM207.798 37.0466H211.328V45.7984H207.798V37.0466Z" fill="#06120E"/>
<path d="M195.212 53.2467H200.236C200.432 53.2467 200.621 53.1705 200.759 53.0349C200.898 52.8994 200.976 52.7155 200.976 52.5238V42.3005C200.976 42.1075 200.899 41.9223 200.76 41.7847C200.622 41.6471 200.433 41.5681 200.236 41.5647H195.212C195.015 41.5681 194.826 41.6471 194.688 41.7847C194.549 41.9223 194.472 42.1075 194.472 42.3005V52.5238C194.472 52.7155 194.55 52.8994 194.689 53.0349C194.827 53.1705 195.016 53.2467 195.212 53.2467ZM195.966 43.0362H199.482V51.788H195.966V43.0362Z" fill="#06120E"/>
<path d="M207.058 65.4577H212.068C212.268 65.4577 212.46 65.3802 212.601 65.2422C212.742 65.1042 212.822 64.9171 212.822 64.722V54.5115C212.822 54.3164 212.742 54.1292 212.601 53.9913C212.46 53.8533 212.268 53.7758 212.068 53.7758H207.058C206.958 53.774 206.859 53.7918 206.767 53.8282C206.675 53.8646 206.591 53.9187 206.521 53.9874C206.45 54.056 206.395 54.1378 206.358 54.2279C206.32 54.318 206.302 54.4144 206.304 54.5115V64.722C206.302 64.8191 206.32 64.9155 206.358 65.0056C206.395 65.0956 206.45 65.1774 206.521 65.2461C206.591 65.3148 206.675 65.3689 206.767 65.4053C206.859 65.4416 206.958 65.4595 207.058 65.4577ZM207.798 55.2344H211.328V63.9991H207.798V55.2344Z" fill="#06120E"/>
<path d="M207.058 86.4853H212.068C212.268 86.4853 212.46 86.4078 212.601 86.2698C212.742 86.1318 212.822 85.9447 212.822 85.7495V75.5262C212.822 75.331 212.742 75.1439 212.601 75.0059C212.46 74.8679 212.268 74.7904 212.068 74.7904H207.058C206.958 74.7887 206.859 74.8065 206.767 74.8428C206.675 74.8792 206.591 74.9333 206.521 75.002C206.45 75.0707 206.395 75.1525 206.358 75.2425C206.32 75.3326 206.302 75.4291 206.304 75.5262V85.7366C206.3 85.8348 206.317 85.9326 206.354 86.0242C206.39 86.1158 206.445 86.1992 206.516 86.2692C206.586 86.3393 206.671 86.3946 206.764 86.4317C206.857 86.4689 206.957 86.4871 207.058 86.4853ZM207.798 76.2619H211.328V81.5801H207.798V76.2619ZM207.798 83.0517H211.328V85.0267H207.798V83.0517Z" fill="#06120E"/>
<path d="M195.212 92.3973H200.236C200.335 92.3956 200.432 92.3749 200.523 92.3364C200.614 92.2978 200.696 92.2422 200.765 92.1727C200.834 92.1032 200.888 92.0211 200.924 91.9312C200.96 91.8413 200.978 91.7453 200.976 91.6486V81.4382C200.976 81.2465 200.898 81.0626 200.759 80.9271C200.621 80.7915 200.432 80.7153 200.236 80.7153H195.212C195.016 80.7153 194.827 80.7915 194.689 80.9271C194.55 81.0626 194.472 81.2465 194.472 81.4382V91.6486C194.47 91.7453 194.488 91.8413 194.524 91.9312C194.56 92.0211 194.614 92.1032 194.683 92.1727C194.752 92.2422 194.834 92.2978 194.925 92.3364C195.016 92.3749 195.113 92.3956 195.212 92.3973ZM195.966 82.174H199.482V90.9258H195.966V82.174Z" fill="#06120E"/>
<path d="M207.058 103.163H212.068C212.267 103.159 212.457 103.081 212.597 102.944C212.738 102.806 212.818 102.621 212.822 102.427V92.2166C212.822 92.0215 212.742 91.8343 212.601 91.6963C212.46 91.5583 212.268 91.4808 212.068 91.4808H207.058C206.958 91.4791 206.859 91.4969 206.767 91.5333C206.675 91.5696 206.591 91.6238 206.521 91.6924C206.45 91.7611 206.395 91.8429 206.358 91.933C206.32 92.023 206.302 92.1195 206.304 92.2166V102.427C206.304 102.622 206.383 102.809 206.525 102.947C206.666 103.085 206.858 103.163 207.058 103.163ZM207.798 92.9395H211.328V101.704H207.798V92.9395Z" fill="#06120E"/>
<path d="M207.058 120.524H212.068C212.267 120.521 212.457 120.442 212.597 120.305C212.738 120.168 212.818 119.983 212.822 119.789V109.578C212.822 109.383 212.742 109.196 212.601 109.058C212.46 108.92 212.268 108.842 212.068 108.842H207.058C206.958 108.841 206.859 108.858 206.767 108.895C206.675 108.931 206.591 108.985 206.521 109.054C206.45 109.123 206.395 109.204 206.358 109.295C206.32 109.385 206.302 109.481 206.304 109.578V119.789C206.304 119.885 206.323 119.981 206.361 120.07C206.399 120.159 206.455 120.241 206.525 120.309C206.595 120.377 206.678 120.431 206.769 120.468C206.861 120.505 206.959 120.524 207.058 120.524ZM207.798 110.301H211.328V119.066H207.798V110.301Z" fill="#06120E"/>
<path d="M207.058 135.111H212.068C212.268 135.111 212.46 135.033 212.601 134.895C212.742 134.757 212.822 134.57 212.822 134.375V124.165C212.822 123.969 212.742 123.782 212.601 123.644C212.46 123.506 212.268 123.429 212.068 123.429H207.058C206.958 123.427 206.859 123.445 206.767 123.481C206.675 123.518 206.591 123.572 206.521 123.64C206.45 123.709 206.395 123.791 206.358 123.881C206.32 123.971 206.302 124.067 206.304 124.165V134.375C206.302 134.472 206.32 134.569 206.358 134.659C206.395 134.749 206.45 134.831 206.521 134.899C206.591 134.968 206.675 135.022 206.767 135.058C206.859 135.095 206.958 135.113 207.058 135.111ZM207.798 124.887H211.328V133.652H207.798V124.887Z" fill="#06120E"/>
<path d="M195.212 121.493H200.236C200.432 121.493 200.621 121.416 200.759 121.281C200.898 121.145 200.976 120.961 200.976 120.77V110.546C200.976 110.353 200.899 110.168 200.76 110.031C200.622 109.893 200.433 109.814 200.236 109.811H195.212C195.015 109.814 194.826 109.893 194.688 110.031C194.549 110.168 194.472 110.353 194.472 110.546V120.77C194.472 120.961 194.55 121.145 194.689 121.281C194.827 121.416 195.016 121.493 195.212 121.493ZM195.966 111.282H199.482V120.047H195.966V111.282Z" fill="#06120E"/>
<path d="M195.212 108.274H200.236C200.433 108.271 200.622 108.192 200.76 108.054C200.899 107.917 200.976 107.732 200.976 107.539V97.3154C200.976 97.1237 200.898 96.9398 200.759 96.8042C200.621 96.6687 200.432 96.5925 200.236 96.5925H195.212C195.016 96.5925 194.827 96.6687 194.689 96.8042C194.55 96.9398 194.472 97.1237 194.472 97.3154V107.539C194.472 107.732 194.549 107.917 194.688 108.054C194.826 108.192 195.015 108.271 195.212 108.274ZM195.966 98.0512H199.482V103.473H195.966V98.0512ZM195.966 104.931H199.482V106.803H195.966V104.931Z" fill="#06120E"/>
<path d="M195.212 76.2491H200.236C200.432 76.2491 200.621 76.173 200.759 76.0374C200.898 75.9018 200.976 75.718 200.976 75.5262V65.3029C200.976 65.11 200.899 64.9248 200.76 64.7872C200.622 64.6495 200.433 64.5705 200.236 64.5671H195.212C195.015 64.5705 194.826 64.6495 194.688 64.7872C194.549 64.9248 194.472 65.11 194.472 65.3029V75.5262C194.472 75.718 194.55 75.9018 194.689 76.0374C194.827 76.173 195.016 76.2491 195.212 76.2491ZM195.966 66.0258H199.482V70.2984H195.966V66.0258ZM195.966 71.7699H199.482V74.7905H195.966V71.7699Z" fill="#06120E"/>
<path d="M123.571 141.862H148.254C148.36 141.876 148.468 141.867 148.571 141.837C148.674 141.807 148.769 141.755 148.85 141.686C148.93 141.617 148.995 141.532 149.039 141.436C149.084 141.341 149.107 141.237 149.107 141.133C149.107 141.028 149.084 140.924 149.039 140.829C148.995 140.733 148.93 140.648 148.85 140.579C148.769 140.51 148.674 140.458 148.571 140.428C148.468 140.398 148.36 140.389 148.254 140.403H123.571C123.39 140.427 123.224 140.514 123.104 140.648C122.984 140.782 122.917 140.954 122.917 141.133C122.917 141.311 122.984 141.483 123.104 141.617C123.224 141.751 123.39 141.838 123.571 141.862Z" fill="#06120E"/>
<path d="M123.571 137.963H148.254C148.36 137.977 148.468 137.969 148.571 137.938C148.674 137.908 148.769 137.857 148.85 137.788C148.93 137.719 148.995 137.633 149.039 137.538C149.084 137.443 149.107 137.339 149.107 137.234C149.107 137.129 149.084 137.026 149.039 136.93C148.995 136.835 148.93 136.75 148.85 136.68C148.769 136.611 148.674 136.56 148.571 136.53C148.468 136.499 148.36 136.491 148.254 136.505H123.571C123.39 136.528 123.224 136.615 123.104 136.749C122.984 136.884 122.917 137.056 122.917 137.234C122.917 137.412 122.984 137.585 123.104 137.719C123.224 137.853 123.39 137.94 123.571 137.963Z" fill="#06120E"/>
<path d="M123.571 134.078H148.254C148.453 134.078 148.645 134 148.786 133.862C148.928 133.724 149.007 133.537 149.007 133.342C149.007 133.147 148.928 132.96 148.786 132.822C148.645 132.684 148.453 132.606 148.254 132.606H123.571C123.371 132.606 123.18 132.684 123.038 132.822C122.897 132.96 122.818 133.147 122.818 133.342C122.818 133.537 122.897 133.724 123.038 133.862C123.18 134 123.371 134.078 123.571 134.078Z" fill="#06120E"/>
<path d="M123.571 130.18H148.254C148.36 130.194 148.468 130.185 148.571 130.155C148.674 130.124 148.769 130.073 148.85 130.004C148.93 129.935 148.995 129.85 149.039 129.754C149.084 129.659 149.107 129.555 149.107 129.45C149.107 129.346 149.084 129.242 149.039 129.146C148.995 129.051 148.93 128.966 148.85 128.897C148.769 128.828 148.674 128.776 148.571 128.746C148.468 128.716 148.36 128.707 148.254 128.721H123.571C123.39 128.745 123.224 128.832 123.104 128.966C122.984 129.1 122.917 129.272 122.917 129.45C122.917 129.629 122.984 129.801 123.104 129.935C123.224 130.069 123.39 130.156 123.571 130.18Z" fill="#06120E"/>
<path d="M123.571 126.281H148.254C148.36 126.295 148.468 126.287 148.571 126.257C148.674 126.226 148.769 126.175 148.85 126.106C148.93 126.037 148.995 125.952 149.039 125.856C149.084 125.761 149.107 125.657 149.107 125.552C149.107 125.447 149.084 125.344 149.039 125.248C148.995 125.153 148.93 125.068 148.85 124.999C148.769 124.93 148.674 124.878 148.571 124.848C148.468 124.818 148.36 124.809 148.254 124.823H123.571C123.39 124.846 123.224 124.933 123.104 125.068C122.984 125.202 122.917 125.374 122.917 125.552C122.917 125.73 122.984 125.903 123.104 126.037C123.224 126.171 123.39 126.258 123.571 126.281Z" fill="#06120E"/>
<path d="M123.571 122.396H148.254C148.453 122.396 148.645 122.319 148.786 122.181C148.928 122.043 149.007 121.855 149.007 121.66C149.007 121.465 148.928 121.278 148.786 121.14C148.645 121.002 148.453 120.925 148.254 120.925H123.571C123.371 120.925 123.18 121.002 123.038 121.14C122.897 121.278 122.818 121.465 122.818 121.66C122.818 121.855 122.897 122.043 123.038 122.181C123.18 122.319 123.371 122.396 123.571 122.396Z" fill="#06120E"/>
<path d="M123.571 118.498H148.254C148.36 118.512 148.468 118.503 148.571 118.473C148.674 118.443 148.769 118.391 148.85 118.322C148.93 118.253 148.995 118.168 149.039 118.072C149.084 117.977 149.107 117.873 149.107 117.768C149.107 117.664 149.084 117.56 149.039 117.465C148.995 117.369 148.93 117.284 148.85 117.215C148.769 117.146 148.674 117.094 148.571 117.064C148.468 117.034 148.36 117.025 148.254 117.039H123.571C123.39 117.063 123.224 117.15 123.104 117.284C122.984 117.418 122.917 117.59 122.917 117.768C122.917 117.947 122.984 118.119 123.104 118.253C123.224 118.387 123.39 118.474 123.571 118.498Z" fill="#06120E"/>
<path d="M123.571 114.6H148.254C148.36 114.613 148.468 114.605 148.571 114.575C148.674 114.544 148.769 114.493 148.85 114.424C148.93 114.355 148.995 114.27 149.039 114.174C149.084 114.079 149.107 113.975 149.107 113.87C149.107 113.765 149.084 113.662 149.039 113.566C148.995 113.471 148.93 113.386 148.85 113.317C148.769 113.248 148.674 113.196 148.571 113.166C148.468 113.136 148.36 113.127 148.254 113.141H123.571C123.39 113.165 123.224 113.251 123.104 113.386C122.984 113.52 122.917 113.692 122.917 113.87C122.917 114.049 122.984 114.221 123.104 114.355C123.224 114.489 123.39 114.576 123.571 114.6Z" fill="#06120E"/>
<path d="M123.571 110.701H148.254C148.451 110.701 148.641 110.626 148.782 110.49C148.923 110.355 149.004 110.171 149.007 109.978C149.004 109.784 148.923 109.599 148.783 109.462C148.642 109.325 148.452 109.246 148.254 109.243H123.571C123.374 109.246 123.185 109.325 123.047 109.463C122.908 109.6 122.831 109.786 122.831 109.978C122.831 110.17 122.909 110.354 123.048 110.49C123.187 110.625 123.375 110.701 123.571 110.701Z" fill="#06120E"/>
<path d="M123.571 106.816H148.254C148.452 106.812 148.642 106.734 148.783 106.597C148.923 106.459 149.004 106.274 149.007 106.08C149.004 105.887 148.923 105.703 148.782 105.568C148.641 105.433 148.451 105.357 148.254 105.357H123.571C123.375 105.357 123.187 105.433 123.048 105.569C122.909 105.704 122.831 105.888 122.831 106.08C122.831 106.273 122.908 106.458 123.047 106.596C123.185 106.733 123.374 106.812 123.571 106.816Z" fill="#06120E"/>
<path d="M123.571 102.917H148.254C148.36 102.931 148.468 102.923 148.571 102.893C148.674 102.862 148.769 102.811 148.85 102.742C148.93 102.673 148.995 102.588 149.039 102.492C149.084 102.397 149.107 102.293 149.107 102.188C149.107 102.083 149.084 101.98 149.039 101.884C148.995 101.789 148.93 101.704 148.85 101.635C148.769 101.566 148.674 101.514 148.571 101.484C148.468 101.454 148.36 101.445 148.254 101.459H123.571C123.39 101.482 123.224 101.569 123.104 101.703C122.984 101.838 122.917 102.01 122.917 102.188C122.917 102.366 122.984 102.539 123.104 102.673C123.224 102.807 123.39 102.894 123.571 102.917Z" fill="#06120E"/>
<path d="M123.571 99.0192H148.254C148.451 99.0192 148.641 98.9435 148.782 98.8083C148.923 98.6731 149.004 98.4892 149.007 98.2963C149.004 98.1022 148.923 97.917 148.783 97.7797C148.642 97.6424 148.452 97.5639 148.254 97.5605H123.571C123.374 97.5639 123.185 97.6429 123.047 97.7806C122.908 97.9182 122.831 98.1034 122.831 98.2963C122.831 98.488 122.909 98.6719 123.048 98.8075C123.187 98.943 123.375 99.0192 123.571 99.0192Z" fill="#06120E"/>
<path d="M123.571 95.1339H148.254C148.452 95.1306 148.642 95.052 148.783 94.9148C148.923 94.7775 149.004 94.5923 149.007 94.3982C149.004 94.2053 148.923 94.0214 148.782 93.8862C148.641 93.751 148.451 93.6753 148.254 93.6753H123.571C123.375 93.6753 123.187 93.7514 123.048 93.887C122.909 94.0226 122.831 94.2064 122.831 94.3982C122.831 94.5911 122.908 94.7763 123.047 94.9139C123.185 95.0515 123.374 95.1305 123.571 95.1339Z" fill="#06120E"/>
<path d="M123.571 91.2356H148.254C148.36 91.2494 148.468 91.2409 148.571 91.2106C148.674 91.1803 148.769 91.1289 148.85 91.0599C148.93 90.9908 148.995 90.9057 149.039 90.8102C149.084 90.7147 149.107 90.6111 149.107 90.5063C149.107 90.4014 149.084 90.2978 149.039 90.2023C148.995 90.1069 148.93 90.0218 148.85 89.9527C148.769 89.8836 148.674 89.8322 148.571 89.8019C148.468 89.7716 148.36 89.7631 148.254 89.777H123.571C123.39 89.8005 123.224 89.8875 123.104 90.0216C122.984 90.1557 122.917 90.328 122.917 90.5063C122.917 90.6846 122.984 90.8568 123.104 90.9909C123.224 91.1251 123.39 91.212 123.571 91.2356Z" fill="#06120E"/>
<path d="M123.571 87.3372H148.254C148.36 87.351 148.468 87.3425 148.571 87.3122C148.674 87.2819 148.769 87.2305 148.85 87.1614C148.93 87.0924 148.995 87.0073 149.039 86.9118C149.084 86.8163 149.107 86.7127 149.107 86.6078C149.107 86.503 149.084 86.3994 149.039 86.3039C148.995 86.2084 148.93 86.1233 148.85 86.0543C148.769 85.9852 148.674 85.9338 148.571 85.9035C148.468 85.8732 148.36 85.8647 148.254 85.8785H123.571C123.39 85.9021 123.224 85.989 123.104 86.1232C122.984 86.2573 122.917 86.4295 122.917 86.6078C122.917 86.7861 122.984 86.9584 123.104 87.0925C123.224 87.2267 123.39 87.3136 123.571 87.3372Z" fill="#06120E"/>
<path d="M123.571 83.4518H148.254C148.453 83.4518 148.645 83.3742 148.786 83.2363C148.928 83.0983 149.007 82.9111 149.007 82.716C149.007 82.5209 148.928 82.3337 148.786 82.1957C148.645 82.0577 148.453 81.9802 148.254 81.9802H123.571C123.371 81.9802 123.18 82.0577 123.038 82.1957C122.897 82.3337 122.818 82.5209 122.818 82.716C122.818 82.9111 122.897 83.0983 123.038 83.2363C123.18 83.3742 123.371 83.4518 123.571 83.4518Z" fill="#06120E"/>
<path d="M123.571 79.5535H148.254C148.36 79.5673 148.468 79.5588 148.571 79.5285C148.674 79.4982 148.769 79.4468 148.85 79.3777C148.93 79.3087 148.995 79.2236 149.039 79.1281C149.084 79.0326 149.107 78.929 149.107 78.8241C149.107 78.7193 149.084 78.6157 149.039 78.5202C148.995 78.4247 148.93 78.3396 148.85 78.2706C148.769 78.2015 148.674 78.1501 148.571 78.1198C148.468 78.0895 148.36 78.081 148.254 78.0948H123.571C123.39 78.1184 123.224 78.2053 123.104 78.3395C122.984 78.4736 122.917 78.6459 122.917 78.8241C122.917 79.0024 122.984 79.1747 123.104 79.3088C123.224 79.443 123.39 79.5299 123.571 79.5535Z" fill="#06120E"/>
<path d="M123.571 75.6553H148.254C148.36 75.6691 148.468 75.6606 148.571 75.6303C148.674 75.6 148.769 75.5486 148.85 75.4795C148.93 75.4105 148.995 75.3254 149.039 75.2299C149.084 75.1344 149.107 75.0308 149.107 74.926C149.107 74.8211 149.084 74.7175 149.039 74.622C148.995 74.5266 148.93 74.4414 148.85 74.3724C148.769 74.3033 148.674 74.2519 148.571 74.2216C148.468 74.1913 148.36 74.1828 148.254 74.1966H123.571C123.39 74.2202 123.224 74.3071 123.104 74.4413C122.984 74.5754 122.917 74.7477 122.917 74.926C122.917 75.1042 122.984 75.2765 123.104 75.4106C123.224 75.5448 123.39 75.6317 123.571 75.6553Z" fill="#06120E"/>
<path d="M123.571 71.7699H148.254C148.453 71.7699 148.645 71.6924 148.786 71.5544C148.928 71.4164 149.007 71.2292 149.007 71.0341C149.007 70.839 148.928 70.6518 148.786 70.5138C148.645 70.3759 148.453 70.2983 148.254 70.2983H123.571C123.371 70.2983 123.18 70.3759 123.038 70.5138C122.897 70.6518 122.818 70.839 122.818 71.0341C122.818 71.2292 122.897 71.4164 123.038 71.5544C123.18 71.6924 123.371 71.7699 123.571 71.7699Z" fill="#06120E"/>
<path d="M123.571 67.8716H148.254C148.36 67.8854 148.468 67.8769 148.571 67.8466C148.674 67.8163 148.769 67.7649 148.85 67.6958C148.93 67.6268 148.995 67.5417 149.039 67.4462C149.084 67.3507 149.107 67.2471 149.107 67.1423C149.107 67.0374 149.084 66.9338 149.039 66.8383C148.995 66.7429 148.93 66.6577 148.85 66.5887C148.769 66.5196 148.674 66.4682 148.571 66.4379C148.468 66.4076 148.36 66.3991 148.254 66.4129H123.571C123.39 66.4365 123.224 66.5234 123.104 66.6576C122.984 66.7917 122.917 66.964 122.917 67.1423C122.917 67.3206 122.984 67.4928 123.104 67.6269C123.224 67.7611 123.39 67.848 123.571 67.8716Z" fill="#06120E"/>
<path d="M123.571 63.9734H148.254C148.36 63.9872 148.468 63.9787 148.571 63.9484C148.674 63.9181 148.769 63.8667 148.85 63.7977C148.93 63.7286 148.995 63.6435 149.039 63.548C149.084 63.4525 149.107 63.3489 149.107 63.2441C149.107 63.1392 149.084 63.0356 149.039 62.9401C148.995 62.8447 148.93 62.7595 148.85 62.6905C148.769 62.6214 148.674 62.57 148.571 62.5397C148.468 62.5094 148.36 62.5009 148.254 62.5148H123.571C123.39 62.5383 123.224 62.6253 123.104 62.7594C122.984 62.8935 122.917 63.0658 122.917 63.2441C122.917 63.4224 122.984 63.5946 123.104 63.7287C123.224 63.8629 123.39 63.9498 123.571 63.9734Z" fill="#06120E"/>
<path d="M123.571 60.0751H148.254C148.451 60.0751 148.641 59.9994 148.782 59.8642C148.923 59.729 149.004 59.5451 149.007 59.3522C149.004 59.1581 148.923 58.9729 148.783 58.8356C148.642 58.6984 148.452 58.6198 148.254 58.6165H123.571C123.374 58.6198 123.185 58.6989 123.047 58.8365C122.908 58.9741 122.831 59.1593 122.831 59.3522C122.831 59.5439 122.909 59.7278 123.048 59.8634C123.187 59.9989 123.375 60.0751 123.571 60.0751Z" fill="#06120E"/>
<path d="M123.571 56.1896H148.254C148.452 56.1863 148.642 56.1077 148.783 55.9704C148.923 55.8331 149.004 55.6479 149.007 55.4538C149.004 55.2609 148.923 55.0771 148.782 54.9419C148.641 54.8067 148.451 54.7309 148.254 54.731H123.571C123.375 54.731 123.187 54.8071 123.048 54.9427C122.909 55.0782 122.831 55.2621 122.831 55.4538C122.831 55.6467 122.908 55.832 123.047 55.9696C123.185 56.1072 123.374 56.1862 123.571 56.1896Z" fill="#06120E"/>
<path d="M123.571 52.2913H148.254C148.36 52.3051 148.468 52.2966 148.571 52.2663C148.674 52.236 148.769 52.1846 148.85 52.1155C148.93 52.0465 148.995 51.9614 149.039 51.8659C149.084 51.7704 149.107 51.6668 149.107 51.5619C149.107 51.4571 149.084 51.3535 149.039 51.258C148.995 51.1625 148.93 51.0774 148.85 51.0084C148.769 50.9393 148.674 50.8879 148.571 50.8576C148.468 50.8273 148.36 50.8188 148.254 50.8326H123.571C123.39 50.8562 123.224 50.9431 123.104 51.0773C122.984 51.2114 122.917 51.3836 122.917 51.5619C122.917 51.7402 122.984 51.9125 123.104 52.0466C123.224 52.1808 123.39 52.2677 123.571 52.2913Z" fill="#06120E"/>
<path d="M123.571 48.393H148.254C148.451 48.393 148.641 48.3172 148.782 48.182C148.923 48.0468 149.004 47.863 149.007 47.6701C149.004 47.476 148.923 47.2908 148.783 47.1535C148.642 47.0162 148.452 46.9376 148.254 46.9343H123.571C123.374 46.9377 123.185 47.0167 123.047 47.1543C122.908 47.292 122.831 47.4772 122.831 47.6701C122.831 47.8618 122.909 48.0457 123.048 48.1812C123.187 48.3168 123.375 48.393 123.571 48.393Z" fill="#06120E"/>
<path d="M123.571 44.5077H148.254C148.452 44.5044 148.642 44.4258 148.783 44.2885C148.923 44.1513 149.004 43.966 149.007 43.7719C149.004 43.579 148.923 43.3952 148.782 43.26C148.641 43.1248 148.451 43.049 148.254 43.0491H123.571C123.375 43.0491 123.187 43.1252 123.048 43.2608C122.909 43.3964 122.831 43.5802 122.831 43.7719C122.831 43.9649 122.908 44.1501 123.047 44.2877C123.185 44.4253 123.374 44.5043 123.571 44.5077Z" fill="#06120E"/>
<path d="M112.03 134.556H115.996C116.094 134.557 116.192 134.54 116.283 134.504C116.375 134.469 116.458 134.416 116.528 134.349C116.598 134.281 116.654 134.201 116.692 134.112C116.73 134.024 116.75 133.929 116.75 133.833V68.2718C116.75 68.1758 116.73 68.0807 116.692 67.9922C116.654 67.9036 116.598 67.8233 116.528 67.756C116.458 67.6888 116.375 67.6358 116.283 67.6002C116.192 67.5647 116.094 67.5472 115.996 67.5489H112.03C111.932 67.5472 111.834 67.5647 111.742 67.6002C111.651 67.6358 111.568 67.6888 111.498 67.756C111.428 67.8233 111.372 67.9036 111.334 67.9922C111.296 68.0807 111.276 68.1758 111.276 68.2718V133.833C111.276 133.929 111.296 134.024 111.334 134.112C111.372 134.201 111.428 134.281 111.498 134.349C111.568 134.416 111.651 134.469 111.742 134.504C111.834 134.54 111.932 134.557 112.03 134.556ZM112.77 69.0076H115.269V72.88H112.77V69.0076ZM112.77 75.6553H115.269V78.237H112.77V75.6553ZM112.77 81.0122H115.269V83.5939H112.77V81.0122ZM112.77 86.3692H115.269V88.9508H112.77V86.3692ZM112.77 91.7261H115.269V94.3078H112.77V91.7261ZM112.77 97.083H115.269V99.6647H112.77V97.083ZM112.77 102.427H115.269V105.009H112.77V102.427ZM112.77 107.784H115.269V110.366H112.77V107.784ZM112.77 113.141H115.269V115.723H112.77V113.141ZM112.77 118.498H115.269V121.079H112.77V118.498ZM112.77 123.855H115.269V126.436H112.77V123.855ZM112.77 129.199H115.269V133.071H112.77V129.199Z" fill="#06120E"/>
<path d="M104.547 134.556H108.513C108.71 134.556 108.898 134.479 109.037 134.344C109.176 134.208 109.254 134.024 109.254 133.833V68.2717C109.254 68.1768 109.234 68.0828 109.197 67.9951C109.16 67.9074 109.105 67.8277 109.037 67.7605C108.968 67.6934 108.886 67.6402 108.797 67.6039C108.707 67.5675 108.61 67.5488 108.513 67.5488H104.547C104.35 67.5488 104.16 67.6245 104.019 67.7597C103.878 67.8949 103.797 68.0788 103.794 68.2717V133.833C103.797 134.026 103.878 134.209 104.019 134.345C104.16 134.48 104.35 134.556 104.547 134.556ZM105.301 69.0075H107.786V72.8799H105.301V69.0075ZM105.301 75.6552H107.786V78.2369H105.301V75.6552ZM105.301 81.0121H107.786V83.5938H105.301V81.0121ZM105.301 86.3691H107.786V88.9507H105.301V86.3691ZM105.301 91.726H107.786V94.3076H105.301V91.726ZM105.301 97.0829H107.786V99.6646H105.301V97.0829ZM105.301 102.427H107.786V105.009H105.301V102.427ZM105.301 107.784H107.786V110.366H105.301V107.784ZM105.301 113.141H107.786V115.722H105.301V113.141ZM105.301 118.498H107.786V121.079H105.301V118.498ZM105.301 123.855H107.786V126.436H105.301V123.855ZM105.301 129.199H107.786V133.071H105.301V129.199Z" fill="#06120E"/>
<path d="M97.0644 134.556H101.031C101.228 134.556 101.418 134.48 101.559 134.345C101.7 134.209 101.781 134.026 101.784 133.833V68.2717C101.781 68.0788 101.7 67.8949 101.559 67.7597C101.418 67.6245 101.228 67.5488 101.031 67.5488H97.0644C96.9672 67.5488 96.8709 67.5675 96.7811 67.6039C96.6913 67.6402 96.6097 67.6934 96.5409 67.7605C96.4722 67.8277 96.4177 67.9074 96.3805 67.9951C96.3433 68.0828 96.3241 68.1768 96.3241 68.2717V133.833C96.3241 134.024 96.4021 134.208 96.5409 134.344C96.6798 134.479 96.8681 134.556 97.0644 134.556ZM97.8577 69.0075H100.343V72.8799H97.8577V69.0075ZM97.8577 75.6552H100.343V78.2369H97.8577V75.6552ZM97.8577 81.0121H100.343V83.5938H97.8577V81.0121ZM97.8577 86.3691H100.343V88.9507H97.8577V86.3691ZM97.8577 91.726H100.343V94.3076H97.8577V91.726ZM97.8577 97.0829H100.343V99.6646H97.8577V97.0829ZM97.8577 102.427H100.343V105.009H97.8577V102.427ZM97.8577 107.784H100.343V110.366H97.8577V107.784ZM97.8577 113.141H100.343V115.722H97.8577V113.141ZM97.8577 118.498H100.343V121.079H97.8577V118.498ZM97.8577 123.919H100.343V126.501H97.8577V123.919ZM97.8577 129.263H100.343V133.136H97.8577V129.263Z" fill="#06120E"/>
<path d="M89.595 118.498H93.5611C93.6605 118.5 93.7593 118.482 93.8516 118.445C93.9438 118.409 94.0276 118.355 94.0979 118.286C94.1683 118.218 94.2237 118.136 94.2609 118.046C94.2982 117.956 94.3164 117.859 94.3146 117.762V68.2718C94.3147 68.1758 94.2951 68.0807 94.257 67.9922C94.219 67.9036 94.1633 67.8233 94.0931 67.756C94.023 67.6888 93.9398 67.6358 93.8485 67.6002C93.7571 67.5647 93.6594 67.5472 93.5611 67.5489H89.595C89.4967 67.5472 89.399 67.5647 89.3076 67.6002C89.2163 67.6358 89.1331 67.6888 89.0629 67.756C88.9928 67.8233 88.9371 67.9036 88.899 67.9922C88.861 68.0807 88.8414 68.1758 88.8414 68.2718V117.762C88.8396 117.859 88.8579 117.956 88.8951 118.046C88.9324 118.136 88.9878 118.218 89.0581 118.286C89.1285 118.355 89.2123 118.409 89.3045 118.445C89.3967 118.482 89.4955 118.5 89.595 118.498ZM90.3353 69.0076H92.834V72.88H90.3353V69.0076ZM90.3353 75.6553H92.834V78.237H90.3353V75.6553ZM90.3353 81.0122H92.834V83.5939H90.3353V81.0122ZM90.3353 86.3692H92.834V88.9508H90.3353V86.3692ZM90.3353 91.7261H92.834V94.3078H90.3353V91.7261ZM90.3353 97.083H92.834V99.6647H90.3353V97.083ZM90.3353 102.427H92.834V105.009H90.3353V102.427ZM90.3353 107.784H92.834V110.366H90.3353V107.784ZM90.3353 113.141H92.834V117.013H90.3353V113.141Z" fill="#06120E"/>
<path d="M69.976 136.04C69.7785 136.043 69.5902 136.122 69.4517 136.26C69.3132 136.398 69.2356 136.583 69.2357 136.776V139.771C69.2215 139.874 69.2302 139.98 69.2612 140.08C69.2923 140.181 69.3449 140.274 69.4157 140.352C69.4864 140.431 69.5736 140.495 69.6713 140.538C69.7691 140.581 69.8753 140.604 69.9826 140.604C70.09 140.604 70.1961 140.581 70.2939 140.538C70.3917 140.495 70.4789 140.431 70.5496 140.352C70.6203 140.274 70.673 140.181 70.704 140.08C70.735 139.98 70.7438 139.874 70.7296 139.771V136.827C70.7368 136.727 70.7227 136.625 70.6881 136.53C70.6535 136.435 70.5992 136.347 70.5285 136.273C70.4578 136.2 70.3722 136.141 70.2771 136.101C70.1821 136.06 70.0796 136.04 69.976 136.04Z" fill="#06120E"/>
<path d="M66.4858 136.04C66.2883 136.043 66.1 136.122 65.9615 136.26C65.823 136.398 65.7455 136.583 65.7455 136.776V139.771C65.7313 139.874 65.74 139.98 65.7711 140.08C65.8021 140.181 65.8548 140.274 65.9255 140.352C65.9962 140.431 66.0834 140.495 66.1812 140.538C66.279 140.581 66.3851 140.604 66.4925 140.604C66.5998 140.604 66.706 140.581 66.8037 140.538C66.9015 140.495 66.9887 140.431 67.0594 140.352C67.1301 140.274 67.1828 140.181 67.2138 140.08C67.2449 139.98 67.2536 139.874 67.2394 139.771V136.827C67.2467 136.727 67.2326 136.625 67.198 136.53C67.1634 136.435 67.109 136.347 67.0383 136.273C66.9676 136.2 66.882 136.141 66.787 136.101C66.6919 136.06 66.5894 136.04 66.4858 136.04Z" fill="#06120E"/>
<path d="M73.4662 129.225C73.2686 129.228 73.0803 129.307 72.9419 129.445C72.8034 129.582 72.7258 129.767 72.7258 129.96V132.955C72.7117 133.059 72.7204 133.165 72.7514 133.265C72.7825 133.365 72.8351 133.458 72.9058 133.537C72.9766 133.616 73.0637 133.679 73.1615 133.722C73.2593 133.766 73.3654 133.788 73.4728 133.788C73.5802 133.788 73.6863 133.766 73.7841 133.722C73.8819 133.679 73.969 133.616 74.0398 133.537C74.1105 133.458 74.1631 133.365 74.1942 133.265C74.2252 133.165 74.2339 133.059 74.2197 132.955V129.96C74.2197 129.765 74.1404 129.578 73.999 129.44C73.8577 129.302 73.666 129.225 73.4662 129.225Z" fill="#06120E"/>
<path d="M69.976 129.225C69.7785 129.228 69.5902 129.307 69.4517 129.445C69.3132 129.582 69.2356 129.767 69.2357 129.96V132.955C69.2215 133.059 69.2302 133.165 69.2612 133.265C69.2923 133.365 69.3449 133.458 69.4157 133.537C69.4864 133.616 69.5736 133.679 69.6713 133.722C69.7691 133.766 69.8753 133.788 69.9826 133.788C70.09 133.788 70.1961 133.766 70.2939 133.722C70.3917 133.679 70.4789 133.616 70.5496 133.537C70.6203 133.458 70.673 133.365 70.704 133.265C70.735 133.165 70.7438 133.059 70.7296 132.955V129.96C70.7296 129.765 70.6502 129.578 70.5089 129.44C70.3675 129.302 70.1759 129.225 69.976 129.225Z" fill="#06120E"/>
<path d="M66.4858 129.225C66.2883 129.228 66.1 129.307 65.9615 129.445C65.823 129.582 65.7455 129.767 65.7455 129.96V132.955C65.7313 133.059 65.74 133.165 65.7711 133.265C65.8021 133.365 65.8548 133.458 65.9255 133.537C65.9962 133.616 66.0834 133.679 66.1812 133.722C66.279 133.766 66.3851 133.788 66.4925 133.788C66.5998 133.788 66.706 133.766 66.8037 133.722C66.9015 133.679 66.9887 133.616 67.0594 133.537C67.1301 133.458 67.1828 133.365 67.2138 133.265C67.2449 133.165 67.2536 133.059 67.2394 132.955V129.96C67.2394 129.765 67.16 129.578 67.0187 129.44C66.8774 129.302 66.6857 129.225 66.4858 129.225Z" fill="#06120E"/>
<path d="M76.9563 122.409C76.7588 122.412 76.5705 122.491 76.432 122.629C76.2935 122.767 76.216 122.952 76.216 123.145V126.152C76.2401 126.329 76.3292 126.491 76.4666 126.609C76.604 126.726 76.7803 126.791 76.9629 126.791C77.1456 126.791 77.3219 126.726 77.4593 126.609C77.5967 126.491 77.6858 126.329 77.7099 126.152V123.145C77.7099 122.95 77.6305 122.762 77.4892 122.624C77.3479 122.486 77.1562 122.409 76.9563 122.409Z" fill="#06120E"/>
<path d="M73.4662 122.409C73.2686 122.412 73.0803 122.491 72.9418 122.629C72.8034 122.767 72.7258 122.952 72.7258 123.145V126.152C72.75 126.329 72.839 126.491 72.9764 126.609C73.1138 126.726 73.2902 126.791 73.4728 126.791C73.6554 126.791 73.8318 126.726 73.9692 126.609C74.1066 126.491 74.1956 126.329 74.2197 126.152V123.145C74.2197 122.95 74.1403 122.762 73.999 122.624C73.8577 122.486 73.666 122.409 73.4662 122.409Z" fill="#06120E"/>
<path d="M69.976 122.409C69.7784 122.412 69.5901 122.491 69.4517 122.629C69.3132 122.767 69.2356 122.952 69.2357 123.145V126.152C69.2598 126.329 69.3488 126.491 69.4862 126.609C69.6236 126.726 69.8 126.791 69.9826 126.791C70.1652 126.791 70.3416 126.726 70.479 126.609C70.6164 126.491 70.7054 126.329 70.7296 126.152V123.145C70.7296 122.95 70.6502 122.762 70.5088 122.624C70.3675 122.486 70.1759 122.409 69.976 122.409Z" fill="#06120E"/>
<path d="M66.4858 122.409C66.2883 122.412 66.1 122.491 65.9615 122.629C65.823 122.767 65.7455 122.952 65.7455 123.145V126.152C65.7696 126.329 65.8587 126.491 65.996 126.609C66.1334 126.726 66.3098 126.791 66.4924 126.791C66.675 126.791 66.8514 126.726 66.9888 126.609C67.1262 126.491 67.2152 126.329 67.2394 126.152V123.145C67.2394 122.95 67.16 122.762 67.0187 122.624C66.8773 122.486 66.6857 122.409 66.4858 122.409Z" fill="#06120E"/>
<path d="M80.4465 115.594C80.249 115.597 80.0607 115.676 79.9222 115.814C79.7837 115.951 79.7061 116.136 79.7062 116.329V119.337C79.7062 119.529 79.7842 119.712 79.923 119.848C80.0619 119.984 80.2502 120.06 80.4465 120.06C80.6441 120.06 80.8338 119.984 80.9747 119.849C81.1157 119.714 81.1966 119.53 81.2001 119.337V116.329C81.1967 116.135 81.1162 115.95 80.9756 115.813C80.835 115.675 80.6453 115.597 80.4465 115.594Z" fill="#06120E"/>
<path d="M76.9563 115.594C76.7588 115.597 76.5705 115.676 76.432 115.814C76.2935 115.951 76.216 116.136 76.216 116.329V119.337C76.2401 119.514 76.3292 119.676 76.4666 119.793C76.604 119.911 76.7803 119.975 76.9629 119.975C77.1456 119.975 77.3219 119.911 77.4593 119.793C77.5967 119.676 77.6858 119.514 77.7099 119.337V116.329C77.7099 116.233 77.6904 116.137 77.6525 116.048C77.6147 115.958 77.5592 115.877 77.4892 115.809C77.4192 115.741 77.3361 115.686 77.2447 115.65C77.1533 115.613 77.0553 115.594 76.9563 115.594Z" fill="#06120E"/>
<path d="M73.4662 115.594C73.2686 115.597 73.0803 115.676 72.9418 115.814C72.8034 115.951 72.7258 116.136 72.7258 116.329V119.337C72.75 119.514 72.839 119.676 72.9764 119.793C73.1138 119.911 73.2902 119.975 73.4728 119.975C73.6554 119.975 73.8318 119.911 73.9692 119.793C74.1066 119.676 74.1956 119.514 74.2197 119.337V116.329C74.2197 116.233 74.2002 116.137 74.1624 116.048C74.1245 115.958 74.069 115.877 73.999 115.809C73.929 115.741 73.846 115.686 73.7545 115.65C73.6631 115.613 73.5651 115.594 73.4662 115.594Z" fill="#06120E"/>
<path d="M69.976 115.594C69.7784 115.597 69.5901 115.676 69.4517 115.814C69.3132 115.951 69.2356 116.136 69.2357 116.329V119.337C69.2598 119.514 69.3488 119.676 69.4862 119.793C69.6236 119.911 69.8 119.975 69.9826 119.975C70.1652 119.975 70.3416 119.911 70.479 119.793C70.6164 119.676 70.7054 119.514 70.7296 119.337V116.329C70.7296 116.233 70.7101 116.137 70.6722 116.048C70.6343 115.958 70.5788 115.877 70.5088 115.809C70.4389 115.741 70.3558 115.686 70.2644 115.65C70.1729 115.613 70.075 115.594 69.976 115.594Z" fill="#06120E"/>
<path d="M66.4858 115.594C66.2883 115.597 66.1 115.676 65.9615 115.814C65.823 115.951 65.7455 116.136 65.7455 116.329V119.337C65.7696 119.514 65.8587 119.676 65.996 119.793C66.1334 119.911 66.3098 119.975 66.4924 119.975C66.675 119.975 66.8514 119.911 66.9888 119.793C67.1262 119.676 67.2152 119.514 67.2394 119.337V116.329C67.2394 116.233 67.2199 116.137 67.182 116.048C67.1442 115.958 67.0886 115.877 67.0187 115.809C66.9487 115.741 66.8656 115.686 66.7742 115.65C66.6828 115.613 66.5848 115.594 66.4858 115.594Z" fill="#06120E"/>
<path d="M80.4465 108.791C80.2502 108.791 80.0619 108.867 79.923 109.002C79.7842 109.138 79.7062 109.322 79.7062 109.514V112.521C79.7062 112.713 79.7842 112.897 79.923 113.032C80.0619 113.168 80.2502 113.244 80.4465 113.244C80.6441 113.244 80.8338 113.168 80.9747 113.033C81.1157 112.898 81.1966 112.714 81.2001 112.521V109.514C81.1966 109.321 81.1157 109.137 80.9747 109.002C80.8338 108.866 80.6441 108.791 80.4465 108.791Z" fill="#06120E"/>
<path d="M76.9563 108.791C76.76 108.791 76.5717 108.867 76.4328 109.003C76.294 109.138 76.216 109.322 76.216 109.514V112.521C76.2401 112.698 76.3292 112.86 76.4666 112.978C76.604 113.095 76.7803 113.16 76.9629 113.16C77.1456 113.16 77.3219 113.095 77.4593 112.978C77.5967 112.86 77.6858 112.698 77.7099 112.521V109.514C77.7099 109.418 77.6903 109.323 77.6523 109.234C77.6143 109.146 77.5586 109.065 77.4884 108.998C77.4183 108.931 77.3351 108.878 77.2437 108.842C77.1524 108.807 77.0547 108.789 76.9563 108.791Z" fill="#06120E"/>
<path d="M73.4662 108.791C73.2698 108.791 73.0815 108.867 72.9427 109.003C72.8038 109.138 72.7258 109.322 72.7258 109.514V112.521C72.75 112.698 72.839 112.86 72.9764 112.978C73.1138 113.095 73.2902 113.16 73.4728 113.16C73.6554 113.16 73.8318 113.095 73.9692 112.978C74.1066 112.86 74.1956 112.698 74.2197 112.521V109.514C74.2197 109.418 74.2002 109.323 74.1621 109.234C74.1241 109.146 74.0684 109.065 73.9982 108.998C73.9281 108.931 73.8449 108.878 73.7535 108.842C73.6622 108.807 73.5645 108.789 73.4662 108.791Z" fill="#06120E"/>
<path d="M69.976 108.791C69.7796 108.791 69.5913 108.867 69.4525 109.003C69.3137 109.138 69.2357 109.322 69.2357 109.514V112.521C69.2598 112.698 69.3488 112.86 69.4862 112.978C69.6236 113.095 69.8 113.16 69.9826 113.16C70.1652 113.16 70.3416 113.095 70.479 112.978C70.6164 112.86 70.7054 112.698 70.7296 112.521V109.514C70.7296 109.418 70.71 109.323 70.672 109.234C70.6339 109.146 70.5782 109.065 70.5081 108.998C70.4379 108.931 70.3547 108.878 70.2634 108.842C70.172 108.807 70.0743 108.789 69.976 108.791Z" fill="#06120E"/>
<path d="M66.4858 108.791C66.2895 108.791 66.1012 108.867 65.9623 109.003C65.8235 109.138 65.7455 109.322 65.7455 109.514V112.521C65.7696 112.698 65.8587 112.86 65.996 112.978C66.1334 113.095 66.3098 113.16 66.4924 113.16C66.675 113.16 66.8514 113.095 66.9888 112.978C67.1262 112.86 67.2152 112.698 67.2394 112.521V109.514C67.2394 109.418 67.2198 109.323 67.1818 109.234C67.1438 109.146 67.088 109.065 67.0179 108.998C66.9477 108.931 66.8646 108.878 66.7732 108.842C66.6818 108.807 66.5842 108.789 66.4858 108.791Z" fill="#06120E"/>
<path d="M80.4465 101.975C80.2502 101.975 80.0619 102.051 79.923 102.187C79.7842 102.323 79.7062 102.506 79.7062 102.698V105.706C79.7062 105.898 79.7842 106.081 79.923 106.217C80.0619 106.353 80.2502 106.429 80.4465 106.429C80.6441 106.429 80.8338 106.353 80.9747 106.218C81.1157 106.083 81.1966 105.899 81.2001 105.706V102.698C81.1966 102.505 81.1157 102.321 80.9747 102.186C80.8338 102.051 80.6441 101.975 80.4465 101.975Z" fill="#06120E"/>
<path d="M76.9563 101.975C76.76 101.975 76.5717 102.051 76.4328 102.187C76.294 102.322 76.216 102.506 76.216 102.698V105.706C76.2401 105.882 76.3292 106.045 76.4666 106.162C76.604 106.279 76.7803 106.344 76.9629 106.344C77.1456 106.344 77.3219 106.279 77.4593 106.162C77.5967 106.045 77.6858 105.882 77.7099 105.706V102.698C77.7099 102.602 77.6903 102.507 77.6523 102.418C77.6143 102.33 77.5586 102.25 77.4884 102.182C77.4183 102.115 77.3351 102.062 77.2437 102.026C77.1524 101.991 77.0547 101.973 76.9563 101.975Z" fill="#06120E"/>
<path d="M73.4662 101.975C73.2698 101.975 73.0815 102.051 72.9427 102.187C72.8038 102.322 72.7258 102.506 72.7258 102.698V105.706C72.75 105.882 72.839 106.045 72.9764 106.162C73.1138 106.279 73.2902 106.344 73.4728 106.344C73.6554 106.344 73.8318 106.279 73.9692 106.162C74.1066 106.045 74.1956 105.882 74.2197 105.706V102.698C74.2197 102.602 74.2002 102.507 74.1621 102.418C74.1241 102.33 74.0684 102.25 73.9982 102.182C73.9281 102.115 73.8449 102.062 73.7535 102.026C73.6622 101.991 73.5645 101.973 73.4662 101.975Z" fill="#06120E"/>
<path d="M69.976 101.975C69.7796 101.975 69.5913 102.051 69.4525 102.187C69.3137 102.322 69.2357 102.506 69.2357 102.698V105.706C69.2598 105.882 69.3488 106.045 69.4862 106.162C69.6236 106.279 69.8 106.344 69.9826 106.344C70.1652 106.344 70.3416 106.279 70.479 106.162C70.6164 106.045 70.7054 105.882 70.7296 105.706V102.698C70.7296 102.602 70.71 102.507 70.672 102.418C70.6339 102.33 70.5782 102.25 70.5081 102.182C70.4379 102.115 70.3547 102.062 70.2634 102.026C70.172 101.991 70.0743 101.973 69.976 101.975Z" fill="#06120E"/>
<path d="M66.4858 101.975C66.2895 101.975 66.1012 102.051 65.9623 102.187C65.8235 102.322 65.7455 102.506 65.7455 102.698V105.706C65.7696 105.882 65.8587 106.045 65.996 106.162C66.1334 106.279 66.3098 106.344 66.4924 106.344C66.675 106.344 66.8514 106.279 66.9888 106.162C67.1262 106.045 67.2152 105.882 67.2394 105.706V102.698C67.2394 102.602 67.2198 102.507 67.1818 102.418C67.1438 102.33 67.088 102.25 67.0179 102.182C66.9477 102.115 66.8646 102.062 66.7732 102.026C66.6818 101.991 66.5842 101.973 66.4858 101.975Z" fill="#06120E"/>
<path d="M80.4465 95.1597C80.2502 95.1597 80.0619 95.2358 79.923 95.3714C79.7842 95.5069 79.7062 95.6908 79.7062 95.8825V98.8902C79.7062 99.0819 79.7842 99.2657 79.923 99.4013C80.0619 99.5369 80.2502 99.613 80.4465 99.613C80.6441 99.613 80.8338 99.5373 80.9747 99.4021C81.1157 99.2669 81.1966 99.083 81.2001 98.8902V95.8825C81.1966 95.6896 81.1157 95.5058 80.9747 95.3706C80.8338 95.2354 80.6441 95.1596 80.4465 95.1597Z" fill="#06120E"/>
<path d="M76.9563 95.1598C76.76 95.1598 76.5717 95.2359 76.4328 95.3715C76.294 95.5071 76.216 95.6909 76.216 95.8826V98.8903C76.2401 99.067 76.3292 99.2292 76.4666 99.3466C76.604 99.4641 76.7803 99.5288 76.9629 99.5288C77.1456 99.5288 77.3219 99.4641 77.4593 99.3466C77.5967 99.2292 77.6858 99.067 77.7099 98.8903V95.8826C77.7099 95.7866 77.6903 95.6916 77.6523 95.603C77.6143 95.5144 77.5586 95.4342 77.4884 95.3669C77.4183 95.2996 77.3351 95.2466 77.2437 95.2111C77.1524 95.1755 77.0547 95.1581 76.9563 95.1598Z" fill="#06120E"/>
<path d="M73.4662 95.1598C73.2698 95.1598 73.0815 95.2359 72.9427 95.3715C72.8038 95.5071 72.7258 95.6909 72.7258 95.8826V98.8903C72.75 99.067 72.839 99.2292 72.9764 99.3466C73.1138 99.4641 73.2902 99.5288 73.4728 99.5288C73.6554 99.5288 73.8318 99.4641 73.9692 99.3466C74.1066 99.2292 74.1956 99.067 74.2197 98.8903V95.8826C74.2197 95.7866 74.2002 95.6916 74.1621 95.603C74.1241 95.5144 74.0684 95.4342 73.9982 95.3669C73.9281 95.2996 73.8449 95.2466 73.7535 95.2111C73.6622 95.1755 73.5645 95.1581 73.4662 95.1598Z" fill="#06120E"/>
<path d="M69.976 95.1598C69.7796 95.1598 69.5913 95.2359 69.4525 95.3715C69.3137 95.5071 69.2357 95.6909 69.2357 95.8826V98.8903C69.2598 99.067 69.3488 99.2292 69.4862 99.3466C69.6236 99.4641 69.8 99.5288 69.9826 99.5288C70.1652 99.5288 70.3416 99.4641 70.479 99.3466C70.6164 99.2292 70.7054 99.067 70.7296 98.8903V95.8826C70.7296 95.7866 70.71 95.6916 70.672 95.603C70.6339 95.5144 70.5782 95.4342 70.5081 95.3669C70.4379 95.2996 70.3547 95.2466 70.2634 95.2111C70.172 95.1755 70.0743 95.1581 69.976 95.1598Z" fill="#06120E"/>
<path d="M66.4858 95.1598C66.2895 95.1598 66.1012 95.2359 65.9623 95.3715C65.8235 95.5071 65.7455 95.6909 65.7455 95.8826V98.8903C65.7696 99.067 65.8587 99.2292 65.996 99.3466C66.1334 99.4641 66.3098 99.5288 66.4924 99.5288C66.675 99.5288 66.8514 99.4641 66.9888 99.3466C67.1262 99.2292 67.2152 99.067 67.2394 98.8903V95.8826C67.2394 95.7866 67.2198 95.6916 67.1818 95.603C67.1438 95.5144 67.088 95.4342 67.0179 95.3669C66.9477 95.2996 66.8646 95.2466 66.7732 95.2111C66.6818 95.1755 66.5842 95.1581 66.4858 95.1598Z" fill="#06120E"/>
<path d="M80.4465 88.344C80.2502 88.344 80.0619 88.4201 79.923 88.5557C79.7842 88.6913 79.7062 88.8751 79.7062 89.0669V92.0745C79.7062 92.1694 79.7253 92.2634 79.7625 92.3511C79.7997 92.4388 79.8543 92.5185 79.923 92.5856C79.9918 92.6527 80.0734 92.706 80.1632 92.7423C80.253 92.7786 80.3493 92.7973 80.4465 92.7973C80.6441 92.7974 80.8338 92.7216 80.9747 92.5864C81.1157 92.4512 81.1966 92.2674 81.2001 92.0745V89.0669C81.1966 88.874 81.1157 88.6901 80.9747 88.5549C80.8338 88.4197 80.6441 88.344 80.4465 88.344Z" fill="#06120E"/>
<path d="M76.9563 88.3441C76.76 88.3441 76.5717 88.4203 76.4328 88.5558C76.294 88.6914 76.216 88.8753 76.216 89.067V92.0746C76.2401 92.2513 76.3292 92.4135 76.4666 92.5309C76.604 92.6484 76.7803 92.7131 76.9629 92.7131C77.1456 92.7131 77.3219 92.6484 77.4593 92.5309C77.5967 92.4135 77.6858 92.2513 77.7099 92.0746V89.067C77.7099 88.9709 77.6903 88.8759 77.6523 88.7873C77.6143 88.6988 77.5586 88.6185 77.4884 88.5512C77.4183 88.4839 77.3351 88.4309 77.2437 88.3954C77.1524 88.3598 77.0547 88.3424 76.9563 88.3441Z" fill="#06120E"/>
<path d="M73.4661 88.3442C73.2721 88.3476 73.0872 88.4252 72.9512 88.5604C72.8152 88.6956 72.739 88.8776 72.739 89.0671V92.0747C72.7631 92.2514 72.8522 92.4136 72.9896 92.531C73.127 92.6485 73.3034 92.7132 73.486 92.7132C73.6686 92.7132 73.845 92.6485 73.9823 92.531C74.1197 92.4136 74.2088 92.2514 74.2329 92.0747V89.0671C74.233 88.9699 74.213 88.8738 74.1741 88.7843C74.1353 88.6949 74.0784 88.6141 74.0068 88.5466C73.9352 88.4791 73.8505 88.4264 73.7576 88.3916C73.6647 88.3569 73.5656 88.3407 73.4661 88.3442Z" fill="#06120E"/>
<path d="M69.976 88.3441C69.7796 88.3441 69.5913 88.4203 69.4525 88.5558C69.3137 88.6914 69.2357 88.8753 69.2357 89.067V92.0746C69.2598 92.2513 69.3488 92.4135 69.4862 92.5309C69.6236 92.6484 69.8 92.7131 69.9826 92.7131C70.1652 92.7131 70.3416 92.6484 70.479 92.5309C70.6164 92.4135 70.7054 92.2513 70.7296 92.0746V89.067C70.7296 88.9709 70.71 88.8759 70.672 88.7873C70.6339 88.6988 70.5782 88.6185 70.5081 88.5512C70.4379 88.4839 70.3547 88.4309 70.2634 88.3954C70.172 88.3598 70.0743 88.3424 69.976 88.3441Z" fill="#06120E"/>
<path d="M66.4858 88.3441C66.2895 88.3441 66.1012 88.4203 65.9623 88.5558C65.8235 88.6914 65.7455 88.8753 65.7455 89.067V92.0746C65.7696 92.2513 65.8587 92.4135 65.996 92.5309C66.1334 92.6484 66.3098 92.7131 66.4924 92.7131C66.675 92.7131 66.8514 92.6484 66.9888 92.5309C67.1262 92.4135 67.2152 92.2513 67.2394 92.0746V89.067C67.2394 88.9709 67.2198 88.8759 67.1818 88.7873C67.1438 88.6988 67.088 88.6185 67.0179 88.5512C66.9477 88.4839 66.8646 88.4309 66.7732 88.3954C66.6818 88.3598 66.5842 88.3424 66.4858 88.3441Z" fill="#06120E"/>
<path d="M80.4465 81.5286C80.2502 81.5286 80.0619 81.6047 79.923 81.7403C79.7842 81.8758 79.7062 82.0597 79.7062 82.2514V85.2591C79.7062 85.4508 79.7842 85.6346 79.923 85.7702C80.0619 85.9057 80.2502 85.9819 80.4465 85.9819C80.6441 85.9819 80.8338 85.9062 80.9747 85.771C81.1157 85.6358 81.1966 85.4519 81.2001 85.2591V82.2514C81.1966 82.0585 81.1157 81.8747 80.9747 81.7395C80.8338 81.6043 80.6441 81.5285 80.4465 81.5286Z" fill="#06120E"/>
<path d="M76.9563 81.5284C76.76 81.5284 76.5717 81.6046 76.4328 81.7402C76.294 81.8757 76.216 82.0596 76.216 82.2513V85.2589C76.2401 85.4357 76.3292 85.5978 76.4666 85.7153C76.604 85.8327 76.7803 85.8975 76.9629 85.8975C77.1456 85.8975 77.3219 85.8327 77.4593 85.7153C77.5967 85.5978 77.6858 85.4357 77.7099 85.2589V82.2513C77.7099 82.1553 77.6903 82.0602 77.6523 81.9717C77.6143 81.8831 77.5586 81.8028 77.4884 81.7355C77.4183 81.6682 77.3351 81.6153 77.2437 81.5797C77.1524 81.5442 77.0547 81.5267 76.9563 81.5284Z" fill="#06120E"/>
<path d="M73.4662 81.5284C73.2698 81.5284 73.0815 81.6046 72.9427 81.7402C72.8038 81.8757 72.7258 82.0596 72.7258 82.2513V85.2589C72.75 85.4357 72.839 85.5978 72.9764 85.7153C73.1138 85.8327 73.2902 85.8975 73.4728 85.8975C73.6554 85.8975 73.8318 85.8327 73.9692 85.7153C74.1066 85.5978 74.1956 85.4357 74.2197 85.2589V82.2513C74.2197 82.1553 74.2002 82.0602 74.1621 81.9717C74.1241 81.8831 74.0684 81.8028 73.9982 81.7355C73.9281 81.6682 73.8449 81.6153 73.7535 81.5797C73.6622 81.5442 73.5645 81.5267 73.4662 81.5284Z" fill="#06120E"/>
<path d="M69.976 81.5284C69.7796 81.5284 69.5913 81.6046 69.4525 81.7402C69.3137 81.8757 69.2357 82.0596 69.2357 82.2513V85.2589C69.2598 85.4357 69.3488 85.5978 69.4862 85.7153C69.6236 85.8327 69.8 85.8975 69.9826 85.8975C70.1652 85.8975 70.3416 85.8327 70.479 85.7153C70.6164 85.5978 70.7054 85.4357 70.7296 85.2589V82.2513C70.7296 82.1553 70.71 82.0602 70.672 81.9717C70.6339 81.8831 70.5782 81.8028 70.5081 81.7355C70.4379 81.6682 70.3547 81.6153 70.2634 81.5797C70.172 81.5442 70.0743 81.5267 69.976 81.5284Z" fill="#06120E"/>
<path d="M66.4858 81.5284C66.2895 81.5284 66.1012 81.6046 65.9623 81.7402C65.8235 81.8757 65.7455 82.0596 65.7455 82.2513V85.2589C65.7696 85.4357 65.8587 85.5978 65.996 85.7153C66.1334 85.8327 66.3098 85.8975 66.4924 85.8975C66.675 85.8975 66.8514 85.8327 66.9888 85.7153C67.1262 85.5978 67.2152 85.4357 67.2394 85.2589V82.2513C67.2394 82.1553 67.2198 82.0602 67.1818 81.9717C67.1438 81.8831 67.088 81.8028 67.0179 81.7355C66.9477 81.6682 66.8646 81.6153 66.7732 81.5797C66.6818 81.5442 66.5842 81.5267 66.4858 81.5284Z" fill="#06120E"/>
<path d="M80.4465 74.7129C80.2502 74.7129 80.0619 74.789 79.923 74.9246C79.7842 75.0602 79.7062 75.244 79.7062 75.4357V78.4434C79.7062 78.6351 79.7842 78.819 79.923 78.9545C80.0619 79.0901 80.2502 79.1662 80.4465 79.1662C80.6441 79.1663 80.8338 79.0905 80.9747 78.9553C81.1157 78.8201 81.1966 78.6363 81.2001 78.4434V75.4357C81.1966 75.2429 81.1157 75.059 80.9747 74.9238C80.8338 74.7886 80.6441 74.7129 80.4465 74.7129Z" fill="#06120E"/>
<path d="M76.9563 74.713C76.76 74.713 76.5717 74.7892 76.4328 74.9247C76.294 75.0603 76.216 75.2442 76.216 75.4359V78.4435C76.2401 78.6202 76.3292 78.7824 76.4666 78.8998C76.604 79.0173 76.7803 79.082 76.9629 79.082C77.1456 79.082 77.3219 79.0173 77.4593 78.8998C77.5967 78.7824 77.6858 78.6202 77.7099 78.4435V75.4359C77.7099 75.3398 77.6903 75.2448 77.6523 75.1562C77.6143 75.0677 77.5586 74.9874 77.4884 74.9201C77.4183 74.8528 77.3351 74.7998 77.2437 74.7643C77.1524 74.7287 77.0547 74.7113 76.9563 74.713Z" fill="#06120E"/>
<path d="M73.4662 74.713C73.2698 74.713 73.0815 74.7892 72.9427 74.9247C72.8038 75.0603 72.7258 75.2442 72.7258 75.4359V78.4435C72.75 78.6202 72.839 78.7824 72.9764 78.8998C73.1138 79.0173 73.2902 79.082 73.4728 79.082C73.6554 79.082 73.8318 79.0173 73.9692 78.8998C74.1066 78.7824 74.1956 78.6202 74.2197 78.4435V75.4359C74.2197 75.3398 74.2002 75.2448 74.1621 75.1562C74.1241 75.0677 74.0684 74.9874 73.9982 74.9201C73.9281 74.8528 73.8449 74.7998 73.7535 74.7643C73.6622 74.7287 73.5645 74.7113 73.4662 74.713Z" fill="#06120E"/>
<path d="M69.976 74.713C69.7796 74.713 69.5913 74.7892 69.4525 74.9247C69.3137 75.0603 69.2357 75.2442 69.2357 75.4359V78.4435C69.2598 78.6202 69.3488 78.7824 69.4862 78.8998C69.6236 79.0173 69.8 79.082 69.9826 79.082C70.1652 79.082 70.3416 79.0173 70.479 78.8998C70.6164 78.7824 70.7054 78.6202 70.7296 78.4435V75.4359C70.7296 75.3398 70.71 75.2448 70.672 75.1562C70.6339 75.0677 70.5782 74.9874 70.5081 74.9201C70.4379 74.8528 70.3547 74.7998 70.2634 74.7643C70.172 74.7287 70.0743 74.7113 69.976 74.713Z" fill="#06120E"/>
<path d="M66.4858 74.713C66.2895 74.713 66.1012 74.7892 65.9623 74.9247C65.8235 75.0603 65.7455 75.2442 65.7455 75.4359V78.4435C65.7696 78.6202 65.8587 78.7824 65.996 78.8998C66.1334 79.0173 66.3098 79.082 66.4924 79.082C66.675 79.082 66.8514 79.0173 66.9888 78.8998C67.1262 78.7824 67.2152 78.6202 67.2394 78.4435V75.4359C67.2394 75.3398 67.2198 75.2448 67.1818 75.1562C67.1438 75.0677 67.088 74.9874 67.0179 74.9201C66.9477 74.8528 66.8646 74.7998 66.7732 74.7643C66.6818 74.7287 66.5842 74.7113 66.4858 74.713Z" fill="#06120E"/>
<path d="M80.4465 67.8975C80.2502 67.8975 80.0619 67.9736 79.923 68.1092C79.7842 68.2447 79.7062 68.4286 79.7062 68.6203V71.628C79.7062 71.8197 79.7842 72.0035 79.923 72.1391C80.0619 72.2747 80.2502 72.3508 80.4465 72.3508C80.6441 72.3508 80.8338 72.2751 80.9747 72.1399C81.1157 72.0047 81.1966 71.8208 81.2001 71.628V68.6203C81.1966 68.4274 81.1157 68.2436 80.9747 68.1084C80.8338 67.9732 80.6441 67.8974 80.4465 67.8975Z" fill="#06120E"/>
<path d="M76.9563 67.8973C76.76 67.8973 76.5717 67.9735 76.4328 68.1091C76.294 68.2446 76.216 68.4285 76.216 68.6202V71.6278C76.2401 71.8046 76.3292 71.9667 76.4666 72.0842C76.604 72.2016 76.7803 72.2664 76.9629 72.2664C77.1456 72.2664 77.3219 72.2016 77.4593 72.0842C77.5967 71.9667 77.6858 71.8046 77.7099 71.6278V68.6202C77.7099 68.5242 77.6903 68.4291 77.6523 68.3406C77.6143 68.252 77.5586 68.1717 77.4884 68.1044C77.4183 68.0371 77.3351 67.9842 77.2437 67.9486C77.1524 67.913 77.0547 67.8956 76.9563 67.8973Z" fill="#06120E"/>
<path d="M73.4662 67.8973C73.2698 67.8973 73.0815 67.9735 72.9427 68.1091C72.8038 68.2446 72.7258 68.4285 72.7258 68.6202V71.6278C72.75 71.8046 72.839 71.9667 72.9764 72.0842C73.1138 72.2016 73.2902 72.2664 73.4728 72.2664C73.6554 72.2664 73.8318 72.2016 73.9692 72.0842C74.1066 71.9667 74.1956 71.8046 74.2197 71.6278V68.6202C74.2197 68.5242 74.2002 68.4291 74.1621 68.3406C74.1241 68.252 74.0684 68.1717 73.9982 68.1044C73.9281 68.0371 73.8449 67.9842 73.7535 67.9486C73.6622 67.913 73.5645 67.8956 73.4662 67.8973Z" fill="#06120E"/>
<path d="M69.976 67.8973C69.7796 67.8973 69.5913 67.9735 69.4525 68.1091C69.3137 68.2446 69.2357 68.4285 69.2357 68.6202V71.6278C69.2598 71.8046 69.3488 71.9667 69.4862 72.0842C69.6236 72.2016 69.8 72.2664 69.9826 72.2664C70.1652 72.2664 70.3416 72.2016 70.479 72.0842C70.6164 71.9667 70.7054 71.8046 70.7296 71.6278V68.6202C70.7296 68.5242 70.71 68.4291 70.672 68.3406C70.6339 68.252 70.5782 68.1717 70.5081 68.1044C70.4379 68.0371 70.3547 67.9842 70.2634 67.9486C70.172 67.913 70.0743 67.8956 69.976 67.8973Z" fill="#06120E"/>
<path d="M66.4858 67.8973C66.2895 67.8973 66.1012 67.9735 65.9623 68.1091C65.8235 68.2446 65.7455 68.4285 65.7455 68.6202V71.6278C65.7696 71.8046 65.8587 71.9667 65.996 72.0842C66.1334 72.2016 66.3098 72.2664 66.4924 72.2664C66.675 72.2664 66.8514 72.2016 66.9888 72.0842C67.1262 71.9667 67.2152 71.8046 67.2394 71.6278V68.6202C67.2394 68.5242 67.2198 68.4291 67.1818 68.3406C67.1438 68.252 67.088 68.1717 67.0179 68.1044C66.9477 68.0371 66.8646 67.9842 66.7732 67.9486C66.6818 67.913 66.5842 67.8956 66.4858 67.8973Z" fill="#06120E"/>
<path d="M80.4465 61.0818C80.2502 61.0818 80.0619 61.1579 79.923 61.2935C79.7842 61.4291 79.7062 61.6129 79.7062 61.8047V64.8123C79.7062 65.004 79.7842 65.1879 79.923 65.3234C80.0619 65.459 80.2502 65.5351 80.4465 65.5351C80.6441 65.5352 80.8338 65.4594 80.9747 65.3242C81.1157 65.189 81.1966 65.0052 81.2001 64.8123V61.8047C81.1966 61.6118 81.1157 61.4279 80.9747 61.2927C80.8338 61.1575 80.6441 61.0818 80.4465 61.0818Z" fill="#06120E"/>
<path d="M76.9563 61.0819C76.76 61.0819 76.5717 61.1581 76.4328 61.2936C76.294 61.4292 76.216 61.6131 76.216 61.8048V64.8124C76.2401 64.9891 76.3292 65.1513 76.4666 65.2687C76.604 65.3862 76.7803 65.4509 76.9629 65.4509C77.1456 65.4509 77.3219 65.3862 77.4593 65.2687C77.5967 65.1513 77.6858 64.9891 77.7099 64.8124V61.8048C77.7099 61.7087 77.6903 61.6137 77.6523 61.5251C77.6143 61.4366 77.5586 61.3563 77.4884 61.289C77.4183 61.2217 77.3351 61.1687 77.2437 61.1332C77.1524 61.0976 77.0547 61.0802 76.9563 61.0819Z" fill="#06120E"/>
<path d="M73.4662 61.0819C73.2698 61.0819 73.0815 61.1581 72.9427 61.2936C72.8038 61.4292 72.7258 61.6131 72.7258 61.8048V64.8124C72.75 64.9891 72.839 65.1513 72.9764 65.2687C73.1138 65.3862 73.2902 65.4509 73.4728 65.4509C73.6554 65.4509 73.8318 65.3862 73.9692 65.2687C74.1066 65.1513 74.1956 64.9891 74.2197 64.8124V61.8048C74.2197 61.7087 74.2002 61.6137 74.1621 61.5251C74.1241 61.4366 74.0684 61.3563 73.9982 61.289C73.9281 61.2217 73.8449 61.1687 73.7535 61.1332C73.6622 61.0976 73.5645 61.0802 73.4662 61.0819Z" fill="#06120E"/>
<path d="M69.976 61.0819C69.7796 61.0819 69.5913 61.1581 69.4525 61.2936C69.3137 61.4292 69.2357 61.6131 69.2357 61.8048V64.8124C69.2598 64.9891 69.3488 65.1513 69.4862 65.2687C69.6236 65.3862 69.8 65.4509 69.9826 65.4509C70.1652 65.4509 70.3416 65.3862 70.479 65.2687C70.6164 65.1513 70.7054 64.9891 70.7296 64.8124V61.8048C70.7296 61.7087 70.71 61.6137 70.672 61.5251C70.6339 61.4366 70.5782 61.3563 70.5081 61.289C70.4379 61.2217 70.3547 61.1687 70.2634 61.1332C70.172 61.0976 70.0743 61.0802 69.976 61.0819Z" fill="#06120E"/>
<path d="M66.4858 61.0819C66.2895 61.0819 66.1012 61.1581 65.9623 61.2936C65.8235 61.4292 65.7455 61.6131 65.7455 61.8048V64.8124C65.7696 64.9891 65.8587 65.1513 65.996 65.2687C66.1334 65.3862 66.3098 65.4509 66.4924 65.4509C66.675 65.4509 66.8514 65.3862 66.9888 65.2687C67.1262 65.1513 67.2152 64.9891 67.2394 64.8124V61.8048C67.2394 61.7087 67.2198 61.6137 67.1818 61.5251C67.1438 61.4366 67.088 61.3563 67.0179 61.289C66.9477 61.2217 66.8646 61.1687 66.7732 61.1332C66.6818 61.0976 66.5842 61.0802 66.4858 61.0819Z" fill="#06120E"/>
<path d="M80.4465 54.2146C80.2502 54.2146 80.0619 54.2908 79.923 54.4263C79.7842 54.5619 79.7062 54.7457 79.7062 54.9375V57.9451C79.7062 58.1368 79.7842 58.3207 79.923 58.4562C80.0619 58.5918 80.2502 58.6679 80.4465 58.6679C80.6441 58.668 80.8338 58.5922 80.9747 58.457C81.1157 58.3218 81.1966 58.138 81.2001 57.9451V54.9891C81.2055 54.8893 81.19 54.7894 81.1545 54.6956C81.1191 54.6018 81.0644 54.5161 80.9939 54.4436C80.9234 54.3711 80.8385 54.3134 80.7444 54.2741C80.6502 54.2347 80.5489 54.2145 80.4465 54.2146Z" fill="#06120E"/>
<path d="M76.9563 54.2148C76.76 54.2148 76.5717 54.2909 76.4328 54.4265C76.294 54.562 76.216 54.7459 76.216 54.9376V57.9452C76.2401 58.122 76.3292 58.2841 76.4666 58.4016C76.604 58.519 76.7803 58.5838 76.9629 58.5838C77.1456 58.5838 77.3219 58.519 77.4593 58.4016C77.5967 58.2841 77.6858 58.122 77.7099 57.9452V54.9892C77.7173 54.889 77.7031 54.7883 77.6684 54.6936C77.6337 54.599 77.5791 54.5125 77.5082 54.4396C77.4373 54.3667 77.3516 54.3091 77.2566 54.2703C77.1615 54.2316 77.0593 54.2127 76.9563 54.2148Z" fill="#06120E"/>
<path d="M73.4662 54.2148C73.2698 54.2148 73.0815 54.2909 72.9427 54.4265C72.8038 54.562 72.7258 54.7459 72.7258 54.9376V57.9452C72.75 58.122 72.839 58.2841 72.9764 58.4016C73.1138 58.519 73.2902 58.5838 73.4728 58.5838C73.6554 58.5838 73.8318 58.519 73.9692 58.4016C74.1066 58.2841 74.1956 58.122 74.2197 57.9452V54.9892C74.2271 54.889 74.213 54.7883 74.1782 54.6936C74.1435 54.599 74.0889 54.5125 74.018 54.4396C73.9471 54.3667 73.8614 54.3091 73.7664 54.2703C73.6714 54.2316 73.5691 54.2127 73.4662 54.2148Z" fill="#06120E"/>
<path d="M69.976 54.2148C69.7796 54.2148 69.5913 54.2909 69.4525 54.4265C69.3137 54.562 69.2357 54.7459 69.2357 54.9376V57.9452C69.2598 58.122 69.3488 58.2841 69.4862 58.4016C69.6236 58.519 69.8 58.5838 69.9826 58.5838C70.1652 58.5838 70.3416 58.519 70.479 58.4016C70.6164 58.2841 70.7054 58.122 70.7296 57.9452V54.9892C70.7369 54.889 70.7228 54.7883 70.6881 54.6936C70.6533 54.599 70.5988 54.5125 70.5279 54.4396C70.4569 54.3667 70.3712 54.3091 70.2762 54.2703C70.1812 54.2316 70.0789 54.2127 69.976 54.2148Z" fill="#06120E"/>
<path d="M66.4858 54.2148C66.2895 54.2148 66.1012 54.2909 65.9623 54.4265C65.8235 54.562 65.7455 54.7459 65.7455 54.9376V57.9452C65.7696 58.122 65.8587 58.2841 65.996 58.4016C66.1334 58.519 66.3098 58.5838 66.4924 58.5838C66.675 58.5838 66.8514 58.519 66.9888 58.4016C67.1262 58.2841 67.2152 58.122 67.2394 57.9452V54.9892C67.2468 54.889 67.2326 54.7883 67.1979 54.6936C67.1632 54.599 67.1086 54.5125 67.0377 54.4396C66.9668 54.3667 66.8811 54.3091 66.786 54.2703C66.691 54.2316 66.5888 54.2127 66.4858 54.2148Z" fill="#06120E"/>
<path d="M178.422 74.7905H175.276C175.076 74.7905 174.884 74.868 174.743 75.006C174.602 75.144 174.522 75.3312 174.522 75.5263V144.818C174.522 145.013 174.602 145.2 174.743 145.338C174.884 145.476 175.076 145.554 175.276 145.554H178.422C178.521 145.554 178.618 145.534 178.709 145.497C178.799 145.46 178.882 145.406 178.951 145.337C179.019 145.269 179.074 145.188 179.11 145.098C179.147 145.009 179.164 144.914 179.163 144.818V75.5263C179.164 75.4303 179.147 75.3349 179.11 75.2457C179.074 75.1565 179.019 75.0753 178.951 75.0068C178.882 74.9383 178.799 74.8839 178.709 74.8468C178.618 74.8096 178.521 74.7905 178.422 74.7905ZM177.669 144.095H176.029V76.2492H177.669V144.095Z" fill="#06120E"/>
<path d="M172.129 74.7904H168.996C168.796 74.7904 168.605 74.8679 168.463 75.0059C168.322 75.1439 168.243 75.331 168.243 75.5262V144.818C168.243 145.013 168.322 145.2 168.463 145.338C168.605 145.476 168.796 145.553 168.996 145.553H172.129C172.229 145.555 172.328 145.537 172.42 145.501C172.512 145.465 172.596 145.411 172.666 145.342C172.737 145.273 172.792 145.191 172.829 145.101C172.867 145.011 172.885 144.915 172.883 144.818V75.5262C172.885 75.4291 172.867 75.3326 172.829 75.2425C172.792 75.1525 172.737 75.0707 172.666 75.002C172.596 74.9333 172.512 74.8792 172.42 74.8428C172.328 74.8065 172.229 74.7887 172.129 74.7904ZM171.389 144.095H169.737V76.249H171.389V144.095Z" fill="#06120E"/>
<path d="M165.85 74.7904H162.717C162.617 74.7887 162.518 74.8065 162.426 74.8428C162.334 74.8792 162.25 74.9333 162.18 75.002C162.109 75.0707 162.054 75.1525 162.017 75.2425C161.979 75.3326 161.961 75.4291 161.963 75.5262V144.818C161.961 144.915 161.979 145.011 162.017 145.101C162.054 145.191 162.109 145.273 162.18 145.342C162.25 145.411 162.334 145.465 162.426 145.501C162.518 145.537 162.617 145.555 162.717 145.553H165.85C166.05 145.553 166.241 145.476 166.383 145.338C166.524 145.2 166.603 145.013 166.603 144.818V75.5262C166.603 75.331 166.524 75.1439 166.383 75.0059C166.241 74.8679 166.05 74.7904 165.85 74.7904ZM165.109 144.095H163.457V76.249H165.109V144.095Z" fill="#06120E"/>
<path d="M222.459 140.868H226.571C226.669 140.868 226.766 140.849 226.857 140.812C226.948 140.775 227.03 140.72 227.099 140.652C227.168 140.583 227.222 140.502 227.259 140.413C227.295 140.323 227.313 140.228 227.311 140.132V107.539C227.311 107.346 227.234 107.161 227.095 107.023C226.957 106.885 226.768 106.806 226.571 106.803H222.459C222.259 106.803 222.068 106.881 221.926 107.018C221.785 107.156 221.706 107.344 221.706 107.539V140.132C221.704 140.229 221.722 140.326 221.759 140.416C221.797 140.506 221.852 140.588 221.922 140.656C221.993 140.725 222.076 140.779 222.169 140.815C222.261 140.852 222.36 140.87 222.459 140.868ZM223.2 108.275H225.844V112.147H223.2V108.275ZM223.2 114.096H225.844V117.465H223.2V114.096ZM223.2 119.453H225.844V122.874H223.2V119.453ZM223.2 124.81H225.844V128.231H223.2V124.81ZM223.2 130.154H225.844V133.588H223.2V130.154ZM223.2 135.511H225.844V139.383H223.2V135.511Z" fill="#06120E"/>
<path d="M230.484 140.868H234.582C234.682 140.87 234.78 140.852 234.873 140.815C234.965 140.779 235.049 140.725 235.119 140.656C235.189 140.588 235.245 140.506 235.282 140.416C235.319 140.326 235.338 140.229 235.336 140.132V107.539C235.336 107.344 235.256 107.156 235.115 107.018C234.974 106.881 234.782 106.803 234.582 106.803H230.484C230.284 106.803 230.092 106.881 229.951 107.018C229.81 107.156 229.73 107.344 229.73 107.539V140.132C229.729 140.229 229.747 140.326 229.784 140.416C229.821 140.506 229.877 140.588 229.947 140.656C230.017 140.725 230.101 140.779 230.193 140.815C230.286 140.852 230.384 140.87 230.484 140.868ZM231.224 108.275H233.868V112.147H231.224V108.275ZM231.224 114.096H233.868V117.465H231.224V114.096ZM231.224 119.453H233.868V122.874H231.224V119.453ZM231.224 124.81H233.868V128.231H231.224V124.81ZM231.224 130.154H233.868V133.588H231.224V130.154ZM231.224 135.511H233.868V139.383H231.224V135.511Z" fill="#06120E"/>
<path d="M44.8574 116.536C45.0537 116.536 45.242 116.46 45.3809 116.324C45.5197 116.189 45.5977 116.005 45.5977 115.813V90.2675C45.5995 90.1715 45.5816 90.0761 45.5452 89.9869C45.5088 89.8977 45.4545 89.8165 45.3856 89.748C45.3167 89.6795 45.2345 89.6251 45.1438 89.588C45.0531 89.5508 44.9557 89.5317 44.8574 89.5317H41.7242C41.6258 89.5317 41.5285 89.5508 41.4378 89.588C41.3471 89.6251 41.2649 89.6795 41.1959 89.748C41.127 89.8165 41.0728 89.8977 41.0363 89.9869C40.9999 90.0761 40.9821 90.1715 40.9838 90.2675V115.813C40.9838 116.005 41.0618 116.189 41.2007 116.324C41.3395 116.46 41.5278 116.536 41.7242 116.536H44.8574ZM42.4777 90.9904H44.1038V115.077H42.4777V90.9904Z" fill="#06120E"/>
<path d="M57.5225 145.308C57.7188 145.308 57.9071 145.232 58.046 145.097C58.1848 144.961 58.2628 144.777 58.2628 144.585V90.2675C58.2646 90.1715 58.2467 90.0761 58.2103 89.9869C58.1739 89.8977 58.1196 89.8165 58.0507 89.748C57.9818 89.6795 57.8996 89.6251 57.8089 89.588C57.7182 89.5508 57.6208 89.5317 57.5225 89.5317H53.8208C53.7224 89.5317 53.6251 89.5508 53.5344 89.588C53.4437 89.6251 53.3615 89.6795 53.2926 89.748C53.2236 89.8165 53.1694 89.8977 53.133 89.9869C53.0965 90.0761 53.0787 90.1715 53.0804 90.2675V144.573C53.0804 144.764 53.1584 144.948 53.2973 145.084C53.4361 145.219 53.6244 145.295 53.8208 145.295L57.5225 145.308ZM54.5743 90.9904H56.7689V143.914H54.5743V90.9904Z" fill="#06120E"/>
<path d="M73.6116 41.4355H78.0272C78.2248 41.4355 78.4144 41.3597 78.5554 41.2245C78.6963 41.0893 78.7773 40.9055 78.7807 40.7126C78.7675 40.5253 78.6827 40.3497 78.5431 40.2206C78.4036 40.0915 78.2194 40.0183 78.0272 40.0156H77.0885C77.211 39.381 77.4942 38.7864 77.9121 38.2859C78.33 37.7854 78.8695 37.3949 79.4814 37.1499C79.6656 37.0729 79.8123 36.9296 79.8912 36.7498C79.9636 36.567 79.9636 36.3645 79.8912 36.1818C79.6541 35.6573 79.5325 35.09 79.5343 34.5166C79.5449 33.4513 79.9628 32.4282 80.706 31.6482C81.4492 30.8681 82.4641 30.3873 83.5515 30.3C84.639 30.2127 85.7207 30.5253 86.5844 31.1764C87.448 31.8275 88.0314 32.7702 88.22 33.8196C88.2358 33.9364 88.2817 34.0474 88.3534 34.1422C88.4251 34.237 88.5202 34.3126 88.6299 34.3617C88.7359 34.416 88.8539 34.4444 88.9736 34.4444C89.0933 34.4444 89.2113 34.416 89.3173 34.3617C90.1223 33.9176 91.0271 33.6743 91.9515 33.6535C92.8758 33.6326 93.7911 33.8348 94.6163 34.2421C95.4414 34.6494 96.1509 35.2492 96.6817 35.9884C97.2126 36.7276 97.5484 37.5832 97.6593 38.4795H95.2136C95.0137 38.4795 94.8221 38.557 94.6807 38.695C94.5394 38.833 94.46 39.0201 94.46 39.2152C94.46 39.4104 94.5394 39.5975 94.6807 39.7355C94.8221 39.8735 95.0137 39.951 95.2136 39.951H100.634C100.834 39.951 101.025 39.8735 101.167 39.7355C101.308 39.5975 101.387 39.4104 101.387 39.2152C101.387 39.0201 101.308 38.833 101.167 38.695C101.025 38.557 100.834 38.4795 100.634 38.4795H99.1797C99.0058 36.7585 98.183 35.162 96.871 34.0002C95.559 32.8385 93.8515 32.1944 92.0804 32.1931C91.1747 32.1873 90.2766 32.3539 89.4363 32.6837C88.9812 31.4142 88.0833 30.3415 86.8998 29.6532C85.7164 28.965 84.3227 28.705 82.9627 28.9189C81.6027 29.1328 80.3631 29.8068 79.4608 30.8231C78.5585 31.8394 78.051 33.1331 78.0272 34.4779C78.0286 35.0146 78.1042 35.5487 78.2519 36.0656C77.5425 36.4768 76.9367 37.0382 76.4791 37.7084C76.0215 38.3786 75.7237 39.1406 75.6078 39.9381H73.6116C73.414 39.9415 73.2257 40.0205 73.0873 40.1581C72.9488 40.2957 72.8712 40.4809 72.8712 40.6739C72.8658 40.772 72.881 40.8702 72.9158 40.9624C72.9506 41.0546 73.0043 41.139 73.0735 41.2102C73.1428 41.2815 73.2263 41.3382 73.3188 41.377C73.4113 41.4157 73.5109 41.4356 73.6116 41.4355Z" fill="#06120E"/>
<path d="M90.3882 38.428C90.1883 38.428 89.9967 38.5055 89.8554 38.6435C89.714 38.7815 89.6346 38.9686 89.6346 39.1637C89.6346 39.3589 89.714 39.546 89.8554 39.684C89.9967 39.822 90.1883 39.8995 90.3882 39.8995H92.6621C92.862 39.8995 93.0536 39.822 93.1949 39.684C93.3363 39.546 93.4157 39.3589 93.4157 39.1637C93.4157 38.9686 93.3363 38.7815 93.1949 38.6435C93.0536 38.5055 92.862 38.428 92.6621 38.428H90.3882Z" fill="#06120E"/>
<path d="M126.004 12.6889H130.366C130.473 12.7028 130.581 12.6942 130.684 12.6639C130.787 12.6336 130.882 12.5822 130.962 12.5132C131.043 12.4441 131.108 12.359 131.152 12.2635C131.197 12.168 131.22 12.0644 131.22 11.9596C131.22 11.8547 131.197 11.7511 131.152 11.6557C131.108 11.5602 131.043 11.4751 130.962 11.406C130.882 11.3369 130.787 11.2855 130.684 11.2552C130.581 11.2249 130.473 11.2164 130.366 11.2303H129.428C129.55 10.5957 129.833 10.0011 130.251 9.5006C130.669 9.00011 131.209 8.60961 131.821 8.36464C132.005 8.2876 132.152 8.14431 132.23 7.96448C132.27 7.87471 132.29 7.77811 132.29 7.6805C132.29 7.58288 132.27 7.48628 132.23 7.39652C131.993 6.87201 131.872 6.30469 131.874 5.73135C131.884 4.666 132.302 3.64296 133.045 2.86289C133.788 2.08281 134.803 1.60199 135.891 1.51471C136.978 1.42744 138.06 1.74002 138.924 2.39114C139.787 3.04226 140.371 3.98495 140.559 5.03431C140.578 5.14985 140.625 5.25926 140.696 5.35316C140.768 5.44706 140.861 5.52264 140.969 5.57342C141.077 5.62419 141.196 5.64865 141.316 5.64468C141.436 5.64071 141.552 5.60844 141.657 5.55064C142.499 5.09792 143.445 4.85829 144.406 4.85359C145.781 4.85578 147.107 5.34736 148.136 6.23614C149.166 7.12492 149.828 8.34986 149.999 9.68128H147.566C147.369 9.68466 147.18 9.76367 147.042 9.90129C146.903 10.0389 146.826 10.2241 146.826 10.417C146.826 10.6088 146.904 10.7926 147.043 10.9282C147.181 11.0638 147.37 11.1399 147.566 11.1399H153.013C153.209 11.1399 153.398 11.0638 153.536 10.9282C153.675 10.7926 153.753 10.6088 153.753 10.417C153.753 10.2241 153.676 10.0389 153.537 9.90129C153.399 9.76367 153.21 9.68466 153.013 9.68128H151.506C151.332 7.96026 150.509 6.36379 149.197 5.20204C147.885 4.04029 146.178 3.39622 144.406 3.39496C143.502 3.39257 142.606 3.55453 141.762 3.87256C141.292 2.61588 140.387 1.55928 139.203 0.885837C138.019 0.212391 136.632 -0.0354647 135.28 0.185214C133.929 0.405893 132.699 1.0812 131.804 2.09413C130.909 3.10706 130.405 4.39378 130.38 5.73135C130.381 6.26805 130.457 6.80211 130.604 7.31907C129.895 7.73025 129.289 8.29164 128.832 8.96186C128.374 9.63208 128.076 10.394 127.96 11.1915H126.004C125.897 11.1777 125.789 11.1862 125.686 11.2165C125.583 11.2468 125.489 11.2982 125.408 11.3673C125.327 11.4363 125.262 11.5215 125.218 11.6169C125.174 11.7124 125.151 11.816 125.151 11.9209C125.151 12.0257 125.174 12.1293 125.218 12.2248C125.262 12.3203 125.327 12.4054 125.408 12.4744C125.489 12.5435 125.583 12.5949 125.686 12.6252C125.789 12.6555 125.897 12.664 126.004 12.6502V12.6889Z" fill="#06120E"/>
<path d="M142.807 9.68115C142.608 9.68447 142.418 9.76305 142.278 9.90033C142.137 10.0376 142.057 10.2228 142.053 10.4169C142.057 10.6098 142.138 10.7937 142.279 10.9289C142.419 11.0641 142.609 11.1398 142.807 11.1398H145.081C145.278 11.1398 145.468 11.0641 145.609 10.9289C145.75 10.7937 145.831 10.6098 145.834 10.4169C145.831 10.2228 145.75 10.0376 145.61 9.90033C145.469 9.76305 145.279 9.68447 145.081 9.68115H142.807Z" fill="#06120E"/>
<path d="M226.914 65.2124H231.29C231.471 65.1889 231.637 65.1019 231.758 64.9678C231.878 64.8336 231.944 64.6614 231.944 64.4831C231.944 64.3048 231.878 64.1326 231.758 63.9984C231.637 63.8643 231.471 63.7773 231.29 63.7538H230.352C230.47 63.1233 230.747 62.5314 231.158 62.0312C231.569 61.5311 232.1 61.1383 232.705 60.8882C232.796 60.8516 232.878 60.7973 232.946 60.7284C233.014 60.6596 233.067 60.5777 233.102 60.488C233.141 60.3982 233.161 60.3016 233.161 60.204C233.161 60.1064 233.141 60.0098 233.102 59.92C232.875 59.3927 232.758 58.8267 232.758 58.2549C232.748 57.1793 233.156 56.14 233.899 55.3457C234.641 54.5514 235.665 54.0609 236.762 53.9727C237.86 53.8844 238.952 54.205 239.818 54.87C240.683 55.535 241.26 56.4952 241.43 57.5578C241.463 57.6838 241.529 57.7991 241.622 57.892C241.715 57.985 241.831 58.0523 241.959 58.0871C242.065 58.1413 242.183 58.1697 242.303 58.1697C242.423 58.1697 242.541 58.1413 242.647 58.0871C243.454 57.6494 244.358 57.4116 245.281 57.3946C246.204 57.3777 247.118 57.582 247.941 57.9897C248.764 58.3974 249.473 58.996 250.004 59.7331C250.535 60.4702 250.873 61.3234 250.989 62.2177H248.556C248.45 62.2038 248.341 62.2124 248.239 62.2427C248.136 62.273 248.041 62.3244 247.96 62.3934C247.879 62.4625 247.815 62.5476 247.77 62.6431C247.726 62.7386 247.703 62.8422 247.703 62.947C247.703 63.0519 247.726 63.1555 247.77 63.251C247.815 63.3464 247.879 63.4315 247.96 63.5006C248.041 63.5697 248.136 63.6211 248.239 63.6514C248.341 63.6817 248.45 63.6902 248.556 63.6763H253.99C254.096 63.6902 254.204 63.6817 254.307 63.6514C254.41 63.6211 254.505 63.5697 254.586 63.5006C254.666 63.4315 254.731 63.3464 254.775 63.251C254.82 63.1555 254.843 63.0519 254.843 62.947C254.843 62.8422 254.82 62.7386 254.775 62.6431C254.731 62.5476 254.666 62.4625 254.586 62.3934C254.505 62.3244 254.41 62.273 254.307 62.2427C254.204 62.2124 254.096 62.2038 253.99 62.2177H252.496C252.322 60.4967 251.499 58.9002 250.187 57.7385C248.875 56.5767 247.168 55.9326 245.396 55.9314C244.493 55.9305 243.596 56.0924 242.752 56.409C242.309 55.1192 241.41 54.0258 240.216 53.3253C239.021 52.6247 237.61 52.3629 236.236 52.5868C234.861 52.8107 233.614 53.5057 232.717 54.5469C231.82 55.5881 231.333 56.9074 231.343 58.2678C231.338 58.8049 231.414 59.3399 231.568 59.8555C230.855 60.263 230.247 60.8234 229.789 61.4943C229.331 62.1652 229.035 62.929 228.924 63.728H227.007C226.901 63.7141 226.792 63.7226 226.69 63.7529C226.587 63.7832 226.492 63.8346 226.411 63.9037C226.33 63.9728 226.265 64.0579 226.221 64.1534C226.177 64.2488 226.154 64.3525 226.154 64.4573C226.154 64.5621 226.177 64.6657 226.221 64.7612C226.265 64.8567 226.33 64.9418 226.411 65.0109C226.492 65.0799 226.587 65.1313 226.69 65.1616C226.792 65.1919 226.901 65.2005 227.007 65.1866L226.914 65.2124Z" fill="#06120E"/>
<path d="M243.678 62.2048C243.497 62.2284 243.331 62.3153 243.21 62.4495C243.09 62.5836 243.024 62.7559 243.024 62.9342C243.024 63.1124 243.09 63.2847 243.21 63.4188C243.331 63.553 243.497 63.6399 243.678 63.6635H245.925C246.106 63.6399 246.272 63.553 246.393 63.4188C246.513 63.2847 246.579 63.1124 246.579 62.9342C246.579 62.7559 246.513 62.5836 246.393 62.4495C246.272 62.3153 246.106 62.2284 245.925 62.2048H243.678Z" fill="#06120E"/>
<path d="M17.7557 75.9134H22.1316C22.3292 75.9134 22.5189 75.8377 22.6599 75.7025C22.8008 75.5673 22.8817 75.3834 22.8852 75.1905C22.8818 74.9964 22.8013 74.8112 22.6607 74.6739C22.5201 74.5367 22.3304 74.4581 22.1316 74.4548H21.1798C21.3023 73.8202 21.5854 73.2256 22.0033 72.7251C22.4212 72.2246 22.9607 71.8341 23.5726 71.5891C23.7568 71.5121 23.9036 71.3688 23.9825 71.189C24.0548 71.0062 24.0548 70.8037 23.9825 70.621C23.7008 69.9712 23.5884 69.2634 23.6552 68.5609C23.722 67.8583 23.966 67.1828 24.3653 66.5947C24.7647 66.0067 25.3069 65.5243 25.9437 65.1908C26.5805 64.8572 27.292 64.6828 28.0147 64.6832C29.0494 64.6828 30.0503 65.0426 30.8378 65.6979C31.6253 66.3532 32.1477 67.2612 32.3113 68.2588C32.3307 68.3762 32.3795 68.487 32.4533 68.5816C32.527 68.6762 32.6236 68.7515 32.7343 68.8009C32.8404 68.8552 32.9583 68.8836 33.0781 68.8836C33.1978 68.8836 33.3157 68.8552 33.4218 68.8009C34.2597 68.3352 35.2074 68.0905 36.1716 68.091C37.545 68.0959 38.8697 68.5885 39.8987 69.4767C40.9276 70.365 41.5905 71.5884 41.7638 72.9187H39.3313C39.1314 72.9187 38.9397 72.9962 38.7984 73.1342C38.6571 73.2722 38.5777 73.4593 38.5777 73.6544C38.5777 73.8496 38.6571 74.0367 38.7984 74.1747C38.9397 74.3127 39.1314 74.3902 39.3313 74.3902H44.7648C44.9647 74.3902 45.1563 74.3127 45.2977 74.1747C45.439 74.0367 45.5184 73.8496 45.5184 73.6544C45.5184 73.4593 45.439 73.2722 45.2977 73.1342C45.1563 72.9962 44.9647 72.9187 44.7648 72.9187H43.2709C43.1642 71.8456 42.8035 70.8114 42.2173 69.8978C41.6311 68.9841 40.8355 68.216 39.8933 67.6539C38.951 67.0919 37.8878 66.7514 36.7877 66.6592C35.6876 66.5671 34.5805 66.7258 33.554 67.1229C33.1113 65.8342 32.2129 64.7415 31.0199 64.041C29.827 63.3404 28.4174 63.0776 27.044 63.2998C25.6706 63.522 24.4232 64.2147 23.5254 65.2535C22.6276 66.2924 22.1382 67.6095 22.1448 68.9688C22.1463 69.5055 22.2218 70.0395 22.3696 70.5565C21.6571 70.964 21.0487 71.5244 20.5907 72.1953C20.1326 72.8662 19.8368 73.63 19.7255 74.4289H17.7557C17.5581 74.4323 17.3699 74.5113 17.2314 74.649C17.0929 74.7866 17.0153 74.9718 17.0154 75.1647C17.0118 75.2618 17.0283 75.3586 17.0639 75.4493C17.0996 75.54 17.1535 75.6227 17.2226 75.6926C17.2917 75.7625 17.3746 75.8181 17.4661 75.856C17.5577 75.8939 17.6562 75.9135 17.7557 75.9134Z" fill="#06120E"/>
<path d="M34.5191 72.9058C34.3193 72.9058 34.1276 72.9833 33.9863 73.1213C33.845 73.2592 33.7656 73.4464 33.7656 73.6415C33.7656 73.8367 33.845 74.0238 33.9863 74.1618C34.1276 74.2998 34.3193 74.3773 34.5191 74.3773H36.8062C37.0061 74.3773 37.1978 74.2998 37.3391 74.1618C37.4804 74.0238 37.5598 73.8367 37.5598 73.6415C37.5598 73.4464 37.4804 73.2592 37.3391 73.1213C37.1978 72.9833 37.0061 72.9058 36.8062 72.9058H34.5191Z" fill="#06120E"/>
<path d="M48.6913 29.7665C48.76 29.8357 48.8422 29.8907 48.933 29.9284C49.0238 29.9661 49.1214 29.9857 49.2201 29.986C49.4188 29.9825 49.6084 29.9038 49.7489 29.7665L50.4628 29.0695L51.1899 29.7665C51.2586 29.8357 51.3408 29.8907 51.4316 29.9284C51.5224 29.9661 51.6201 29.9857 51.7187 29.986C51.9175 29.9825 52.1071 29.9038 52.2475 29.7665C52.3864 29.6289 52.4643 29.4434 52.4643 29.2502C52.4643 29.057 52.3864 28.8715 52.2475 28.7339L51.5865 28.0368L52.3136 27.3269C52.4267 27.1853 52.4828 27.0083 52.4715 26.8292C52.4602 26.65 52.3822 26.4811 52.2522 26.3542C52.1223 26.2273 51.9492 26.1511 51.7658 26.1401C51.5823 26.129 51.401 26.1838 51.256 26.2942L50.5289 27.0042L49.815 26.2942C49.67 26.1838 49.4887 26.129 49.3053 26.1401C49.1218 26.1511 48.9488 26.2273 48.8188 26.3542C48.6888 26.4811 48.6108 26.65 48.5995 26.8292C48.5882 27.0083 48.6443 27.1853 48.7574 27.3269L49.4713 28.0368L48.7574 28.7339C48.6094 28.8629 48.5194 29.0436 48.507 29.2369C48.4946 29.4303 48.5609 29.6206 48.6913 29.7665Z" fill="#06120E"/>
<path d="M102.776 54.9892C102.845 55.0566 102.928 55.1096 103.018 55.1451C103.109 55.1806 103.207 55.1978 103.304 55.1957C103.501 55.1957 103.691 55.1218 103.833 54.9892L104.547 54.2793L105.261 54.9892C105.403 55.1229 105.593 55.1971 105.79 55.1957C105.95 55.2118 106.111 55.1766 106.249 55.0953C106.386 55.014 106.493 54.891 106.553 54.7451C106.613 54.5992 106.622 54.4383 106.58 54.2867C106.538 54.1351 106.446 54.0011 106.319 53.9049L105.605 53.195L106.319 52.4979C106.391 52.4316 106.448 52.3515 106.487 52.2627C106.526 52.174 106.547 52.0783 106.547 51.9816C106.547 51.8849 106.526 51.7892 106.487 51.7004C106.448 51.6116 106.391 51.5316 106.319 51.4653C106.178 51.3297 105.988 51.2537 105.79 51.2537C105.592 51.2537 105.402 51.3297 105.261 51.4653L104.547 52.1623L103.833 51.4653C103.692 51.3297 103.502 51.2537 103.304 51.2537C103.107 51.2537 102.917 51.3297 102.776 51.4653C102.704 51.5316 102.646 51.6116 102.607 51.7004C102.568 51.7892 102.548 51.8849 102.548 51.9816C102.548 52.0783 102.568 52.174 102.607 52.2627C102.646 52.3515 102.704 52.4316 102.776 52.4979L103.489 53.195L102.776 53.9049C102.695 53.9716 102.63 54.0546 102.585 54.1482C102.541 54.2419 102.518 54.3438 102.518 54.4471C102.518 54.5503 102.541 54.6523 102.585 54.7459C102.63 54.8395 102.695 54.9226 102.776 54.9892Z" fill="#06120E"/>
<path d="M176.638 19.4269C176.778 19.5642 176.968 19.6429 177.166 19.6464C177.265 19.6461 177.363 19.6265 177.453 19.5888C177.544 19.5511 177.626 19.4961 177.695 19.4269L178.422 18.7299L179.136 19.4269C179.205 19.4956 179.287 19.5502 179.378 19.5875C179.469 19.6247 179.567 19.6439 179.665 19.6439C179.763 19.6439 179.861 19.6247 179.952 19.5875C180.043 19.5502 180.125 19.4956 180.194 19.4269C180.333 19.2893 180.411 19.1038 180.411 18.9106C180.411 18.7174 180.333 18.5319 180.194 18.3943L179.48 17.6972L180.194 16.9873C180.307 16.8457 180.363 16.6687 180.352 16.4896C180.34 16.3104 180.262 16.1415 180.132 16.0146C180.002 15.8877 179.829 15.8115 179.646 15.8005C179.462 15.7894 179.281 15.8442 179.136 15.9546L178.422 16.6646L177.695 15.9546C177.55 15.8442 177.369 15.7894 177.185 15.8005C177.002 15.8115 176.829 15.8877 176.699 16.0146C176.569 16.1415 176.491 16.3104 176.48 16.4896C176.468 16.6687 176.524 16.8457 176.638 16.9873L177.365 17.6972L176.638 18.3943C176.499 18.5319 176.421 18.7174 176.421 18.9106C176.421 19.1038 176.499 19.2893 176.638 19.4269Z" fill="#06120E"/>
<path d="M168.785 58.2292C168.925 58.3665 169.115 58.4452 169.313 58.4486C169.412 58.4483 169.51 58.4287 169.601 58.391C169.691 58.3534 169.774 58.2983 169.842 58.2292L170.569 57.5321L171.283 58.2292C171.424 58.3665 171.613 58.4452 171.812 58.4486C171.911 58.4483 172.008 58.4287 172.099 58.391C172.19 58.3534 172.272 58.2983 172.341 58.2292C172.48 58.0915 172.558 57.9061 172.558 57.7129C172.558 57.5196 172.48 57.3342 172.341 57.1965L171.627 56.4995L172.341 55.7895C172.454 55.648 172.51 55.471 172.499 55.2918C172.488 55.1127 172.41 54.9437 172.28 54.8168C172.15 54.6899 171.977 54.6138 171.793 54.6027C171.61 54.5917 171.428 54.6465 171.283 54.7569L170.569 55.5055L169.842 54.7956C169.697 54.6852 169.516 54.6304 169.333 54.6414C169.149 54.6525 168.976 54.7286 168.846 54.8555C168.716 54.9825 168.638 55.1514 168.627 55.3306C168.615 55.5097 168.672 55.6867 168.785 55.8283L169.512 56.5382L168.785 57.2353C168.657 57.3709 168.587 57.5482 168.587 57.7322C168.587 57.9162 168.657 58.0935 168.785 58.2292Z" fill="#06120E"/>
<path d="M232.255 84.007C232.114 83.8714 231.925 83.7954 231.727 83.7954C231.529 83.7954 231.339 83.8714 231.198 84.007L230.484 84.704L229.757 84.007C229.691 83.9248 229.608 83.8571 229.514 83.8085C229.419 83.7599 229.315 83.7314 229.209 83.725C229.102 83.7186 228.996 83.7344 228.896 83.7713C228.796 83.8082 228.705 83.8654 228.63 83.9391C228.554 84.0129 228.496 84.1014 228.458 84.1989C228.42 84.2964 228.404 84.4006 228.41 84.5047C228.417 84.6087 228.446 84.7102 228.496 84.8025C228.546 84.8947 228.615 84.9755 228.699 85.0396L229.426 85.7367L228.739 86.4854C228.612 86.5815 228.52 86.7155 228.477 86.8671C228.435 87.0187 228.445 87.1797 228.504 87.3256C228.564 87.4715 228.671 87.5944 228.809 87.6757C228.946 87.757 229.108 87.7923 229.268 87.7762C229.365 87.7783 229.463 87.7611 229.554 87.7256C229.644 87.6901 229.727 87.637 229.796 87.5696L230.524 86.8597L231.237 87.5696C231.379 87.7034 231.569 87.7775 231.766 87.7762C231.864 87.7783 231.961 87.7611 232.052 87.7256C232.143 87.6901 232.226 87.637 232.295 87.5696C232.434 87.432 232.512 87.2465 232.512 87.0533C232.512 86.8601 232.434 86.6746 232.295 86.537L231.581 85.827L232.295 85.13C232.376 85.0581 232.44 84.9699 232.483 84.8714C232.526 84.7728 232.546 84.6664 232.542 84.5595C232.538 84.4526 232.511 84.3478 232.461 84.2523C232.412 84.1569 232.341 84.0732 232.255 84.007Z" fill="#06120E"/>
<path d="M25.3706 87.9569C25.2296 87.8213 25.0397 87.7453 24.8418 87.7453C24.6439 87.7453 24.454 87.8213 24.313 87.9569L23.5859 88.6669L22.872 87.9569C22.8063 87.8747 22.7235 87.807 22.6291 87.7584C22.5346 87.7098 22.4307 87.6814 22.3241 87.675C22.2175 87.6686 22.1108 87.6843 22.0109 87.7212C21.9111 87.7582 21.8204 87.8154 21.7449 87.8891C21.6694 87.9628 21.6108 88.0513 21.573 88.1488C21.5352 88.2463 21.519 88.3506 21.5256 88.4546C21.5322 88.5587 21.5613 88.6602 21.6111 88.7524C21.6609 88.8446 21.7302 88.9255 21.8144 88.9896L22.5283 89.6995L21.8144 90.3966C21.6755 90.5342 21.5976 90.7197 21.5976 90.9129C21.5976 91.1061 21.6755 91.2916 21.8144 91.4292C21.8831 91.4984 21.9653 91.5534 22.0561 91.5911C22.1469 91.6288 22.2445 91.6484 22.3432 91.6487C22.5419 91.6452 22.7315 91.5665 22.872 91.4292L23.5859 90.7322L24.313 91.4292C24.3817 91.4984 24.4639 91.5534 24.5547 91.5911C24.6455 91.6288 24.7431 91.6484 24.8418 91.6487C25.0405 91.6452 25.2301 91.5665 25.3706 91.4292C25.5095 91.2916 25.5873 91.1061 25.5873 90.9129C25.5873 90.7197 25.5095 90.5342 25.3706 90.3966L24.6435 89.6995L25.3706 88.9896C25.5095 88.8519 25.5873 88.6665 25.5873 88.4732C25.5873 88.28 25.5095 88.0946 25.3706 87.9569Z" fill="#06120E"/>
<path d="M278.236 147.541H260.005V141.746C262.246 141.558 264.326 140.532 265.811 138.882C267.296 137.233 268.072 135.087 267.975 132.892C267.879 130.698 266.918 128.625 265.294 127.106C263.67 125.586 261.507 124.738 259.258 124.738C257.009 124.738 254.846 125.586 253.222 127.106C251.597 128.625 250.637 130.698 250.541 132.892C250.444 135.087 251.219 137.233 252.705 138.882C254.19 140.532 256.27 141.558 258.511 141.746V147.541H243.969V127.701H250.38C250.487 127.715 250.595 127.707 250.698 127.677C250.801 127.646 250.896 127.595 250.976 127.526C251.057 127.457 251.122 127.372 251.166 127.276C251.211 127.181 251.234 127.077 251.234 126.972C251.234 126.867 251.211 126.764 251.166 126.668C251.122 126.573 251.057 126.488 250.976 126.419C250.896 126.35 250.801 126.298 250.698 126.268C250.595 126.238 250.487 126.229 250.38 126.243H248.199V97.3154C248.199 97.2194 248.18 97.1244 248.142 97.0358C248.104 96.9473 248.048 96.867 247.978 96.7997C247.908 96.7324 247.824 96.6794 247.733 96.6439C247.642 96.6083 247.544 96.5909 247.446 96.5926H218.599V28.1788C218.599 28.0828 218.579 27.9877 218.541 27.8992C218.503 27.8106 218.448 27.7304 218.377 27.6631C218.307 27.5958 218.224 27.5428 218.133 27.5072C218.041 27.4717 217.944 27.4542 217.845 27.456H204.361C204.262 27.4542 204.165 27.4717 204.073 27.5072C203.982 27.5428 203.899 27.5958 203.829 27.6631C203.758 27.7304 203.703 27.8106 203.665 27.8992C203.627 27.9877 203.607 28.0828 203.607 28.1788V31.5092H192.013V21.1825C192.013 20.9874 191.933 20.8003 191.792 20.6623C191.651 20.5243 191.459 20.4468 191.259 20.4468C191.059 20.4468 190.868 20.5243 190.726 20.6623C190.585 20.8003 190.506 20.9874 190.506 21.1825V31.5092H182.573C182.475 31.5091 182.378 31.5283 182.287 31.5654C182.196 31.6025 182.114 31.6569 182.045 31.7254C181.976 31.7939 181.922 31.8751 181.886 31.9643C181.849 32.0535 181.831 32.1489 181.833 32.2449V70.4405H159.359V32.2707C159.359 32.0756 159.279 31.8885 159.138 31.7505C158.997 31.6125 158.805 31.535 158.605 31.535H133.473V24.0611C133.473 23.8694 133.395 23.6855 133.256 23.5499C133.118 23.4144 132.929 23.3382 132.733 23.3382C132.535 23.3382 132.346 23.4139 132.205 23.5491C132.064 23.6844 131.983 23.8682 131.979 24.0611V31.5221H125.911C125.813 31.522 125.715 31.5412 125.625 31.5783C125.534 31.6154 125.452 31.6698 125.383 31.7383C125.314 31.8068 125.26 31.888 125.223 31.9772C125.187 32.0664 125.169 32.1618 125.171 32.2578V38.3376H119.473C119.373 38.3359 119.275 38.3537 119.182 38.3901C119.09 38.4264 119.006 38.4806 118.936 38.5492C118.866 38.6179 118.81 38.6997 118.773 38.7898C118.736 38.8798 118.718 38.9763 118.719 39.0734V63.6636H86.3163V51.0523C86.3094 50.8616 86.227 50.681 86.0865 50.5486C85.9459 50.4161 85.7581 50.3422 85.5627 50.3423H61.7662V43.772C61.7662 43.5803 61.6882 43.3964 61.5493 43.2609C61.4105 43.1253 61.2222 43.0491 61.0258 43.0491C60.8282 43.0491 60.6386 43.1248 60.4976 43.2601C60.3567 43.3953 60.2757 43.5791 60.2723 43.772V50.3423H53.6621C53.5638 50.3406 53.4661 50.358 53.3747 50.3936C53.2834 50.4291 53.2002 50.4821 53.1301 50.5494C53.0599 50.6167 53.0042 50.697 52.9661 50.7855C52.9281 50.8741 52.9085 50.9691 52.9086 51.0652V86.692H38.0357C37.8381 86.6919 37.6484 86.7677 37.5075 86.9029C37.3665 87.0381 37.2856 87.2219 37.2821 87.4148V101.975H19.752C19.6537 101.974 19.556 101.991 19.4646 102.027C19.3733 102.062 19.2901 102.115 19.2199 102.182C19.1498 102.25 19.094 102.33 19.056 102.419C19.018 102.507 18.9984 102.602 18.9984 102.698V122.9C19.0226 123.076 19.1116 123.239 19.249 123.356C19.3864 123.473 19.5628 123.538 19.7454 123.538C19.928 123.538 20.1044 123.473 20.2418 123.356C20.3792 123.239 20.4682 123.076 20.4923 122.9V103.408H37.2821V115.658C37.2821 115.853 37.3615 116.04 37.5028 116.178C37.6442 116.316 37.8358 116.394 38.0357 116.394C38.2355 116.394 38.4272 116.316 38.5685 116.178C38.7099 116.04 38.7892 115.853 38.7892 115.658V88.1377H60.2194V147.516H38.7892V140.08C40.3967 139.974 41.9613 139.528 43.3744 138.772C44.7876 138.017 46.0154 136.97 46.9726 135.705V144.573C46.9726 144.669 46.9922 144.764 47.0302 144.852C47.0682 144.941 47.124 145.021 47.1941 145.088C47.2643 145.156 47.3475 145.209 47.4388 145.244C47.5302 145.28 47.6279 145.297 47.7262 145.295H51.4147C51.611 145.295 51.7993 145.219 51.9382 145.084C52.077 144.948 52.155 144.764 52.155 144.573V90.2675C52.1568 90.1715 52.1389 90.0761 52.1025 89.9869C52.0661 89.8978 52.0118 89.8165 51.9429 89.748C51.874 89.6795 51.7918 89.6251 51.7011 89.588C51.6104 89.5509 51.513 89.5318 51.4147 89.5318H47.7262C47.6267 89.53 47.5279 89.5479 47.4357 89.5842C47.3435 89.6206 47.2597 89.6747 47.1894 89.7434C47.119 89.812 47.0636 89.8939 47.0263 89.9839C46.9891 90.074 46.9708 90.1704 46.9726 90.2675V122.809C45.6419 121.049 43.7974 119.722 41.6809 119.003C39.5645 118.284 37.2749 118.206 35.1124 118.78C32.9498 119.353 31.0152 120.551 29.5623 122.217C28.1094 123.883 27.2059 125.939 26.9703 128.115C26.0911 126.988 24.9379 126.094 23.6153 125.513C22.2926 124.932 20.8423 124.683 19.396 124.788C17.9496 124.893 16.5529 125.348 15.3327 126.114C14.1124 126.879 13.1071 127.93 12.4079 129.17C11.7088 130.411 11.338 131.803 11.3291 133.219C11.3202 134.635 11.6735 136.031 12.3569 137.28C13.0404 138.529 14.0324 139.591 15.243 140.371C16.4535 141.151 17.8443 141.623 19.2893 141.746V147.541H0.780824C0.674395 147.528 0.566163 147.536 0.463378 147.566C0.360593 147.597 0.265627 147.648 0.184844 147.717C0.10406 147.786 0.0393238 147.871 -0.00502896 147.967C-0.0493817 148.062 -0.0723267 148.166 -0.0723267 148.271C-0.0723267 148.376 -0.0493817 148.479 -0.00502896 148.575C0.0393238 148.67 0.10406 148.755 0.184844 148.824C0.265627 148.893 0.360593 148.945 0.463378 148.975C0.566163 149.005 0.674395 149.014 0.780824 149H278.236C278.417 148.977 278.583 148.89 278.703 148.755C278.823 148.621 278.89 148.449 278.89 148.271C278.89 148.092 278.823 147.92 278.703 147.786C278.583 147.652 278.417 147.565 278.236 147.541ZM48.4665 133.046C49.4003 130.611 49.4003 127.929 48.4665 125.494V90.9904H50.6611V143.914H48.4665V133.046ZM20.0428 132.529C19.9434 132.527 19.8446 132.545 19.7524 132.582C19.6601 132.618 19.5763 132.672 19.506 132.741C19.4357 132.809 19.3802 132.891 19.343 132.981C19.3057 133.071 19.2875 133.168 19.2893 133.265V137.137L16.0767 134.001C16.0111 133.919 15.9283 133.851 15.8338 133.802C15.7394 133.754 15.6354 133.725 15.5288 133.719C15.4223 133.712 15.3155 133.728 15.2157 133.765C15.1158 133.802 15.0251 133.859 14.9496 133.933C14.8741 134.007 14.8155 134.095 14.7777 134.193C14.7399 134.29 14.7238 134.394 14.7304 134.498C14.7369 134.602 14.7661 134.704 14.8158 134.796C14.8656 134.888 14.9349 134.969 15.0191 135.033L19.2893 139.203V140.261C17.446 140.074 15.7466 139.204 14.5417 137.829C13.3369 136.454 12.7185 134.68 12.8144 132.873C12.9102 131.066 13.7129 129.364 15.0567 128.118C16.4006 126.872 18.183 126.177 20.0362 126.177C21.8894 126.177 23.6719 126.872 25.0157 128.118C26.3596 129.364 27.1622 131.066 27.2581 132.873C27.3539 134.68 26.7356 136.454 25.5307 137.829C24.3259 139.204 22.6264 140.074 20.7832 140.261V138.286L24.1147 135.033C24.1989 134.969 24.2682 134.888 24.318 134.796C24.3677 134.704 24.3969 134.602 24.4034 134.498C24.41 134.394 24.3939 134.29 24.3561 134.193C24.3183 134.095 24.2597 134.007 24.1842 133.933C24.1087 133.859 24.018 133.802 23.9181 133.765C23.8183 133.728 23.7115 133.712 23.605 133.719C23.4984 133.725 23.3944 133.754 23.3 133.802C23.2055 133.851 23.1227 133.919 23.0571 134.001L20.7832 136.221V133.239C20.7797 133.05 20.7002 132.869 20.5617 132.736C20.4232 132.604 20.2369 132.529 20.0428 132.529ZM37.2293 147.541H20.7832V141.746C22.6535 141.588 24.4221 140.846 25.8269 139.63C27.2317 138.414 28.1982 136.789 28.5832 134.995C29.5105 136.467 30.7828 137.702 32.2953 138.6C33.8077 139.498 35.5169 140.032 37.2821 140.158L37.2293 147.541ZM37.9828 128.541C37.7852 128.541 37.5955 128.616 37.4546 128.751C37.3136 128.887 37.2327 129.07 37.2293 129.263V134.866L32.7211 130.373C32.5762 130.263 32.3949 130.208 32.2114 130.219C32.0279 130.23 31.8549 130.307 31.7249 130.433C31.5949 130.56 31.5169 130.729 31.5056 130.908C31.4943 131.088 31.5505 131.265 31.6635 131.406L37.2821 136.892V138.596C35.5752 138.461 33.9361 137.884 32.5338 136.925C31.1314 135.965 30.0168 134.657 29.3048 133.136C28.5928 131.616 28.3093 129.937 28.4834 128.274C28.6576 126.61 29.2831 125.022 30.2955 123.674C31.3079 122.325 32.6705 121.265 34.2427 120.602C35.8149 119.939 37.5397 119.698 39.2392 119.903C40.9388 120.109 42.5514 120.753 43.9109 121.77C45.2703 122.786 46.3272 124.139 46.9726 125.688C47.7859 127.948 47.7859 130.411 46.9726 132.671C46.3025 134.296 45.1818 135.706 43.7362 136.744C42.2907 137.781 40.5776 138.405 38.7892 138.544V135.653L43.1916 131.355C43.3047 131.213 43.3608 131.036 43.3495 130.857C43.3382 130.678 43.2602 130.509 43.1302 130.382C43.0002 130.255 42.8272 130.179 42.6437 130.168C42.4602 130.157 42.279 130.211 42.134 130.322L38.7892 133.588V129.173C38.7636 128.996 38.673 128.835 38.5344 128.718C38.3957 128.602 38.2185 128.539 38.0357 128.541H37.9828ZM60.2194 86.679H54.4025V51.8268H60.2194V86.679ZM85.5627 130.077C85.3652 130.08 85.1769 130.159 85.0384 130.297C84.9 130.434 84.8224 130.619 84.8224 130.812V133.975L83.0377 132.245C82.972 132.163 82.8892 132.095 82.7948 132.047C82.7003 131.998 82.5963 131.97 82.4898 131.963C82.3832 131.957 82.2765 131.973 82.1766 132.01C82.0768 132.046 81.9861 132.104 81.9106 132.177C81.8351 132.251 81.7765 132.34 81.7387 132.437C81.7009 132.535 81.6847 132.639 81.6913 132.743C81.6979 132.847 81.727 132.948 81.7768 133.041C81.8266 133.133 81.8958 133.214 81.98 133.278L84.8224 136.04V141.565H76.1234L85.5627 121.105L95.0021 141.565H86.3163V139.087L89.2116 136.247C89.3246 136.105 89.3807 135.928 89.3694 135.749C89.3581 135.57 89.2801 135.401 89.1502 135.274C89.0202 135.147 88.8472 135.071 88.6637 135.06C88.4802 135.049 88.2989 135.104 88.1539 135.214L86.3163 137.021V130.812C86.3129 130.618 86.2324 130.433 86.0918 130.296C85.9512 130.159 85.7615 130.08 85.5627 130.077ZM96.8 147.541C96.8685 147.433 96.9051 147.308 96.9058 147.18C96.9058 146.126 97.3348 145.114 98.0984 144.369C98.862 143.623 99.8977 143.204 100.978 143.204C102.058 143.204 103.093 143.623 103.857 144.369C104.621 145.114 105.05 146.126 105.05 147.18C105.05 147.308 105.087 147.433 105.155 147.541H96.8ZM106.438 147.541C106.506 147.433 106.543 147.308 106.543 147.18C106.506 146.4 106.63 145.621 106.91 144.89C107.189 144.158 107.618 143.49 108.17 142.925C108.722 142.36 109.385 141.91 110.12 141.603C110.855 141.296 111.647 141.137 112.446 141.137C113.246 141.137 114.037 141.296 114.772 141.603C115.507 141.91 116.171 142.36 116.723 142.925C117.274 143.49 117.703 144.158 117.983 144.89C118.262 145.621 118.387 146.4 118.349 147.18C118.35 147.308 118.386 147.433 118.455 147.541H106.438ZM118.719 73.7966V143.372C118.012 142.254 117.004 141.346 115.806 140.748C114.608 140.149 113.265 139.881 111.922 139.974C110.579 140.067 109.288 140.517 108.189 141.276C107.089 142.034 106.223 143.071 105.684 144.276C105.041 143.281 104.085 142.517 102.96 142.098C101.834 141.68 100.6 141.629 99.4422 141.953C98.2845 142.277 97.2658 142.96 96.5391 143.898C95.8124 144.835 95.4168 145.978 95.4119 147.154C95.4126 147.282 95.4492 147.407 95.5177 147.516H86.2634V142.998H96.1258C96.3221 142.998 96.5105 142.922 96.6493 142.786C96.7881 142.65 96.8661 142.467 96.8661 142.275C96.8692 142.133 96.8277 141.993 96.7471 141.875L86.1709 119.001C86.1121 118.871 86.0158 118.76 85.8938 118.682C85.7718 118.604 85.6292 118.563 85.4834 118.562C85.3391 118.562 85.198 118.604 85.0779 118.682C84.9578 118.76 84.8643 118.871 84.8092 119.001L74.2329 141.965C74.2277 142.017 74.2277 142.068 74.2329 142.12C74.2329 142.12 74.2329 142.223 74.2329 142.275C74.2265 142.309 74.2265 142.344 74.2329 142.378C74.2481 142.483 74.284 142.584 74.3387 142.675C74.4033 142.758 74.4789 142.831 74.5634 142.895C74.6415 142.938 74.7264 142.968 74.8146 142.985C74.8712 142.998 74.9299 142.998 74.9865 142.985H84.8224V147.503H61.7133V51.788H84.8224V115.658C84.8224 115.85 84.9004 116.034 85.0393 116.169C85.1781 116.305 85.3664 116.381 85.5627 116.381C85.7603 116.381 85.95 116.305 86.091 116.17C86.2319 116.035 86.3128 115.851 86.3163 115.658V65.1223H118.719V73.7966ZM126.652 32.9807H131.94V38.3376H126.652V32.9807ZM151.611 147.541H120.213V39.7963H151.625L151.611 147.541ZM157.931 46.5344V147.541H153.119V39.7963H157.944L157.931 46.5344ZM157.931 38.3376H133.473V32.9807H157.944L157.931 38.3376ZM191.246 130.077C191.047 130.08 190.858 130.159 190.717 130.296C190.576 130.433 190.496 130.618 190.492 130.812V133.975L188.721 132.245C188.655 132.163 188.572 132.095 188.478 132.047C188.384 131.998 188.28 131.97 188.173 131.963C188.066 131.957 187.96 131.973 187.86 132.01C187.76 132.046 187.669 132.104 187.594 132.177C187.518 132.251 187.46 132.34 187.422 132.437C187.384 132.535 187.368 132.639 187.375 132.743C187.381 132.847 187.41 132.948 187.46 133.041C187.51 133.133 187.579 133.214 187.663 133.278L190.492 136.04V141.565H181.807L191.246 121.105L200.685 141.565H192V139.087L194.895 136.247C195.008 136.105 195.064 135.928 195.053 135.749C195.041 135.57 194.963 135.401 194.833 135.274C194.703 135.147 194.53 135.071 194.347 135.06C194.163 135.049 193.982 135.104 193.837 135.214L192 137.021V130.812C191.996 130.62 191.918 130.437 191.78 130.3C191.642 130.163 191.456 130.083 191.259 130.077H191.246ZM217.105 35.0976V147.541H191.986V143.024H201.849C202.045 143.024 202.233 142.947 202.372 142.812C202.511 142.676 202.589 142.492 202.589 142.301C202.586 142.16 202.545 142.022 202.47 141.901L191.894 119.027C191.829 118.911 191.733 118.815 191.617 118.747C191.501 118.68 191.368 118.645 191.233 118.645C191.098 118.645 190.965 118.68 190.849 118.747C190.732 118.815 190.637 118.911 190.572 119.027L179.996 141.991C179.996 141.991 179.996 142.094 179.996 142.146C179.989 142.197 179.989 142.249 179.996 142.301C179.989 142.335 179.989 142.37 179.996 142.404C180.011 142.509 180.047 142.61 180.101 142.701C180.162 142.786 180.239 142.861 180.326 142.92C180.404 142.964 180.489 142.994 180.577 143.011C180.634 143.023 180.693 143.023 180.749 143.011H190.572V147.529H159.504V71.8991H181.979V130.812C182.003 130.989 182.092 131.151 182.229 131.269C182.367 131.386 182.543 131.451 182.726 131.451C182.908 131.451 183.085 131.386 183.222 131.269C183.359 131.151 183.448 130.989 183.472 130.812V32.9807H190.611V114.677C190.611 114.872 190.691 115.059 190.832 115.197C190.973 115.335 191.165 115.413 191.365 115.413C191.565 115.413 191.757 115.335 191.898 115.197C192.039 115.059 192.119 114.872 192.119 114.677V32.9807H217.237L217.105 35.0976ZM217.105 31.5221H205.101V28.9404H217.105V31.5221ZM236.935 147.541H218.599V103.408H236.922L236.935 147.541ZM242.435 147.541H238.469V103.408H242.435V147.541ZM243.175 101.975H218.599V98.1029H246.652V126.243H243.916V102.672C243.909 102.485 243.828 102.308 243.69 102.178C243.552 102.048 243.367 101.975 243.175 101.975ZM259.265 132.555C259.165 132.553 259.066 132.571 258.974 132.607C258.882 132.644 258.798 132.698 258.728 132.767C258.657 132.835 258.602 132.917 258.565 133.007C258.527 133.097 258.509 133.194 258.511 133.291V137.163L255.298 134.027C255.233 133.944 255.15 133.877 255.056 133.828C254.961 133.779 254.857 133.751 254.751 133.745C254.644 133.738 254.537 133.754 254.437 133.791C254.338 133.828 254.247 133.885 254.171 133.959C254.096 134.032 254.037 134.121 253.999 134.218C253.962 134.316 253.946 134.42 253.952 134.524C253.959 134.628 253.988 134.73 254.038 134.822C254.087 134.914 254.157 134.995 254.241 135.059L258.511 139.229V140.287C256.668 140.1 254.968 139.229 253.763 137.855C252.559 136.48 251.94 134.706 252.036 132.899C252.132 131.092 252.935 129.39 254.278 128.144C255.622 126.898 257.405 126.203 259.258 126.203C261.111 126.203 262.894 126.898 264.237 128.144C265.581 129.39 266.384 131.092 266.48 132.899C266.576 134.706 265.957 136.48 264.752 137.855C263.548 139.229 261.848 140.1 260.005 140.287V138.312L263.336 135.059C263.449 134.918 263.506 134.741 263.494 134.561C263.483 134.382 263.405 134.213 263.275 134.086C263.145 133.96 262.972 133.883 262.789 133.872C262.605 133.861 262.424 133.916 262.279 134.027L260.005 136.247V133.265C260.007 133.169 259.989 133.074 259.952 132.984C259.916 132.895 259.862 132.814 259.793 132.745C259.724 132.677 259.642 132.623 259.551 132.585C259.46 132.548 259.363 132.529 259.265 132.529V132.555Z" fill="#06120E"/>
</g>
<defs>
<clipPath id="clip0_95_390">
<rect width="278.949" height="149" fill="white" transform="translate(0.0272827)"/>
</clipPath>
</defs>
</svg>